<?xml version="1.0" standalone="no"?>
<!DOCTYPE svg PUBLIC "-//W3C//DTD SVG 1.1//EN" "http://www.w3.org/Graphics/SVG/1.1/DTD/svg11.dtd" >
<svg xmlns="http://www.w3.org/2000/svg" xmlns:xlink="http://www.w3.org/1999/xlink" version="1.1">
<metadata>
Created by FontForge 20170910 at Fri Jun 10 06:46:28 2016
 By Jimmy Wärting
Copyright (c) 2016 by Brittney Murphy. All rights reserved.
</metadata>
<defs>
<font id="SimpleJoys" horiz-adv-x="271" >
  <font-face 
    font-family="Simple Joys"
    font-weight="400"
    font-stretch="normal"
    units-per-em="1000"
    panose-1="0 0 0 0 0 0 0 0 0 0"
    ascent="750"
    descent="-250"
    x-height="269"
    cap-height="476.5"
    bbox="-149.244 -431.05 590.727 649.517"
    underline-thickness="50"
    underline-position="-100"
    unicode-range="U+000D-FB00"
  />
<missing-glyph horiz-adv-x="170" 
 />
    <glyph glyph-name=".notdef" horiz-adv-x="170" 
 />
    <glyph glyph-name="NULL" horiz-adv-x="0" 
 />
    <glyph glyph-name="NULL" horiz-adv-x="0" 
 />
    <glyph glyph-name="nonmarkingreturn" unicode="&#xd;" horiz-adv-x="170" 
 />
    <glyph glyph-name="space" unicode=" " horiz-adv-x="170" 
 />
    <glyph glyph-name="e" unicode="e" horiz-adv-x="283" 
d="M21 128q-12 2 -13.5 12.5t10.5 14.5q5 1 10 1.5t10 0.5q2 29 8.5 57t18.5 45q18 25 38.5 22t35 -20.5t18 -43.5t-11.5 -47q-8 -11 -21.5 -19t-29.5 -13q1 -40 12 -71.5t43 -40.5q26 5 48 22.5t40 35.5q6 5 13 4.5t12 -4t7 -9t-3 -11.5q-16 -15 -32 -27.5t-36 -22.5
q-42 -20 -72 -16.5t-49.5 22t-29 48t-10.5 61.5q-5 0 -9.5 -0.5t-6.5 -0.5zM121 187q14 14 9 30.5t-16 24.5q-5 -6 -8 -15t-5.5 -19.5t-3.5 -21t-2 -18.5q15 7 26 19z" />
    <glyph glyph-name="f" unicode="f" horiz-adv-x="243" 
d="M162 441q8 -9 2.5 -17t-19.5 -3l-29 10q-8 -35 -3 -73t11 -74q26 5 50.5 6.5t47.5 -1.5q7 -2 9.5 -7t1.5 -10t-6 -8.5t-12 -2.5q-21 1 -42.5 -0.5t-44.5 -4.5q5 -37 10 -89t7.5 -105.5t0 -100t-13.5 -73.5q-11 -25 -34 -35t-50 -15q-6 -1 -10.5 2t-6.5 7.5t0 9.5t9 7
q21 3 32.5 11.5t16.5 22t5.5 30.5t0.5 37q0 16 -1 45.5t-3.5 67t-6.5 81t-10 89.5q-13 -2 -26 -3t-25 -2q-14 2 -13 14.5t15 13.5q11 0 22 1t23 3q-6 50 -12 91.5t5 76.5q8 22 20.5 22.5t24.5 -1.5q16 -5 30 -10t24 -13z" />
    <glyph glyph-name="g" unicode="g" 
d="M140 239q5 20 9 35.5t11 29.5q4 9 10.5 11.5t12 1t10 -6t6.5 -10.5v-26t-2 -34q2 -30 8.5 -61t14.5 -65q10 -48 20.5 -96.5t19.5 -97.5q13 2 25.5 3.5t26.5 3.5q6 0 10 -3t5.5 -7.5t0 -9t-8.5 -6.5l-28 -4l-28 -4q6 -42 8.5 -81.5t0.5 -79.5q-2 -35 -16 -58.5t-35.5 -37
t-47.5 -19t-52 -5.5q-32 0 -66.5 9.5t-63.5 26.5q-21 12 -38.5 27.5t-29 32.5t-15 35t2.5 36q10 27 45.5 48.5t79.5 37.5t90 27t79 17q-11 66 -24.5 123.5t-26.5 126.5q-7 -15 -18.5 -31.5t-25 -29t-29 -19t-29.5 -1.5q-9 4 -14 12t-7.5 18t-2 20.5t1.5 18.5q4 26 15.5 51
t34.5 41q12 7 28.5 6.5t31.5 -6.5zM204 -315q15 37 14.5 89.5t-8.5 107.5q-24 -5 -61.5 -13.5t-76.5 -22.5t-72 -32.5t-48 -42.5q-12 -18 -0.5 -39t36 -39t57.5 -31.5t65 -17t57.5 5.5t36.5 35zM132 211q-12 2 -22 -8t-16.5 -25t-9 -31.5t0.5 -27.5q12 14 24 39.5t23 52.5z
" />
    <glyph glyph-name="h" unicode="h" horiz-adv-x="359" 
d="M47 445q2 7 10 11t18 4.5t18 -2.5t10 -11q0 -78 -0.5 -156.5t7.5 -167.5q12 35 27 71.5t38 56.5q10 9 25 8t20 -3q17 -10 26.5 -30t15 -44t9.5 -49.5t10.5 -48t18 -39t31.5 -21.5h8q11 -4 10.5 -14.5t-14.5 -12.5q-9 -2 -21 -2.5t-23 2.5q-23 7 -37.5 26.5t-23.5 43.5
t-14.5 49t-9.5 44l-2 9.5t-4.5 21t-6 22t-6.5 13.5q-15 -17 -25 -43t-17 -55.5t-11.5 -59t-7.5 -51.5q-1 -7 -8 -10.5t-16 -3.5t-17.5 3.5t-11.5 10.5q-9 21 -14.5 54t-8.5 72t-4 81t-1 82.5t0.5 76.5t1.5 62z" />
    <glyph glyph-name="i" unicode="i" horiz-adv-x="152" 
d="M46 249q1 11 8.5 16t16 5t16.5 -5t10 -14q0 -60 3.5 -120.5t3.5 -120.5q0 -8 -8.5 -12.5t-18.5 -5t-18.5 3t-9.5 12.5q0 62 -1.5 121.5t-1.5 119.5zM77 376q10 -7 13 -15.5t0 -14.5t-11 -8t-21 5q-8 4 -9 11.5t2.5 14t10.5 9.5t15 -2z" />
    <glyph glyph-name="j" unicode="j" horiz-adv-x="175" 
d="M47 264q0 10 7.5 13.5t17.5 3t19.5 -5t12.5 -10.5q-3 -65 4 -128.5t15 -126.5l24 14q14 4 19 -7t-8 -18q-8 -4 -16 -7.5t-16 -8.5q2 -28 6 -64t6.5 -75t2.5 -78t-5 -73.5t-16 -61t-31 -40.5q-8 -5 -19.5 -7.5t-24.5 -2.5t-25 1.5t-20 5.5q-17 6 -30.5 17t-23.5 21
q-20 21 -34.5 49.5t-20 60t1 63t28.5 57.5q32 40 69.5 69t78.5 54l-16 142t-6 143zM45 -384q15 9 23.5 32t12.5 53.5t4 65.5t-2 69t-5 64.5t-6 51.5q-38 -22 -69.5 -51.5t-56.5 -63.5q-17 -23 -20.5 -51t2.5 -56t19.5 -53t30 -42t34.5 -23t33 4zM82 332q-19 -10 -27 1.5
t5 27.5q10 12 19.5 11.5t14 -7.5t2.5 -16.5t-14 -16.5z" />
    <glyph glyph-name="k" unicode="k" horiz-adv-x="398" 
d="M204 352q1 7 6.5 10t11 2.5t9 -4.5t0.5 -11q-13 -38 -29 -66.5t-31 -49.5t-26.5 -35t-16.5 -24q0 -1 -1 -1q29 0 63 -14t68.5 -33t67 -39.5t56.5 -35.5q11 -8 7 -17.5t-18 -8.5q-25 14 -59 31.5t-70 32t-70.5 24t-61.5 7.5q-1 -6 -2 -23.5t-2.5 -37t-2.5 -37t-1 -23.5
q-1 -7 -9.5 -11t-18.5 -4.5t-18.5 3t-9.5 10.5l5 101q-7 2 -8.5 9t0 15.5t4.5 17t5 13.5q2 88 -1 175t-10 177q-1 9 6.5 13.5t17 5t19 -3t13.5 -9.5q8 -77 11 -146.5t2 -148.5q10 13 23.5 30t27 35t25 36t18.5 35z" />
    <glyph glyph-name="l" unicode="l" horiz-adv-x="152" 
d="M47 461q1 7 9 10.5t18 3.5t18.5 -3t10.5 -9q0 -59 -0.5 -127.5t0 -133t2 -118.5t6.5 -85q-1 -7 -6.5 -10.5t-13 -4.5t-14.5 1.5t-10 7.5q-9 34 -13 88.5t-6 119t-1.5 132.5t0.5 128z" />
    <glyph glyph-name="m" unicode="m" horiz-adv-x="533" 
d="M40 272q1 10 9.5 14t18 3t18 -5t10.5 -10q1 -37 2.5 -75t5.5 -77q8 33 18.5 65t30.5 62q4 7 13.5 9t19 0.5t18 -5t11.5 -7.5q4 -10 9 -29.5t11 -43l12 -47t12 -40.5q6 14 13 32.5t14.5 38t15.5 38t16 31.5q17 28 33 28q20 0 31 -12.5t18 -31t11.5 -41t10.5 -43.5
t15.5 -38t27.5 -24q10 3 19 8t19 10q14 5 19.5 -6t-7.5 -19q-11 -6 -22.5 -12t-24.5 -10q-24 -7 -41 -0.5t-28.5 21.5t-19 35.5t-13 41t-10.5 38.5t-11 28q-12 -16 -21.5 -36.5t-17.5 -41.5t-15.5 -41t-17.5 -34q-8 -11 -21.5 -16t-29.5 14q-8 9 -15.5 30.5t-14.5 46.5
t-13.5 49.5t-12.5 41.5q-12 -20 -17.5 -45.5t-8.5 -52.5t-5 -53.5t-8 -48.5q-2 -7 -11 -11t-19 -4.5t-19 2.5t-12 10q-14 64 -18.5 131.5t-7.5 131.5z" />
    <glyph glyph-name="n" unicode="n" horiz-adv-x="322" 
d="M52 259q5 9 14 10.5t18 -2.5t15.5 -10.5t5.5 -12.5q-2 -26 -3.5 -49t-1.5 -41q3 10 6.5 22.5t8 24.5t11 23t15.5 18q14 12 31.5 8.5t24.5 -8.5q20 -17 29.5 -40.5t15 -49t11 -49.5t19.5 -41h14.5t13.5 -1q12 -5 12 -15.5t-13 -12.5t-30 -1t-26 3q-19 7 -30.5 30.5t-20 52
t-16 55.5t-18.5 41q-9 -6 -15 -30t-10.5 -52.5t-8.5 -56t-9 -40.5q-3 -6 -10.5 -8.5t-15.5 -2.5t-15.5 3t-10.5 8t-5.5 21t-5 37.5t-4 47t-1.5 48.5t1 42t4 28z" />
    <glyph glyph-name="o" unicode="o" horiz-adv-x="225" 
d="M147 252q-1 -8 -5 -12q13 -17 23 -41t15.5 -49.5t5.5 -50.5t-8 -44.5t-25 -31t-45 -9.5q-24 1 -39 16t-22.5 37.5t-8 49.5t5 53.5t15.5 49t24 35.5q4 13 17 9q14 6 29 5t18 -17zM120 50q19 6 25.5 28.5t4 49.5t-11.5 53t-19 40q-18 -24 -21.5 -59t1.5 -62
q2 -11 6.5 -25.5t14.5 -24.5z" />
    <glyph glyph-name="p" unicode="p" 
d="M38 291q1 7 9.5 10.5t18 3.5t18 -3t10.5 -9l2 -56t3 -56q13 26 29.5 45.5t42.5 21.5q25 2 46.5 -14t24.5 -43t-7 -53t-27.5 -48.5t-40.5 -41t-46 -30.5l9 -72q1 -14 4 -32.5t5 -38.5t1 -39.5t-8 -33.5q-3 -3 -10.5 -6t-15.5 -3.5t-16 2t-13 10.5q-10 58 -14 116t-9 115
q-4 65 -8.5 128t-7.5 127zM119 137q-1 -22 -1.5 -43.5t0.5 -44.5q21 13 39.5 37t28 50t6 48t-26.5 31q-17 -8 -30.5 -28.5t-15.5 -49.5z" />
    <glyph glyph-name="q" unicode="q" horiz-adv-x="254" 
d="M75 238q15 14 36.5 14t35.5 -8q2 7 2 15.5t1 25.5q0 9 8 13t18 4t19 -4t11 -11t1 -18t-1 -24q-1 -39 -1 -72v-72q1 -37 1.5 -70t3.5 -69q12 2 23.5 2.5t23.5 -0.5q26 -1 49.5 -8t41 -20.5t26.5 -34.5t6 -50q-3 -25 -14.5 -49.5t-30 -42t-43 -24.5t-53.5 2q-23 8 -37.5 30
t-23.5 50t-13.5 56.5t-6.5 49.5q-28 -8 -53 -18t-46 -27q-3 -7 -12 -10q-10 -2 -16 5.5t0 16.5q10 9 25.5 19t32.5 19t34.5 16t31.5 9q-2 20 -3 39.5t-2 38.5q-2 28 -2 55v56q-9 -20 -23 -38t-29.5 -28.5t-31 -9t-28.5 21.5q-5 8 -7.5 25.5t1.5 39t14.5 44.5t30.5 41z
M254 -65q-21 2 -41 -3q1 -18 4 -43.5t9 -49.5t16 -44t27 -27q11 -5 25.5 2t27 20.5t21.5 30.5t10 33q1 22 -7 37t-22 25t-32.5 14.5t-37.5 4.5zM142 212q-2 3 -6.5 6.5t-17.5 -0.5q-10 -8 -17 -22.5t-11 -31t-4.5 -33.5t4.5 -29q18 16 31 47t21 63z" />
    <glyph glyph-name="r" unicode="r" horiz-adv-x="272" 
d="M38 281q2 11 10 15t18 3t18 -5.5t10 -10.5q0 -8 1 -28.5t3 -47.5q17 35 51 60.5t97 44.5q14 1 16.5 -9.5t-8.5 -17.5q-60 -17 -87 -43t-35 -60.5t-6.5 -78.5t-1.5 -98q-1 -6 -7.5 -9.5t-15.5 -5t-17.5 -1t-12.5 4.5q-3 6 -7 26.5t-7.5 49t-7 62t-6 63.5t-4 53t-1.5 33z
" />
    <glyph glyph-name="s" unicode="s" horiz-adv-x="293" 
d="M207 230q-2 -13 -13.5 -15t-19.5 9q-6 23 -23 37.5t-31 10.5q-18 -4 -18 -16.5t11 -28.5t29.5 -34t37 -35t33.5 -30t20 -18q16 -16 22 -32.5t-4 -33.5t-36 -29.5t-57 -18.5t-60 -4t-44 14q-17 14 -16 30t6 35q1 7 7.5 10.5t13 3t11.5 -5t4 -11.5q-2 -7 -2.5 -14t1.5 -14
t15.5 -11t30.5 -4t34 3.5t26.5 12t8 21.5t-21.5 31q-34 29 -66.5 58t-45.5 64q-12 34 -2 55t29 29q15 6 33 3.5t35.5 -11.5t31.5 -24.5t20 -36.5z" />
    <glyph glyph-name="t" unicode="t" horiz-adv-x="293" 
d="M22 254q-14 2 -13 14t15 14q19 1 37.5 2.5t37.5 4.5q-2 51 -2.5 102.5t-0.5 103.5q1 7 9.5 10.5t18 3.5t18 -3t10.5 -9q0 -51 0.5 -101t2.5 -100q29 5 58 9t58 6q12 -5 12 -15.5t-13 -12.5q-29 -2 -57 -6t-57 -9q2 -46 6.5 -98.5t10 -103t11.5 -94t11 -70.5
q-1 -9 -7.5 -14t-14.5 -5.5t-15.5 3t-9.5 10.5q-23 92 -33.5 182t-14.5 184q-19 -4 -38.5 -5.5t-39.5 -2.5z" />
    <glyph glyph-name="u" unicode="u" horiz-adv-x="290" 
d="M43 245q2 10 10 13.5t17.5 3t18 -4.5t10.5 -10q1 -16 1.5 -36t3 -39.5t6.5 -36.5t12 -26q10 10 17 29t11.5 42t7 47t2.5 44q2 8 10 11.5t17.5 3.5t17.5 -3.5t10 -9.5q5 -37 8.5 -78.5t10 -82t19.5 -78.5t37 -68q7 -8 -4 -15.5t-23 -6.5q-7 0 -16 9q-33 42 -49 96t-24 111
q-3 -11 -8 -26t-12.5 -28.5t-18.5 -23t-27 -10.5q-14 -1 -27 8t-19 29q-11 33 -14 65.5t-5 70.5z" />
    <glyph glyph-name="v" unicode="v" horiz-adv-x="250" 
d="M15 224q-8 7 -4.5 13t12.5 9.5t20.5 3.5t17.5 -6q20 -15 30.5 -36t17 -44.5t11.5 -47.5t14 -46q9 34 15 66.5t13.5 63.5t19.5 61t33 60q11 9 19.5 2.5t4.5 -18.5q-17 -19 -27.5 -47t-16.5 -59t-10 -62.5t-7 -58.5t-7.5 -46t-12.5 -25q-11 -9 -28 -8.5t-24 13.5
q-12 24 -19 53.5t-15.5 58.5t-21 55t-35.5 45z" />
    <glyph glyph-name="w" unicode="w" horiz-adv-x="371" 
d="M43 257q1 9 9.5 12.5t18 3t18 -4t10.5 -9.5q1 -38 2.5 -80.5t7.5 -78.5q4 19 8.5 39t9.5 37.5t10 30.5t9 18q8 10 17.5 13t19 2t17.5 -4.5t13 -6.5q9 -5 17 -21.5t15.5 -38t15.5 -44t17 -39.5q11 38 12.5 81.5t-3.5 87.5q-1 7 2.5 11.5t8.5 5.5t10 -1.5t7 -9.5
q3 -25 5.5 -54t2.5 -58t-3 -57.5t-12 -53.5q-5 -7 -19 -7.5t-22 1.5q-14 5 -27 28t-24.5 51t-20.5 54.5t-16 38.5q-11 -17 -17 -46t-10.5 -58.5t-9.5 -53.5t-14 -31q-4 -2 -11 -4.5t-14.5 -2.5t-14.5 2.5t-11 10.5q-18 59 -25.5 117.5t-8.5 118.5z" />
    <glyph glyph-name="x" unicode="x" horiz-adv-x="296" 
d="M17 -17q26 36 51 76.5t48 82.5q-23 26 -44 53.5t-41 53.5q-5 8 -0.5 15.5t12.5 12.5t17.5 5.5t14.5 -4.5q9 -11 27 -34t39 -52q26 52 44 103q4 10 13 11.5t17.5 -3t14 -12.5t3.5 -15q-11 -32 -25.5 -65t-33.5 -65q29 -39 53.5 -72t37.5 -47q4 -5 3 -10t-4.5 -9t-9 -5.5
t-11.5 2.5q-20 19 -44 44.5t-50 54.5q-26 -42 -55.5 -77.5t-55.5 -61.5q-9 -9 -17 -2t-4 20z" />
    <glyph glyph-name="y" unicode="y" horiz-adv-x="254" 
d="M74 246q3 -18 8.5 -42.5t13.5 -48.5t18.5 -45t23.5 -31q10 13 9 41t-5 63t-8 73t-1 71q3 8 11.5 10.5t17.5 1t16.5 -5.5t9.5 -9q6 -96 16 -189.5t19 -190.5q26 4 47.5 6.5t54.5 6.5q9 -1 13 -4.5t4 -8t-3 -8.5t-8 -5q-18 -2 -31.5 -4t-25 -4l-23 -4t-25.5 -4
q1 -18 2.5 -48t2 -65t-3 -71.5t-12.5 -68t-26 -55t-44 -32.5q-31 -11 -68 -2t-73 30.5t-68 52.5t-53.5 64t-29 64.5t5.5 55.5q15 27 51.5 43.5t81.5 27t92 16.5t83 11q-2 20 -3 34.5t-2.5 27t-3 26.5t-3.5 34q-6 -6 -14.5 -9.5t-16.5 0.5q-16 13 -33 36.5t-31 50.5t-23.5 55
t-9.5 51q2 6 9 9.5t15 3.5t14.5 -2.5t8.5 -8.5zM146 -366q15 27 21 62t7 72.5t-1.5 74t-4.5 66.5q-23 -4 -61.5 -9t-79 -14t-75.5 -22.5t-49 -33.5q-12 -17 -3 -45.5t31 -59.5t52.5 -59.5t62 -44.5t58.5 -15.5t42 28.5z" />
    <glyph glyph-name="z" unicode="z" horiz-adv-x="299" 
d="M52 253q-11 3 -10.5 14t13.5 13q13 -1 40 3t55.5 7t52.5 0.5t32 -16.5q10 -14 8.5 -33t-21.5 -44q-16 -20 -34.5 -45.5t-34 -49t-26 -41t-9.5 -21.5q3 -2 16.5 -2.5t32.5 0t40.5 3.5t40.5 8q7 1 12 -2.5t6 -8t-1.5 -9.5t-8.5 -8q-14 -3 -41.5 -9t-57 -10t-56 -4.5
t-38.5 6.5q-7 5 -10.5 18.5t-0.5 24.5q16 28 33.5 51.5t35 45.5t34.5 45.5t33 52.5q-4 12 -18 14.5t-33.5 1t-42 -4t-42.5 -0.5z" />
    <glyph glyph-name="d" unicode="d" horiz-adv-x="261" 
d="M142 256q5 34 -3 171q-1 9 6.5 13.5t17.5 5.5t19.5 -2t12.5 -9q3 -15 3 -47t0.5 -75t1.5 -92.5t5.5 -98.5t13 -94t23.5 -79q14 6 20.5 -2t-3.5 -19q-10 -8 -24.5 -9t-23.5 10q-18 20 -29 46t-18 54.5t-10 58t-5 57.5q-8 -26 -19.5 -48.5t-25.5 -40.5q-24 -29 -48 -26.5
t-27 43.5q-2 25 4.5 59t21.5 63.5t37 48t50 12.5zM83 73q23 26 36 66t19 84q-10 -9 -20.5 -28t-19 -41t-13.5 -44t-2 -37z" />
    <glyph glyph-name="A" unicode="A" horiz-adv-x="347" 
d="M26 146q-7 -2 -11.5 1t-5.5 7.5t1.5 9.5t10.5 8l27 6q10 72 22.5 144.5t28.5 133.5q3 10 13 19.5t22.5 14.5t24.5 3t18 -14q29 -65 45.5 -131.5t33.5 -135.5q17 2 34 5l34 6q7 1 11 -2.5t4 -8.5t-3.5 -10t-10.5 -6l-63 -11q8 -35 17 -70.5t19.5 -68.5t23 -62.5
t28.5 -51.5q3 -5 2.5 -10t-3.5 -8.5t-8 -5t-10 1.5q-26 22 -44.5 52t-32.5 64.5t-24 73t-18 78.5q-29 -5 -57 -9.5t-54 -8.5l-17 -136q-3 -6 -11.5 -10.5t-18.5 -5.5t-17.5 2.5t-8.5 14.5q3 27 7 58.5t9 66.5zM206 204q-12 62 -25 121.5t-33 110.5q-14 -59 -24.5 -122
t-18.5 -125q24 5 49.5 8t51.5 7z" />
    <glyph glyph-name="B" unicode="B" horiz-adv-x="392" 
d="M81 -18q-12 1 -23 4t-20 9.5t-14.5 16t-4.5 23.5q1 15 7.5 31t11.5 24q8 13 20 6q-4 47 -7 100.5t-5 107.5t-3 107.5t-1 100.5q1 7 9.5 10.5t18 3.5t18 -3t10.5 -9l1 -11q37 0 60 -14t35 -37t15.5 -51.5t1.5 -56.5t-6.5 -53.5t-8.5 -42.5q2 0 3.5 0.5t3.5 0.5
q17 2 32.5 1.5t33.5 -2.5q21 -2 41 -15t33.5 -32t17 -42t-6.5 -46q-11 -26 -39.5 -50.5t-66.5 -43.5t-82 -29.5t-85 -7.5zM120 10q49 6 86 25.5t69 53.5q23 23 28.5 46.5t-3.5 42.5t-30.5 31t-51.5 12q-17 1 -35 -1t-36 -5q-8 1 -11.5 6.5t-1.5 12.5q4 18 9 42.5t8 51
t3.5 52.5t-3.5 47t-12.5 34t-23.5 14q-23 -40 -24.5 -97t5 -121t15.5 -128.5t9 -118.5zM60 70q-4 -9 -7.5 -18t-4 -16.5t3 -13t13.5 -8.5z" />
    <glyph glyph-name="C" unicode="C" horiz-adv-x="376" 
d="M220 336q-1 -7 -6 -11t-10.5 -4.5t-10.5 2.5t-6 11q0 11 -3 28.5t-8 35.5t-11.5 33.5t-14.5 22.5q-11 -7 -20.5 -23t-17.5 -36.5t-13.5 -42t-8.5 -40.5q-3 -28 -3.5 -59.5t3.5 -62.5t14 -60.5t28 -53.5q17 -23 36 -35t39 -15q32 5 62 26t53 50q5 4 11.5 4.5t12 -2t8 -7.5
t0.5 -11q-26 -33 -60 -56t-71 -29.5t-73.5 6.5t-68.5 53q-22 27 -34 69t-16 87.5t0.5 89t16.5 73.5q5 14 14 33.5t21 36.5t28 28t36 8q16 -2 29 -16.5t22 -35.5t14.5 -46.5t7.5 -50.5z" />
    <glyph glyph-name="D" unicode="D" horiz-adv-x="423" 
d="M52 464q1 6 9.5 9.5t18 3.5t18 -3t10.5 -9v-2q25 12 55 6.5t60 -22.5t59 -43.5t52 -56.5t38.5 -61t19.5 -58q10 -66 -16.5 -116.5t-71.5 -96.5q-10 -10 -26 -19.5t-32 -12.5t-29.5 3t-17.5 26q-1 7 2.5 12t8 6t9.5 -1.5t8 -9.5v-3q32 17 58 45t41 66q21 51 11.5 101.5
t-38.5 94t-71.5 75.5t-87.5 45q-9 -2 -16.5 -7t-9.5 -14q-9 -26 -5.5 -59t12.5 -69t20 -73.5t17.5 -72.5t4 -66.5t-19.5 -55.5q-2 -2 -9 -4t-14.5 -2.5t-14.5 0t-10 2.5q-18 17 -28 55t-15 85t-5.5 98t0.5 94.5t3 73.5t2 36zM129 66q2 34 -4 77.5t-20 93.5q2 -54 7 -100.5
t17 -70.5z" />
    <glyph glyph-name="E" unicode="E" horiz-adv-x="350" 
d="M59 222q-6 -2 -10.5 2.5t-6 11.5t2 14t12.5 9q-1 23 -2.5 41.5t-3.5 40.5v-1l-7 70q-5 0 -13.5 -0.5t-10.5 0.5q-10 5 -10 18.5t11 17.5q22 4 54.5 4t70 -1.5t77.5 -3t77 0.5q12 -5 12 -15t-13 -13q-50 0 -98.5 -1t-97.5 -4q5 -35 6.5 -74t3.5 -74q35 4 65.5 7t64.5 5
q11 -5 11 -15t-13 -13q-33 -2 -64 -7.5t-62 -10.5v-4q0 -11 0.5 -21.5t1.5 -21.5q0 -8 0.5 -25.5t2 -37.5t6.5 -38.5t14 -28.5q19 -1 41 1.5t43.5 7t41 9.5t34.5 10q7 1 12 -2t6.5 -7.5t-1 -9.5t-8.5 -8q-8 -2 -33 -9.5t-55 -15t-58 -12t-42 -0.5q-23 6 -34.5 23t-17 40.5
t-6.5 50.5t-2 51q-1 10 -1.5 19.5t-0.5 19.5z" />
    <glyph glyph-name="F" unicode="F" horiz-adv-x="344" 
d="M60 257q-11 5 -12 16t9 16q-3 39 -4 72.5t-2 73.5q-7 0 -9.5 0.5t-4 0.5h-4.5h-10t-10 5.5t-2.5 11.5t4 11.5t10.5 6.5h17.5t40 -0.5t86 -2t154.5 -3.5q12 -4 12 -14.5t-14 -13.5q-54 0 -107 -1.5t-107 -0.5q1 -40 2.5 -73t4.5 -72q37 3 74.5 4.5t75.5 2.5
q12 -5 12 -15.5t-14 -12.5q-36 -1 -72.5 -4.5t-73.5 -6.5q1 -31 4 -71t6 -77.5t5.5 -66.5t2.5 -36q-2 -14 -18 -16t-24 9q-6 25 -11 59t-9 69.5t-7 69t-5 59.5z" />
    <glyph glyph-name="H" unicode="H" horiz-adv-x="389" 
d="M32 228q-8 0 -11 5.5t-2.5 11.5t4.5 11t11 6h12.5t14.5 1q-2 60 -3 116t-1 116q1 7 9.5 10.5t18 3.5t18 -3t10.5 -9q0 -60 1 -116t3 -116q24 1 41.5 1.5t34.5 1.5t36 1.5t48 2.5q-4 50 -5 100.5t-1 101.5q1 7 9 10.5t17.5 3.5t18 -3t10.5 -9q0 -51 1.5 -100.5t5.5 -98.5
q6 1 12.5 1h12.5q12 -5 12 -15t-14 -13q-5 0 -10 -0.5t-10 -0.5q3 -30 7.5 -64t9.5 -66t10.5 -61.5t10.5 -50.5q-1 -6 -7 -10t-13.5 -4.5t-15 1.5t-11.5 7q-20 61 -31 121t-16 122q-38 -2 -77.5 -5.5t-84.5 -6.5l3 -233q-1 -7 -9.5 -11t-18.5 -4.5t-18.5 3t-9.5 10.5l-3 232
q-8 0 -15.5 -0.5t-14.5 -0.5z" />
    <glyph glyph-name="I" unicode="I" horiz-adv-x="171" 
d="M54 465q1 6 9.5 9t18 2.5t18 -3.5t10.5 -9q1 -112 4.5 -221.5t4.5 -221.5q0 -7 -8.5 -10t-19 -3t-19 3.5t-9.5 10.5q-1 112 -4.5 221.5t-4.5 221.5z" />
    <glyph glyph-name="J" unicode="J" horiz-adv-x="346" 
d="M189 477q1 10 9 13.5t18 3t18.5 -4.5t10.5 -10q7 -68 15 -130t23 -136q9 2 17 3.5t14 3.5q13 1 15.5 -9.5t-7.5 -16.5l-34 -8q4 -26 8 -55t3 -55.5t-7 -47.5t-21 -29q-21 -12 -50.5 -11.5t-59.5 7t-58 18t-47 22.5q-7 4 -16.5 11t-17 16t-11.5 19t0 21q8 20 30.5 35.5
t53.5 27t66 20t67 15.5q-8 43 -13.5 79t-10.5 68t-8.5 61.5t-6.5 61.5v7zM49 94q0 -14 15.5 -27.5t38.5 -24t50.5 -17.5t50.5 -7q15 4 25 11.5t12 21.5q2 29 -0.5 60t-7.5 63q-29 -7 -60 -15t-57 -18t-44.5 -21.5t-22.5 -25.5z" />
    <glyph glyph-name="K" unicode="K" horiz-adv-x="419" 
d="M257 415q-10 8 -9.5 15.5t6.5 11t15 1t15 -14.5q4 -23 -10 -51t-37.5 -57.5t-53 -58t-55.5 -52.5q43 4 88.5 -3.5t84.5 -29t66 -57t33 -85.5q-2 -14 -11 -16t-17 9q-8 46 -33.5 77t-62 46.5t-80 16t-86.5 -13.5q2 -35 4.5 -74t3.5 -72q-1 -6 -9 -11.5t-18 -7t-19 1.5
t-10 14v2q-1 37 -3 64t-4 64q-6 0 -9.5 7.5t-3.5 17t2.5 20t8.5 18.5q-2 40 -5 77t-5.5 74t-4.5 74t-3 78q2 10 10 14t18 3.5t18 -5t10 -10.5q1 -65 5 -129t9 -129q18 15 41.5 34.5t46 41.5t40.5 46.5t24 48.5z" />
    <glyph glyph-name="L" unicode="L" horiz-adv-x="307" 
d="M43 464q-1 7 7 11.5t18 5.5t19 -1.5t12 -9.5q8 -68 8 -136t-1 -125.5t0.5 -98.5t13.5 -55q13 -7 35 -3t45.5 12.5t44.5 17.5t32 13q14 5 19.5 -6t-7.5 -19q-24 -9 -49.5 -20t-51.5 -20t-53 -12.5t-54 2.5q-16 3 -23.5 23t-10.5 44t-3 46.5v31.5q1 40 2 84t1.5 84.5
t-0.5 74.5t-4 56z" />
    <glyph glyph-name="M" unicode="M" horiz-adv-x="597" 
d="M88 -32q-1 -7 -6.5 -10.5t-12.5 -4t-12.5 2.5t-6.5 10q-1 80 -2 158t-3 157q0 27 -1 50.5t-1.5 46t0 46t2.5 50.5q1 9 9.5 13t19 4t20 -3.5t12.5 -8.5q10 -27 20.5 -68t22 -87.5t24 -94t26.5 -85.5q13 -30 23.5 -48.5t18.5 -20.5q14 -3 25.5 18t21 55.5t17 78t13.5 85
t10 76t6 51.5q3 26 17.5 38t30.5 13t29.5 -8t16.5 -25q5 -54 8 -93t6.5 -72t8.5 -63.5t14 -68.5q6 -26 17.5 -52.5t27 -49t33.5 -38.5t37 -20h1q1 0 1 -1q12 -11 7.5 -18.5t-15.5 -8.5q-35 9 -59.5 24.5t-41.5 32t-26.5 32.5t-14.5 27q-31 64 -41.5 142t-17.5 161
q-6 -27 -12.5 -64t-14.5 -76.5t-18 -79t-23 -70t-29 -49.5t-36 -19q-26 0 -49 28t-41.5 70t-33.5 93t-26 98q0 -53 -0.5 -93t-1 -78t-0.5 -81v-102z" />
    <glyph glyph-name="N" unicode="N" horiz-adv-x="403" 
d="M69 10q-1 2 -4.5 25.5t-7 60t-7.5 81.5t-7 90t-4.5 86t-0.5 69q0 8 7 13t16.5 7t19.5 0.5t16 -5.5q7 -2 24.5 -27.5t40.5 -62.5t48.5 -80t48 -79.5t38.5 -61t21 -25.5q-6 49 -14.5 107t-13.5 116.5t-2.5 112t17.5 94.5q4 12 11 16t12.5 2t8 -9.5t-0.5 -19.5
q-11 -30 -12.5 -70t2.5 -84.5t12 -92t16.5 -93.5t16 -88t11.5 -76q0 -6 -5 -11.5t-12.5 -9.5t-15 -4.5t-11.5 4.5q-39 42 -71.5 85.5t-61.5 88t-57.5 90.5t-59.5 95q-2 -16 -0.5 -58t3.5 -92.5t4 -102t2 -85.5q-4 -13 -13 -15t-15 9z" />
    <glyph glyph-name="O" unicode="O" horiz-adv-x="389" 
d="M359 240q2 -50 -11.5 -89t-36.5 -66.5t-52 -43.5t-58 -19q-28 -3 -55 5.5t-49.5 30.5t-38 57.5t-19.5 85.5q-3 34 0.5 68.5t12 66t22 57.5t31.5 44h-4q-8 1 -11 5t-2.5 9t4.5 9.5t11 4.5q42 -2 86.5 -17.5t81.5 -44t61.5 -69.5t26.5 -94zM319 232q-3 31 -15 61.5
t-33 56.5t-49.5 46.5t-62.5 31.5q-24 -16 -38.5 -49t-19.5 -73t-2 -83t14.5 -80t30.5 -62.5t45 -30.5q33 9 58 28.5t42 45t24.5 54t5.5 54.5z" />
    <glyph glyph-name="P" unicode="P" horiz-adv-x="354" 
d="M58 145q-8 80 -16.5 159.5t-10.5 160.5v8q1 9 9.5 12.5t18 3.5t18 -4t10.5 -10q24 4 53.5 -5t59 -24.5t54.5 -34t39 -34.5q35 -40 32.5 -81t-41.5 -75q-35 -30 -77 -50.5t-93 -40.5l7 -108q0 -8 -8 -13t-18 -5.5t-19 2.5t-10 11zM112 159q25 10 50 21.5t47.5 26t40 33
t28.5 41.5q11 25 -3 52.5t-41 52t-60 42t-60 22.5h-1q-7 -2 -10.5 -17.5t-4 -37.5t0.5 -48t3 -49.5t4 -41t2 -23.5z" />
    <glyph glyph-name="Q" unicode="Q" horiz-adv-x="451" 
d="M243 486q28 -3 57 -18t53 -43.5t40.5 -70t19.5 -95.5q3 -60 -17 -117t-60 -94q15 -23 32.5 -42t40.5 -34q6 -4 6.5 -9.5t-2.5 -10t-8 -6.5t-11 2q-25 14 -46.5 34.5t-41.5 43.5q-17 -9 -34.5 -14.5t-37.5 -5.5q-48 -1 -84 18.5t-61 54t-38 81t-15 99.5q-1 41 11.5 83.5
t38.5 76.5t65 53.5t92 13.5zM242 462q-2 0 -4.5 0.5t-4.5 0.5q-36 -2 -62 -21.5t-43.5 -48.5t-25.5 -64t-7 -68q1 -32 8 -69.5t23 -71t41.5 -57.5t63.5 -28h1q30 1 54 16q-26 37 -45.5 77.5t-33.5 79.5q0 11 6.5 18.5t15 10.5t17.5 0t13 -13q12 -36 26 -73t33 -72
q15 17 25 39t16.5 46t9 48.5t1.5 47.5q-1 41 -11.5 75t-27.5 59.5t-40 42.5t-49 25z" />
    <glyph glyph-name="R" unicode="R" horiz-adv-x="442" 
d="M35 461q-1 9 7 14t18.5 5.5t20 -2.5t11.5 -10q2 -20 3 -36l2 -32q13 23 32 40t39 24q15 6 31 5.5t28.5 -7.5t20 -21.5t6.5 -36.5q-1 -28 -10 -56t-22.5 -55t-29.5 -52t-32 -47q46 -8 83.5 -26t77.5 -45q24 -16 47 -35.5t49 -46.5q6 -6 6 -12.5t-4 -10.5t-11.5 -3.5
t-14.5 8.5q-27 24 -60 46t-69 40t-74 30.5t-76 16.5l2 -11q2 -31 4 -62.5t-2 -61.5q-1 -6 -8 -10.5t-16 -6.5t-18 0t-14 11q-6 29 -8.5 60t-4.5 63q-14 7 -10 21q3 8 10 13v36.5t1 37.5zM121 388q-6 -10 -10.5 -19.5t-9.5 -19.5q2 -32 4.5 -64.5t4.5 -74.5q13 18 27 38.5
t26 42t20.5 44t11.5 43.5q5 31 0.5 46t-15 16t-26 -12.5t-33.5 -39.5z" />
    <glyph glyph-name="S" unicode="S" horiz-adv-x="396" 
d="M308 375q-1 -7 -6.5 -11t-12 -4.5t-13.5 1.5t-10 7q-5 23 -11 40.5t-17 28t-29 13t-48 -4.5q-18 -4 -33.5 -13.5t-24.5 -24.5t-10 -34.5t11 -42.5q11 -21 35 -39t53 -36.5t60.5 -37t57 -39t42 -43.5t16.5 -51q0 -32 -27.5 -50t-68 -24t-86 -0.5t-81 19.5t-54 35.5
t-4.5 49.5q4 6 10 7t11 -2t8 -9t0 -13q6 -18 30 -29.5t53 -17t56.5 -6t41.5 4.5q43 14 47.5 30.5t-14.5 35t-54.5 40.5t-74 47.5t-73 55t-50.5 64.5q-14 27 -11 50.5t17.5 43t38 33.5t50.5 22q32 9 62 9t54 -11t39.5 -34t19.5 -60z" />
    <glyph glyph-name="T" unicode="T" horiz-adv-x="404" 
d="M159 490q7 8 26.5 8.5t29.5 -8.5q45 3 83.5 5t83.5 4q12 -5 12 -15t-13 -13q-45 -2 -83 -4.5t-83 -7.5q7 -111 15.5 -219t12.5 -219q-1 -7 -9.5 -11t-19 -4.5t-19 2.5t-8.5 11q-4 110 -12.5 219t-14.5 218q-38 -3 -68.5 -5t-68.5 -3q-7 1 -10 6.5t-2.5 12t4 12t10.5 6.5
q38 1 67 1t67 3v1v0z" />
    <glyph glyph-name="U" unicode="U" horiz-adv-x="360" 
d="M45 415q0 7 7.5 10.5t17 3t19 -4t12.5 -9.5q0 -32 1 -76t5.5 -86t12.5 -76.5t23 -47.5q10 9 24.5 29t28.5 45t25 52.5t16 51.5q-2 46 -1.5 86t2.5 69q0 11 8.5 16.5t19 6.5t20.5 -3.5t13 -13.5q8 -78 -6 -158q2 -51 8 -108t15 -108.5t21 -92.5t26 -61q4 -7 2.5 -12.5
t-6 -8t-10.5 -2t-11 5.5q-20 21 -36 54t-28 73t-20 85t-12 91q-9 -19 -22 -42.5t-28.5 -44t-31.5 -35t-30 -14.5q-22 0 -36.5 15.5t-23.5 38.5t-13.5 51t-6.5 54q-2 40 -3.5 80.5t-1.5 85.5z" />
    <glyph glyph-name="V" unicode="V" horiz-adv-x="311" 
d="M31 487q-6 -4 -11 -2.5t-8 5.5t-2.5 9.5t5.5 10.5q24 8 39 9t24 -4q10 -5 16.5 -16t11 -25t7.5 -28t5 -24q18 -93 34.5 -186.5t46.5 -183.5q15 39 26 85.5t19 97.5t14.5 104t13.5 104q1 7 6 10.5t10 3t8.5 -5t2.5 -11.5q-10 -80 -19.5 -159.5t-24.5 -159.5
q-1 -6 -5.5 -26t-10.5 -43t-13.5 -44.5t-15.5 -28.5q-10 -6 -24 -7t-22 10q-37 93 -55.5 191t-36.5 195q-1 5 -4 26.5t-8 44t-12.5 38.5t-16.5 10z" />
    <glyph glyph-name="W" unicode="W" horiz-adv-x="519" 
d="M29 501q1 9 9 13t18 3.5t18.5 -4.5t10.5 -10q9 -102 17 -203t26 -202q9 51 17.5 107t16.5 106.5t17 89t18 55.5q5 7 14.5 10t20.5 2t21.5 -6t16.5 -13q21 -29 40 -70.5t37.5 -89.5t38.5 -98t43 -96q3 32 -0.5 80.5t-3.5 103.5t9 112.5t36 108.5q13 11 23 4t4 -20
q-18 -37 -26 -79.5t-9.5 -87t1.5 -88.5t7 -84t7 -74.5t2 -58.5q-1 -12 -8 -18t-16 -7t-18.5 2.5t-14.5 9.5q-22 27 -41.5 65t-37 81t-33.5 87.5t-30.5 83.5t-28.5 69t-28 44q-11 -47 -19 -103t-15.5 -114.5t-15 -116t-16.5 -106.5q-5 -9 -14 -11t-18.5 -0.5t-17 5.5t-10.5 9
q-17 48 -27 109.5t-16.5 129t-12 137t-12.5 133.5z" />
    <glyph glyph-name="X" unicode="X" horiz-adv-x="357" 
d="M314 493q-35 -50 -65 -106.5t-54 -117.5q28 -56 58 -122t65 -157q3 -7 0 -13.5t-9 -8.5t-12.5 1t-11.5 14q-26 57 -53.5 114.5t-57.5 114.5q-23 -69 -39 -140t-24 -140q-2 -9 -10.5 -13t-18.5 -4t-18 4.5t-9 13.5q5 59 29.5 145t64.5 180q-29 52 -58.5 101t-60.5 94
q-4 10 1.5 19.5t14.5 14.5t20 4.5t18 -9.5q25 -48 47 -89t43 -81q24 52 52.5 101t60.5 94q5 5 10.5 5.5t10 -2t6.5 -7t0 -10.5z" />
    <glyph glyph-name="Y" unicode="Y" horiz-adv-x="422" 
d="M64 403q0 12 8.5 16t19 3.5t19.5 -5.5t10 -12q3 -17 10 -41.5t18 -48.5t25.5 -45t32.5 -32q15 22 23 52t13 57q-1 35 -2.5 68.5t2.5 67.5q3 8 10 11t16 2t17 -5t13 -10q11 -26 9.5 -61t-9.5 -70l1 -18q2 -29 7 -76.5t12 -104.5q20 4 40 7.5t40 6.5q11 -1 12 -12.5
t-6 -14.5q-20 -4 -41 -7t-42 -7q7 -71 13 -146.5t4.5 -139.5t-13.5 -108.5t-39 -53.5q-12 -4 -32 -4t-40 8q-37 14 -75.5 51t-69 82t-48 90.5t-11.5 76.5q4 24 18.5 43.5t34 35t42.5 27.5t44 21q28 11 55.5 19t56.5 16q-2 19 -3 33t-2.5 26.5t-3 26.5t-4.5 33
q-35 -75 -79 -54q-20 10 -37.5 34t-31.5 53t-23.5 58.5t-13.5 50.5zM255 -294q21 12 27.5 56.5t4 104t-9.5 125.5t-11 122q-64 -14 -110.5 -37t-77.5 -59q-17 -20 -20.5 -40t3.5 -46q5 -19 16.5 -45t27.5 -52.5t35 -51.5t39 -43.5t39.5 -28.5t36.5 -5z" />
    <glyph glyph-name="Z" unicode="Z" horiz-adv-x="392" 
d="M69 445q-12 5 -12 15.5t13 12.5q32 -2 65.5 5t66.5 9q27 2 56 -0.5t53 -16.5q19 -12 24 -29.5t0.5 -37.5t-16 -41.5t-25.5 -42t-28 -38t-24 -29.5q-14 -18 -28.5 -35t-28.5 -34q-15 -18 -30.5 -36t-28.5 -35t-21 -32.5t-7 -28.5q2 -11 12.5 -14.5t31.5 -4.5
q55 2 109 11.5t108 20.5q7 1 12 -2t6.5 -7.5t-1 -9.5t-8.5 -8q-29 -5 -58 -11.5t-58 -12.5q-21 -4 -32.5 -5.5t-21 -2.5t-21 -2t-32.5 -3q-61 -5 -84 10t-21.5 40.5t21.5 58t45.5 64t50 58t34.5 39.5q5 6 16.5 19t24.5 30t24.5 36t17 36.5t2.5 33t-19 24.5q-12 7 -36.5 6.5
t-52 -3t-54.5 -5.5t-45 -2z" />
    <glyph glyph-name="G" unicode="G" horiz-adv-x="488" 
d="M357 484q6 -11 5.5 -27t-5.5 -35l5 -12q3 -9 -1.5 -14t-10.5 -4q2 -34 11.5 -66.5t20.5 -64.5l28 11q14 5 19 -6t-7 -19l-30 -12l4 -9q10 -26 20 -50t18 -47q6 -18 15.5 -40t17 -45t10.5 -45.5t-3 -42.5q-8 -26 -36.5 -41t-69.5 -20t-89.5 -1t-96 16.5t-89.5 32.5t-70 47
q-20 19 -18 37.5t15.5 36t34.5 33.5t40 28q57 36 117 63.5t122 53.5q-9 26 -18 53.5t-16 53.5q-11 -21 -24.5 -40.5t-27.5 -33t-27.5 -19.5t-25.5 0q-25 12 -33.5 32.5t-4.5 44t17.5 47t32.5 41.5t42 27t46 3l6 32q1 7 9 11.5t17 5.5t17.5 -2.5t12.5 -12.5v-1zM380 118
q-7 17 -16.5 42.5t-20.5 55.5q-34 -13 -70.5 -29.5t-71 -35t-64.5 -38t-49.5 -38t-26 -36t4.5 -31.5t39 -28.5t64.5 -27t77 -20.5t76 -8.5t61.5 9t35 31.5q4 12 0 34t-11.5 45.5t-16 44t-11.5 30.5zM291 403q-1 5 -1 8.5v8.5q-17 -5 -35 -20.5t-30 -35t-14.5 -40t12.5 -35.5
q14 11 25.5 29t16.5 25q8 15 14.5 29.5t11.5 30.5z" />
    <glyph glyph-name="zero" unicode="0" horiz-adv-x="315" 
d="M37 212q-1 24 3 59t16 68t33 57t54 25q32 1 56.5 -18t41 -48.5t25.5 -63t11 -61.5q2 -37 -3 -74.5t-19.5 -67.5t-40 -49t-62.5 -19q-35 0 -56.5 21.5t-34.5 51.5t-18 63t-6 56zM242 226q-1 16 -5.5 41.5t-14 51t-23.5 46t-35 26.5q-12 -3 -24.5 -13.5t-22.5 -30.5
q-10 -17 -16 -45.5t-7 -61.5t2.5 -66.5t13.5 -60.5t27 -44.5t41 -17.5q21 7 34.5 26.5t20 44.5t8.5 52.5t1 51.5z" />
    <glyph glyph-name="one" unicode="1" horiz-adv-x="161" 
d="M66 425q6 4 13.5 4.5t14.5 -2t12 -8t6 -12.5l3 -385q-1 -7 -8 -10.5t-15.5 -4t-15.5 2.5t-8 11q0 31 -0.5 68.5t-1 76t-1.5 75.5t-1.5 66.5t-1 49t-0.5 23.5l-27 -14q-11 -6 -19.5 2.5t-4.5 15.5q14 11 29 22t26 19z" />
    <glyph glyph-name="two" unicode="2" 
d="M158 384q-5 11 -15.5 13.5t-22.5 0t-23.5 -8.5t-18.5 -13q-1 -8 -5.5 -12t-10 -5t-10 1.5t-4.5 7.5q-1 16 17 30t42 22q13 4 28 5.5t29.5 0t25.5 -5.5t16 -11q9 -13 6 -32t-10.5 -39.5t-18 -38.5t-16.5 -30q-5 -9 -14.5 -26t-20.5 -38t-22 -44t-18 -44t-8.5 -39t6.5 -28
q10 -11 27 -10q30 5 61 17t44 21q12 5 18.5 -3.5t-2.5 -19.5q-12 -8 -42 -20t-63.5 -18.5t-62 -4t-36.5 23.5q-10 28 -1 65t26.5 75t38 73t33.5 59l8.5 17t10.5 22t7.5 21.5t0.5 15.5z" />
    <glyph glyph-name="three" unicode="3" horiz-adv-x="332" 
d="M55 397q-6 5 -7 11.5t2 11t9 6t13 -3.5q12 -2 28.5 -1t33 0.5t30.5 -4t21 -15.5q9 -16 -2.5 -36t-29 -38.5t-33.5 -33.5t-16 -22q0 -4 16 -5.5t39 -4t49 -7t48 -14.5t35.5 -26t11.5 -41q-2 -26 -21.5 -51t-46 -45.5t-56 -35.5t-51.5 -22q-17 -5 -38 -5t-32 17q-5 6 -6 18
t-2 14q0 7 4 11.5t9 5.5t9.5 -2.5t6.5 -10.5l3 -19q12 -5 30 0.5t38 17.5t39.5 29.5t33.5 35.5t20 34.5t0 27.5q-10 16 -32 23t-47.5 11.5t-48.5 9t-35 15.5q-14 13 -4.5 33t25 40t28 37t3.5 26q-4 4 -12 4t-18.5 -0.5t-22.5 -0.5t-24 5z" />
    <glyph glyph-name="four" unicode="4" horiz-adv-x="261" 
d="M233 201q12 -5 12 -15t-14 -12l-24 -1q1 -43 1 -77t1 -75q-1 -7 -8.5 -11t-16.5 -4.5t-17 2.5t-8 11l-4 153q-39 0 -61.5 0.5t-41.5 0.5q-18 0 -25.5 6.5t-7.5 16.5t5.5 22t12.5 23q9 13 23 30t29.5 36.5t30.5 39.5t27 39q0 23 1.5 39t11.5 34q4 8 12.5 11t17 1.5t16 -6
t10.5 -11.5q8 -17 4 -36t-17 -41q0 -7 0.5 -16t1 -27.5t1 -50t0.5 -83.5q12 1 19 1h8zM54 204q3 -2 13 -3t24 -1.5t30.5 -0.5t31.5 1q-1 49 -1.5 76.5t-1 41t-1 18t-0.5 6.5l-32 -40t-29 -38t-22 -33.5t-12 -26.5z" />
    <glyph glyph-name="five" unicode="5" horiz-adv-x="299" 
d="M208 419q8 -3 9 -8.5t-3 -10.5t-10 -7t-12 3q-6 1 -18.5 1.5t-26 -0.5t-24.5 -3t-15 -6t-5 -24t0 -43.5t3.5 -44t5.5 -24.5q9 -12 32.5 -17.5t50 -12.5t48.5 -19.5t27 -36.5q6 -28 -8.5 -56t-40.5 -50t-58.5 -35.5t-62.5 -11.5q-4 0 -15.5 2.5t-21.5 7t-14.5 11.5t4.5 16
q8 5 18.5 -0.5t23.5 -7.5q24 -2 46.5 9t39.5 29t26.5 40t6.5 41q-15 18 -39 27.5t-48 16.5t-43.5 14.5t-24.5 21.5q-11 26 -12 64.5t2 74.5q2 23 15.5 33t52.5 12q7 1 21 0.5t28 -1.5t26 -2.5t16 -2.5z" />
    <glyph glyph-name="six" unicode="6" 
d="M85 55q-26 24 -37 66.5t-11.5 90t6.5 93.5t18 77q-2 2 -2 3q-5 7 -2.5 12t9 7t14.5 2t14 -1q9 -3 11.5 -10t1.5 -15.5t-4.5 -18t-6.5 -16.5q-6 -21 -9 -48t-2.5 -56.5t5 -59t12.5 -54.5q8 23 22 47t31 41t35.5 22t36.5 -9q11 -9 13.5 -26t-1.5 -37t-14 -41.5t-23.5 -39
t-30 -30t-33.5 -14.5q-6 -10 -15 -13t-17.5 -1t-14.5 9.5t-6 19.5zM145 78q15 7 29 22t23.5 33t13 37t-3.5 35q-10 -8 -20 -23t-18.5 -33t-14.5 -36.5t-9 -34.5z" />
    <glyph glyph-name="seven" unicode="7" horiz-adv-x="204" 
d="M35 371q-11 -5 -19.5 -1.5t-4.5 16.5q9 13 35.5 21.5t55 8.5t50.5 -11t22 -36q1 -42 -6 -90t-17 -94.5t-18.5 -88.5t-10.5 -72q-3 -10 -13.5 -13t-13.5 10q-2 19 1.5 49t8.5 65.5t10.5 72.5t9 70t3.5 59t-6 38q-5 3 -15.5 4.5t-23 1t-26 -3t-22.5 -6.5z" />
    <glyph glyph-name="eight" unicode="8" horiz-adv-x="301" 
d="M244 362q2 -13 -4.5 -17.5t-13.5 4.5q-5 -24 -23 -55.5t-37 -60.5q25 -22 45 -41.5t32.5 -37.5t17 -36t-1.5 -36q-6 -17 -23 -28.5t-39.5 -17t-46.5 -5.5t-43 5q-26 7 -42 26.5t-10 51.5q6 29 27.5 53.5t38.5 48.5q-29 25 -53 51t-29 53q-5 26 10.5 43.5t41 26.5
t56.5 10.5t57 -4.5q4 2 6 1q6 -1 8 -7q9 -5 16 -12t10 -16zM203 123q-5 18 -21.5 37t-39.5 38q-12 -17 -20 -30t-13.5 -23.5t-9 -19.5t-7.5 -19q-6 -17 1.5 -27.5t21.5 -15t31.5 -3t31.5 9t22 21t3 32.5zM145 252q19 30 33 61.5t15 57.5q-17 1 -35.5 -2t-33 -9t-23 -15.5
t-5.5 -22.5q4 -18 17.5 -35.5t31.5 -34.5z" />
    <glyph glyph-name="nine" unicode="9" horiz-adv-x="270" 
d="M62 182q-20 11 -28 34t-5.5 50t14 53.5t29.5 45t41.5 24.5t49.5 -7l2 31q3 10 11.5 13t18 1.5t17 -5.5t9.5 -7q0 -94 -2.5 -192.5t2.5 -201.5q-1 -7 -7 -11.5t-13 -5t-13.5 3.5t-7.5 14l-7 251q-5 -14 -17.5 -33t-28 -34.5t-33 -23.5t-32.5 0zM160 348q-5 7 -16 12
q-14 -5 -27 -18q-11 -11 -19 -29t-12 -37.5t-2.5 -37t10.5 -26.5q12 8 23.5 26t21 38.5t15.5 40t6 31.5z" />
    <glyph glyph-name="period" unicode="." horiz-adv-x="88" 
d="M55 16q-11 -5 -20 1t-11 18v2q2 10 8 14t14 2q12 -4 17.5 -15.5t-8.5 -21.5z" />
    <glyph glyph-name="colon" unicode=":" horiz-adv-x="99" 
d="M60 53q-11 -4 -20 2t-11 20q2 10 8 13.5t13 1.5q13 -4 18 -15.5t-8 -21.5zM51 229q13 -10 14 -17.5t-4 -11.5t-12.5 -5t-10.5 2q-13 5 -10 22q11 15 23 10z" />
    <glyph glyph-name="semicolon" unicode=";" horiz-adv-x="106" 
d="M41 18q6 5 10 16.5t-3 17.5q-14 4 -16.5 11t-0.5 13q2 7 8.5 11.5t14.5 4.5t14.5 -5.5t8.5 -18.5q3 -18 -5 -34.5t-16 -26.5q-5 -6 -12.5 -2.5t-2.5 13.5zM56 229q13 -10 13.5 -17.5t-4.5 -11.5t-12 -5t-10 2q-13 5 -10 22q10 16 23 10z" />
    <glyph glyph-name="comma" unicode="," horiz-adv-x="86" 
d="M30 -18q5 6 9.5 17t-3.5 18q-14 3 -16 10.5t0 13.5q2 7 8.5 11.5t14.5 4t14.5 -6t8.5 -17.5q3 -19 -5 -35.5t-16 -25.5q-5 -6 -12.5 -3t-2.5 13z" />
    <glyph glyph-name="hyphen" unicode="-" horiz-adv-x="208" 
d="M33 174q-8 0 -11 5.5t-2.5 12t4.5 12t11 6.5q34 0 69.5 2.5t69.5 5.5q7 1 11.5 -2.5t5 -8.5t-3 -10t-10.5 -6q-35 -4 -72 -10.5t-72 -6.5z" />
    <glyph glyph-name="exclam" unicode="!" horiz-adv-x="143" 
d="M33 451q1 11 9 15.5t18 4.5t18.5 -5t10.5 -13q3 -44 4.5 -92t3 -94.5t3 -90t3.5 -77.5q-2 -14 -16 -16t-22 9q-9 91 -17.5 180t-14.5 179zM105 40q6 -8 5 -16t-6.5 -12.5t-13.5 -4.5t-14 8q-5 7 -3.5 14t6.5 11t12.5 4.5t13.5 -4.5z" />
    <glyph glyph-name="quotedbl" unicode="&#x22;" horiz-adv-x="178" 
d="M19 451q1 7 9 10.5t18 3.5t18.5 -3t10.5 -9q1 -52 -0.5 -102.5t-0.5 -102.5q-1 -7 -6.5 -11t-12 -4.5t-12 3t-6.5 10.5q-1 52 -9 103t-9 102zM102 446q1 10 9 15t18 5t18.5 -4.5t10.5 -13.5q1 -45 -3.5 -90t-3.5 -90q-1 -7 -6 -11t-11.5 -4.5t-11.5 2.5t-6 11
q-4 39 -8.5 87t-5.5 93z" />
    <glyph glyph-name="quotesingle" unicode="'" horiz-adv-x="95" 
d="M19 446q1 10 9 15t18 5t18.5 -4.5t10.5 -13.5q1 -45 -2.5 -90t-2.5 -90q-1 -7 -6.5 -11t-12 -4.5t-12 2.5t-6.5 11q-4 39 -8.5 87t-5.5 93z" />
    <glyph glyph-name="numbersign" unicode="#" horiz-adv-x="388" 
d="M80 361q0 10 7 15t16.5 5t19 -4.5t13.5 -13.5q0 -24 0.5 -45.5t1.5 -41.5q19 2 37.5 3.5t37.5 3.5q-1 23 -1.5 47.5t-0.5 53.5q1 11 9.5 17.5t18.5 7.5t18 -4.5t10 -18.5v-96l30 4t32 4q7 1 11.5 -3t5 -9t-3 -9.5t-10.5 -5.5q-17 -2 -33 -4.5t-31 -5.5v-44t2 -43l88 3
q12 -4 12 -14.5t-14 -13.5q-23 -1 -44 -1.5t-41 -2.5q2 -26 4 -55t6 -64q-1 -12 -8 -17.5t-15.5 -5.5t-15.5 5t-8 16q-2 35 -5 63.5t-5 54.5q-21 -2 -41.5 -3t-41.5 -2l3 -103q0 -9 -6.5 -14t-15 -5.5t-16.5 4t-9 13.5q-1 28 -2 53t-3 49q-14 -1 -29 -1.5t-30 -0.5
q-8 1 -11 6.5t-2.5 12.5t4.5 12.5t11 6.5q14 0 27.5 0.5t27.5 0.5q-2 17 -2.5 32.5t-1.5 32.5q-11 -1 -23 -1.5t-24 -0.5q-7 1 -10.5 6.5t-3 12.5t4.5 12.5t11 5.5q11 0 21.5 0.5t20.5 0.5zM215 252l-38 -6t-39 -5l3 -69l80 2z" />
    <glyph glyph-name="dollar" unicode="$" horiz-adv-x="307" 
d="M135 432q3 14 13.5 14t14.5 -12v-37.5t1 -37.5q29 2 52.5 0t34.5 -5q7 -2 10.5 -7t2.5 -9.5t-5.5 -8t-11.5 -3.5q-18 5 -40 5t-43 -2l4 -100q32 -15 60.5 -29.5t36.5 -31.5q7 -16 1.5 -28t-18.5 -20.5t-32 -14t-39 -8.5l9 -91q-2 -14 -11.5 -16t-16.5 9q-6 48 -9 96
q-18 -1 -32.5 1t-22.5 7q-11 10 -6 18t16 6q6 -2 17.5 -2.5t25.5 -0.5l-5 67q-32 14 -64 34t-43 46q-9 21 -3.5 36.5t20.5 25.5t37.5 16t46.5 8q-1 19 -1 37.5v37.5zM88 297q1 -15 15.5 -28t35.5 -25l-3 80q-21 -5 -35 -12t-13 -15zM213 152q-2 6 -13.5 12t-28.5 14
q1 -13 1.5 -25.5t2.5 -26.5q17 3 29 9t9 17z" />
    <glyph glyph-name="currency" unicode="&#xa4;" horiz-adv-x="304" 
d="M86 305q-14 13 -8 19.5t21 7.5t33 -2.5t29 -9.5q6 9 14 17t19 18q5 5 10 5.5t9 -2.5t5 -7.5t-1 -10.5q-8 -11 -14 -22t-11 -22q22 -23 34 -53t8 -58l37 -39q5 -5 5.5 -11t-1.5 -10t-7 -5.5t-11 2.5l-40 27l-7.5 -7.5t-8.5 -6.5q-23 -15 -46 -20t-43 -2l-17 -37
q-8 -10 -18 -5.5t-7 17.5l9 40q-11 8 -18.5 21.5t-8.5 30.5q-3 37 14 83q-22 21 -35 39q-4 7 -2.5 12t6 7.5t10 1.5t9.5 -7q9 -12 27 -20q1 3 5 9zM174 157q17 13 21 33t-1.5 40.5t-19.5 39t-32 27.5q-17 -25 -26 -53.5t-8 -57.5q1 -20 9 -31t21 -16q20 5 36 18z" />
    <glyph glyph-name="cent" unicode="&#xa2;" horiz-adv-x="282" 
d="M115 432q2 14 12.5 14t15.5 -12v-41.5t1 -40.5q15 -7 29.5 -17.5t27.5 -22.5q11 -11 4.5 -20.5t-18.5 -3.5q-7 5 -17.5 14.5t-24.5 17.5q2 -57 4 -112t7 -112q13 6 25.5 15t24 18.5t21.5 18t17 14.5q6 2 12 0t10 -6.5t4.5 -10.5t-3.5 -11l-47.5 -35t-60.5 -32l6 -61
q-2 -14 -11.5 -16t-16.5 9l-6 62h-9t-8 1q-22 3 -39.5 23.5t-28.5 50t-15.5 64t-0.5 66t16.5 56t35.5 33.5q18 6 34 5q-1 18 -1 36v36zM127 106q-4 57 -6.5 113t-4.5 113l-2 1q-8 -3 -14 -17.5t-8.5 -35t-2.5 -45.5t4.5 -49t12.5 -45.5t21 -34.5z" />
    <glyph glyph-name="Euro" unicode="&#x20ac;" horiz-adv-x="342" 
d="M21 203q-14 2 -11 14t17 14h10t10 1q-2 34 1.5 67t14 60t30 44.5t49.5 20.5q20 3 39.5 -3.5t34.5 -20.5t23.5 -34t5.5 -44q-2 -7 -6.5 -11t-10 -4.5t-9 3t-3.5 11.5q0 22 -12.5 45t-33.5 30q-21 -1 -35 -14.5t-21.5 -36t-10 -50.5t-0.5 -58q38 5 76 12.5t76 12.5
q7 1 10.5 -2.5t3.5 -8.5t-4 -10t-11 -6q-38 -5 -74.5 -12.5t-73.5 -12.5q1 -9 2 -17.5t3 -17.5q35 5 70 12.5t70 13.5q7 1 11 -3t4 -9t-4 -9.5t-12 -5.5q-33 -5 -66.5 -12t-66.5 -13q3 -15 8.5 -31.5t14.5 -30.5t21.5 -25t30.5 -15q17 3 33.5 12t31 22.5t26.5 29.5t21 32
q4 6 10 8t10.5 -0.5t6.5 -7.5t-1 -12q-14 -29 -44 -57t-65 -43.5t-70.5 -11t-60.5 41.5q-16 26 -30 81q-5 -1 -11 -1h-11q-14 2 -11 14t17 14h11q-2 9 -3 17.5t-2 17.5q-8 0 -15 -0.5t-14 -0.5z" />
    <glyph glyph-name="franc" unicode="&#x20a3;" horiz-adv-x="278" 
d="M24 87q-7 1 -10 5t-2.5 9t4.5 9.5t11 4.5l41 2l-12 259q1 11 7 19.5t13 6.5l178 4q7 1 11 -3t4.5 -9t-3 -9.5t-10.5 -5.5l-143 -9l7 -143q26 2 37 3t19 2t19.5 2t38.5 3q7 1 11.5 -3t4.5 -9t-3.5 -9.5t-10.5 -5.5q-26 -2 -37.5 -2.5t-19.5 -1.5t-19.5 -2.5t-37.5 -3.5
l3 -79l63 4q7 1 11.5 -3t4.5 -9t-3.5 -9.5t-10.5 -5.5l-64 -4l3 -64q-1 -7 -10 -11.5t-19 -5.5t-18.5 2t-8.5 10l-3 64q-11 0 -23 -1.5t-23 -0.5z" />
    <glyph glyph-name="sterling" unicode="&#xa3;" horiz-adv-x="399" 
d="M52 155q-14 2 -13 14t15 14h17t17 1q0 7 -0.5 14t-0.5 14q-14 0 -23 0.5t-17 1.5t-11 6t-3 10t3.5 8.5t10.5 3.5q8 -1 17 -1.5t21 -0.5q-1 25 -0.5 49.5t3.5 46t9.5 40t17.5 30.5q5 7 20 12.5t25 -0.5q20 -14 38.5 -39t24.5 -56q-2 -14 -11.5 -16t-16.5 9
q-3 17 -13.5 35.5t-22.5 29.5q-14 -20 -17.5 -56.5t-1.5 -81.5q21 2 49 5t68 8q13 -1 16 -11.5t-8 -15.5q-42 -5 -71.5 -8t-52.5 -5q1 -8 1.5 -14.5t0.5 -13.5q29 2 58.5 5.5t59.5 6.5q7 1 11.5 -3t5 -9t-3 -9.5t-10.5 -5.5q-30 -4 -59.5 -7t-59.5 -6q2 -17 3 -34t2 -32
q54 4 108.5 2t112.5 1q6 0 10.5 -3.5t5.5 -7.5t-2 -8t-13 -5q-55 -5 -108 -2t-114 -4q-4 -26 -24 -41t-52 -13q-5 1 -18.5 4t-26 8t-18.5 13.5t4 19.5q16 11 36 18t43 12q0 26 -3 68q-10 -1 -19.5 -1h-19.5zM52 47q23 -9 32 -5t11 18l-22 -6t-21 -7z" />
    <glyph glyph-name="yen" unicode="&#xa5;" horiz-adv-x="308" 
d="M42 156q-15 2 -13.5 14t15.5 14q20 1 39 2.5t39 4.5q-15 27 -27.5 50t-24 45.5t-23.5 46t-27 52.5q0 7 4 11.5t9.5 6t11.5 0t10 -6.5q12 -24 22 -43.5t19.5 -37.5t19.5 -36t23 -40q3 27 6 48t5 41t4 41.5t3 48.5q1 7 9 10.5t18 3.5t18.5 -3t10.5 -9q1 -11 0 -33t-3.5 -51
t-6.5 -63.5t-8 -68.5l72 12q7 1 11 -2.5t4.5 -8.5t-2.5 -10t-10 -6q-20 -3 -39.5 -6.5t-39.5 -7.5l-5 -37q22 5 43 9t43 8q7 1 11.5 -2.5t5 -8.5t-3 -10t-10.5 -6q-23 -4 -46.5 -9t-46.5 -10q-5 -38 -8.5 -64t-5.5 -34q-2 -7 -10.5 -10t-18 -2t-17.5 5t-9 12q2 29 4.5 47
t4.5 35q-14 -2 -27 -3t-27 -2q-14 2 -13 14t15 14l28 2t28 3l5 39q-45 -8 -89 -9z" />
    <glyph glyph-name="florin" unicode="&#x192;" horiz-adv-x="262" 
d="M153 203q6 -43 10.5 -82.5t5.5 -79.5q0 -11 -6 -18.5t-15.5 -12.5t-21 -7.5t-23.5 -2.5q-14 -2 -27.5 0.5t-21.5 10.5q-8 7 -6 12.5t8 8t13.5 2.5t10.5 -3q12 -6 30 -1q3 1 2.5 18.5t-3 42t-5.5 52t-5 48.5q-30 -6 -46 -8t-30 -2q-14 2 -13 14t15 14q12 0 27.5 2t43.5 7
q-2 16 -8.5 48t-7.5 66t7 61.5t34 34.5q21 6 61 0q7 -2 9.5 -7t1.5 -10t-6 -8.5t-12 -2.5q-17 4 -25.5 -4t-11.5 -23t-1.5 -35t4.5 -40.5t6 -38.5t4 -29l86 21q13 1 15 -9.5t-8 -16.5z" />
    <glyph glyph-name="lira" unicode="&#x20a4;" horiz-adv-x="398" 
d="M52 189q-14 2 -13 14t15 14h16t16 1q-2 27 -2 54.5t3 52.5t9.5 46t18.5 35q5 7 20 12.5t25 -0.5q20 -14 38.5 -39t24.5 -56q-2 -14 -11.5 -16t-16.5 9q-3 17 -13.5 35.5t-22.5 29.5q-16 -22 -18.5 -65.5t0.5 -93.5q30 2 59.5 5.5t60.5 6.5q7 1 11.5 -2.5t5 -8.5t-3 -10
t-10.5 -6q-31 -3 -61 -7t-61 -6l8 -100q54 4 108.5 2t112.5 1q6 0 10.5 -3.5t5.5 -7.5t-2 -8t-13 -5q-55 -5 -108 -2t-114 -4q-4 -26 -24 -41t-52 -13q-5 1 -18.5 4t-26 8t-18.5 13.5t4 19.5q16 11 36 18t43 12q1 17 -1.5 43.5t-4.5 58.5q-9 -1 -18 -1h-18zM52 47
q23 -9 32 -5t11 18l-22 -6t-21 -7z" />
    <glyph glyph-name="percent" unicode="%" horiz-adv-x="360" 
d="M242 434q4 6 10.5 7.5t12.5 -0.5t10 -7t1 -12q-24 -69 -45.5 -121.5t-41 -99t-37 -91t-34.5 -98.5q-2 -7 -7.5 -9t-11 -0.5t-9.5 6t-2 11.5q15 47 28 84t24 68.5t21.5 60t22.5 58.5t26 64.5t32 78.5zM68 354q13 7 27 4t18 -18q13 -7 23.5 -17t14 -22.5t-1.5 -26.5
t-23 -29q-8 -7 -20.5 -12.5t-24.5 -6.5q-22 -2 -34 7.5t-15.5 24.5t-1 33t10.5 33q-7 1 -10.5 7.5t1.5 14.5q5 6 15 8t21 0zM269 232q11 2 14.5 -6.5t-2.5 -15.5q14 -5 24 -12.5t19 -21.5q11 -18 6 -32.5t-18 -24.5t-31 -13.5t-32 -0.5q-16 4 -25.5 23t-9 40.5t13.5 40
t41 23.5zM121 279q10 12 0 21t-26 15q-11 -13 -11.5 -31.5t9.5 -26.5q8 4 15.5 10t12.5 12zM298 164q-7 12 -24 19q-7 -13 -5.5 -28t15.5 -22q10 4 15 12t-1 19z" />
    <glyph glyph-name="fraction" unicode="&#x2044;" horiz-adv-x="130" 
d="M90 519q2 9 7 12t10.5 2t10 -5.5t4.5 -11.5q-19 -158 -38 -299.5t-48 -272.5q-2 -9 -8.5 -12.5t-13.5 -2.5t-11 7t-2 15q14 63 25.5 133t22 143.5t20.5 147.5t21 144z" />
    <glyph glyph-name="ampersand" unicode="&#x26;" horiz-adv-x="298" 
d="M281 12q6 -5 7 -10t-1 -9q-6 -11 -18 -5q-1 0 -1 0.5t-1 0.5q-23 17 -44.5 40t-53.5 59q-12 -5 -27 -9.5t-30.5 -8t-30 -5.5t-26.5 0q-10 2 -19.5 9.5t-7.5 21.5q10 26 29.5 47.5t39.5 41.5q-14 23 -20 42t-5 30q1 20 13 33t28 18.5t33.5 4t29.5 -9t15 -21t-9 -32.5
q-15 -23 -34 -47l9 -15l32 -61q8 3 15 6t9 5q14 5 19.5 -6t-7.5 -19l-21 -10q15 -24 34 -47t43 -44zM116 156q-11 -16 -18 -31t-12 -28l5 -3q29 5 58 17zM155 282q-38 -8 -20 -55q9 13 15.5 26t9.5 29h-5z" />
    <glyph glyph-name="parenleft" unicode="(" horiz-adv-x="221" 
d="M152 546q11 9 19.5 2.5t3.5 -18.5q-19 -30 -35 -68t-27.5 -81.5t-18.5 -90.5t-9 -93q-2 -53 7 -94t25 -72t38.5 -53.5t47.5 -37.5q6 -4 7.5 -9.5t-1 -9.5t-8 -6t-12.5 2q-42 21 -72 47t-49.5 59.5t-29 76.5t-10.5 97q-1 48 9 97.5t27.5 96t40 86.5t47.5 69z" />
    <glyph glyph-name="parenright" unicode=")" horiz-adv-x="242" 
d="M13 521q-7 11 2 18.5t19 -0.5q31 -35 60.5 -72t53.5 -78t41 -85t23 -92q6 -44 -4.5 -90t-34.5 -85t-60.5 -66t-83.5 -33q-12 1 -13.5 12t10.5 15q41 5 68 29.5t42.5 59.5t20 75.5t-0.5 77.5q-11 93 -47 170.5t-96 143.5z" />
    <glyph glyph-name="asterisk" unicode="*" horiz-adv-x="256" 
d="M48 96q-7 -2 -11.5 0.5t-6 7t1 9.5t8.5 9q11 7 21.5 13.5t19.5 13.5q-11 12 -24 24.5t-27 31.5q-7 11 2 18.5t18 -0.5q10 -8 23.5 -19t25.5 -17v70q3 13 13 13t15 -12l5 -40t6 -35q17 5 27.5 12t21.5 10q6 2 10.5 1t7.5 -5t2.5 -9t-5.5 -10l-48 -34l65 -35
q11 -8 7.5 -17.5t-17.5 -8.5q-12 4 -32 11.5t-35 13.5q0 -21 -0.5 -35t-0.5 -23q-2 -14 -11.5 -15.5t-16.5 9.5q-4 14 -7 27.5t-8 35.5l-50 -15v0z" />
    <glyph glyph-name="plus" unicode="+" horiz-adv-x="264" 
d="M108 333q3 14 15.5 14t17.5 -12v-44t1 -44h91q12 -4 12 -14.5t-14 -13.5l-89 -3q2 -23 2 -46.5t1 -46.5q-2 -14 -14.5 -15t-13.5 13q-1 23 -1.5 47t-2.5 47q-19 0 -38.5 -0.5t-42.5 -0.5q-8 0 -11 5.5t-2.5 11.5t4.5 11t11 6q21 0 40 -1t37 0q-1 23 -2 43t-1 43z" />
    <glyph glyph-name="divide" unicode="&#xf7;" horiz-adv-x="233" 
d="M33 217q-8 1 -11 6t-2.5 11.5t4.5 11.5t11 6q42 0 83 -2t85 0q12 -5 12 -15t-14 -13q-42 -4 -83.5 -4.5t-84.5 -0.5zM118 187q11 1 17 -8.5t-2 -20.5q-6 -8 -16 -9t-16 9q-5 11 1.5 19t15.5 10zM94 321q2 10 9 13t14 0t9.5 -9.5t-4.5 -14.5t-17 -7t-11 18z" />
    <glyph glyph-name="multiply" unicode="&#xd7;" horiz-adv-x="229" 
d="M19 274q0 7 3 12.5t7.5 8t10 2t9.5 -5.5q8 -14 16.5 -24.5t18.5 -21.5q10 20 21 36.5l23 34.5q11 9 19.5 2.5t3.5 -18.5q-27 -41 -47 -80q22 -23 47.5 -42t51.5 -38q6 -4 7 -9.5t-1.5 -10t-7.5 -6t-12 2.5q-26 18 -50.5 36.5t-47.5 40.5q-15 -30 -27 -63q-4 -5 -9.5 -5
t-10.5 3t-8 8t-1 11q7 20 15.5 35t16.5 33q-14 15 -25.5 27.5t-22.5 30.5z" />
    <glyph glyph-name="minus" unicode="&#x2212;" horiz-adv-x="243" 
d="M32 210q-8 1 -11 6t-2.5 11t4.5 11t11 5q46 0 92 -1t82 1q15 0 16 -12.5t-13 -15.5q-48 -5 -89.5 -5h-89.5z" />
    <glyph glyph-name="equal" unicode="=" horiz-adv-x="243" 
d="M32 163q-8 1 -11 6t-2.5 11t4.5 11t11 6q46 0 92 -1.5t82 0.5q7 0 11.5 -3.5t5 -8t-3 -9.5t-10.5 -6q-48 -6 -89.5 -6h-89.5zM33 236q-8 1 -11 6t-2.5 11.5t4.5 11.5t11 6q42 0 83 -2t85 0q12 -5 12 -15.5t-14 -12.5q-42 -4 -83.5 -4.5t-84.5 -0.5z" />
    <glyph glyph-name="at" unicode="@" horiz-adv-x="592" 
d="M277 153q2 35 14 61t28 39t33 12.5t30 -17.5q15 9 26.5 0.5t14.5 -14.5q2 -17 6 -41.5t10.5 -48.5t15.5 -43.5t21 -24.5q17 0 26.5 20.5t5.5 58.5q-4 41 -22.5 73t-46.5 54.5t-64 35t-75 14.5q-36 -3 -68.5 -15.5t-60.5 -34.5t-48.5 -52.5t-32.5 -69.5
q-16 -56 -5.5 -90.5t39 -53t69 -23t83.5 -1t83 12.5t68 19q14 5 19.5 -6t-7.5 -19q-37 -18 -86 -29t-99.5 -11.5t-97.5 10.5t-79.5 36.5t-45 66.5t5.5 101q29 97 96.5 142t160.5 46q43 0 86.5 -12.5t79 -38t59.5 -63.5t27 -88q2 -32 -7 -58t-25 -41t-37 -16.5t-43 16.5
q-26 22 -38.5 51t-14.5 58q-9 -17 -27 -33.5t-36 -23t-30.5 1t-10.5 39.5zM368 214q-2 4 -4.5 7t-5.5 7q-13 -12 -18 -34.5t-6 -41.5q13 11 20 28z" />
    <glyph glyph-name="less" unicode="&#x3c;" horiz-adv-x="231" 
d="M149 256q6 5 11.5 4.5t9 -4t4 -9t-4.5 -11.5q-14 -13 -30.5 -35t-31 -45t-24 -42.5t-9.5 -28.5q1 -8 17 -13.5t36.5 -9.5t41 -6.5t32.5 -5.5q7 -2 10 -7t2 -9.5t-6 -8t-12 -3.5q-12 3 -42 5t-60.5 7t-53.5 15.5t-22 28.5q2 14 17.5 38t35.5 50t42 50.5t37 39.5z" />
    <glyph glyph-name="greater" unicode="&#x3e;" horiz-adv-x="227" 
d="M28 219q-11 8 -7.5 19.5t17.5 6.5q20 -11 48.5 -25t55 -29t45 -30t19.5 -28q1 -15 -17 -30.5t-42.5 -30t-51 -26.5t-42.5 -18q-13 -3 -17 7t5 18q13 7 32.5 16.5t37 19.5t29.5 20t11 17q-1 8 -18.5 22.5t-39 29.5t-41 26.5t-24.5 14.5z" />
    <glyph glyph-name="question" unicode="?" horiz-adv-x="224" 
d="M49 362q-5 -3 -11.5 -2t-11 4t-6.5 8t1 10q12 10 36.5 22t51 17t49.5 -1.5t32 -33.5q9 -29 -2 -61t-28.5 -67t-34 -72.5t-18.5 -76.5v-8q-1 -9 -7 -14t-12.5 -5.5t-12 4t-5.5 13.5q-1 26 7 56t19 59.5t22 58t17 52.5t4 42t-18 27q-20 -4 -42 -14t-30 -18zM107 10
q-12 -5 -20 -3t-11 7t0.5 12.5t14.5 14.5q17 4 22 -8t-6 -23z" />
    <glyph glyph-name="asciitilde" unicode="~" horiz-adv-x="265" 
d="M76 235q-2 0 -4.5 -5t-5 -12.5l-5 -15t-3.5 -12.5q-4 -11 -16 -11t-14 14q2 15 7.5 29.5t16.5 28.5q18 19 35.5 16t34 -16t31.5 -29t28 -22q9 5 16 14.5t14 17.5q6 5 12 4.5t9.5 -3.5t4.5 -8.5t-4 -11.5q-23 -25 -42.5 -34.5t-38 -5.5t-37 20t-39.5 42z" />
    <glyph glyph-name="bracketleft" unicode="[" horiz-adv-x="257" 
d="M145 525q13 -5 11 -15t-18 -9q-8 0 -17 0.5t-19 -0.5q-3 -2 -2.5 -41t2.5 -96.5t5.5 -124t7.5 -124.5t8.5 -98t7.5 -44q3 -3 13 -2t24 4t30.5 6.5t32.5 5.5q14 -1 14.5 -11.5t-10.5 -15.5q-16 -2 -34 -6.5t-36.5 -9t-36 -7.5t-32.5 -3q-8 1 -14 9q-9 26 -15 72
t-10.5 101.5t-7 115.5t-3.5 115.5t-1 102t2 73.5q1 15 31 15.5t67 -13.5z" />
    <glyph glyph-name="bracketright" unicode="]" horiz-adv-x="224" 
d="M19 511q20 5 40.5 9.5t38 6t30.5 -1.5t18 -13q8 -18 14 -62.5t10.5 -102t7.5 -120.5t3.5 -117t-0.5 -91.5t-4 -44.5q-8 -18 -21.5 -25.5t-32 -9t-42.5 1t-52 5.5q-11 4 -10.5 15t14.5 12q7 0 20.5 -1.5t27 -1.5t25 2.5t13.5 10.5q6 19 7 64t-0.5 101.5t-6 117t-9 110.5
t-8.5 83t-6 34q-15 2 -35.5 -3t-35.5 -7q-14 1 -15.5 11.5t9.5 16.5z" />
    <glyph glyph-name="colonmonetary" unicode="&#x20a1;" horiz-adv-x="334" 
d="M170 476q0 7 4.5 10.5t9.5 3t9 -5t4 -11.5l-4 -67q19 -14 30.5 -35t13.5 -49q-2 -7 -7 -11t-10 -4.5t-8.5 3t-3.5 11.5q-4 29 -17 47q-4 -85 -7.5 -170t-9.5 -151h1q17 3 33.5 12t30.5 22.5t26 29.5t21 32q5 6 11 7.5t10.5 -0.5t6.5 -7t-2 -12q-10 -20 -26.5 -38.5
t-35.5 -32.5q-18 -14 -38.5 -24.5t-40.5 -14.5q-1 -12 -2 -22.5t-3 -20.5q-4 -12 -14.5 -10.5t-12.5 12.5q1 9 2 18.5t3 20.5q-12 0 -27 5l-4 -37q-4 -12 -14.5 -10.5t-12.5 13.5l6 49q-16 14 -30 46t-22.5 72t-10.5 83.5t5.5 81.5t27 65.5t54.5 35.5q1 13 1 25.5v26.5
q2 14 12.5 14t15.5 -12v-26.5t-1 -26.5q6 0 11.5 -1t10.5 -3q1 14 1.5 28t2.5 28zM124 84q13 -18 23 -25q5 67 8.5 154t8.5 178q-8 5 -20 4q-2 -79 -7 -156t-13 -155zM115 380q-16 -16 -23 -45.5t-7.5 -64.5t4.5 -71t13 -65q5 60 8 122.5t5 123.5z" />
    <glyph glyph-name="backslash" unicode="\" horiz-adv-x="126" 
d="M39 519q10 -70 20 -144t20.5 -147.5t22.5 -143.5t26 -133q2 -9 -2.5 -15t-11 -7t-13 2.5t-9.5 12.5q-28 131 -47 272.5t-38 299.5q0 7 4.5 11.5t10 5.5t10.5 -2t7 -12z" />
    <glyph glyph-name="asciicircum" unicode="^" horiz-adv-x="226" 
d="M184 214q-12 18 -24 41t-22.5 43t-18.5 33.5t-13 14.5q-5 -11 -9 -25.5t-8.5 -29t-8 -28t-6.5 -22.5q-2 -6 -10.5 -10t-18 -4t-17.5 3.5t-9 12.5q1 14 8.5 37.5t17.5 47.5t21 44t20 26q8 6 19 5t18 -9q9 -12 21 -35.5t23.5 -49t22 -48t17.5 -33.5q5 -12 -5 -17.5t-18 3.5
z" />
    <glyph glyph-name="underscore" unicode="_" horiz-adv-x="243" 
d="M33 3q-8 1 -11 6t-2.5 11t4.5 11t11 5h47.5t47.5 -0.5t43.5 -0.5h35.5q7 0 11 -4t4 -9t-3 -9.5t-9 -4.5q-46 -1 -88.5 -3t-90.5 -2z" />
    <glyph glyph-name="braceleft" unicode="{" horiz-adv-x="250" 
d="M195 541q8 -10 2.5 -16.5t-18.5 -4.5q-5 1 -17 4t-24 5q-14 -4 -15 -25.5t5 -53.5t15.5 -70t16.5 -75t7.5 -68.5t-11.5 -49.5q-7 -8 -14.5 -14.5t-16.5 -12.5q26 -14 32.5 -35.5t5 -47t-6.5 -52t-3 -50.5q1 -17 7.5 -33.5t17.5 -23.5q12 0 25.5 1.5t22.5 3.5q13 1 15 -10
t-9 -17q-10 -2 -23.5 -3.5t-28 -1.5t-27 1.5t-19.5 5.5q-36 21 -38 76q0 26 4.5 53.5t6.5 54.5q1 46 -18 57t-64 7q-9 0 -13 4t-4 9t3.5 10t9.5 5q35 6 55 13t27 14q7 9 7.5 32t-3.5 53.5t-11 64.5t-13.5 65t-11.5 55.5t-5 36.5q0 7 1.5 16t7 17t16 13t27.5 5q2 0 13 -1.5
t24.5 -4t25 -5.5t14.5 -7z" />
    <glyph glyph-name="braceright" unicode="}" 
d="M13 545q6 6 18 6q31 2 51.5 1.5t32.5 -8.5t18 -27t9 -53q2 -35 -1 -76t-6 -79t-3 -69t7 -47q3 -5 16.5 -10t31 -8.5t35 -6.5t27.5 -4q11 -3 12 -12t-7 -15q-11 -2 -24 -2.5t-24.5 -3.5t-21 -9.5t-12.5 -18.5q-4 -13 -3 -40t1 -56t-5 -54.5t-22 -35.5q-5 -3 -16 -4
t-25 -0.5t-28.5 2t-26.5 3.5q-8 1 -10.5 6.5t-0.5 10.5t7 8t13 1q10 -2 20.5 -3.5t21.5 0.5q8 5 12 16.5t5.5 25t1 27t-0.5 23.5q-2 27 -2.5 45.5t2.5 31.5t10 21.5t20 14.5q-18 5 -33 12.5t-26 21.5q-9 12 -10 40t1 64.5t6 76t5 74t-2 58.5t-15 29q-9 4 -18.5 2.5
t-20.5 -1.5q-11 -1 -18.5 5t-1.5 17z" />
    <glyph glyph-name="bar" unicode="|" horiz-adv-x="145" 
d="M49 549q1 7 6 11.5t11 4.5t11.5 -3.5t7.5 -11.5q8 -181 11 -357t-1 -351q-1 -7 -6 -10.5t-11.5 -4t-11.5 2.5t-6 10q-6 186 -9.5 362t-1.5 347z" />
    <glyph glyph-name="dagger" unicode="&#x2020;" horiz-adv-x="243" 
d="M23 243q-7 0 -10 5.5t-2.5 12.5t4 12.5t10.5 6.5q15 0 31 -0.5t33 -0.5q-2 136 0 270q1 7 6 11.5t11 4.5t11.5 -3.5t7.5 -11.5q6 -136 9 -272h47.5t39.5 2q12 -5 12 -15t-14 -13q-21 -2 -42 -3.5t-42 -3.5q4 -204 0 -403q-1 -7 -6 -10.5t-11.5 -4t-11.5 2.5t-6 10
q-4 104 -6.5 204t-4.5 199h-66v0z" />
    <glyph glyph-name="daggerdbl" unicode="&#x2021;" horiz-adv-x="243" 
d="M23 243q-7 0 -10 5.5t-2.5 12.5t4 12.5t10.5 6.5q15 0 31 -0.5t33 -0.5q-2 136 0 270q1 7 6 11.5t11 4.5t11.5 -3.5t7.5 -11.5q6 -136 9 -272h47.5t39.5 2q12 -5 12 -15t-14 -13q-21 -2 -42 -3.5t-42 -3.5q1 -51 1.5 -100t0.5 -100h45.5t38.5 2q12 -5 12 -15.5t-14 -12.5
q-21 -2 -41.5 -4t-40.5 -3q0 -43 -0.5 -85t-1.5 -85q-1 -7 -6 -10.5t-11.5 -4t-11.5 2.5t-6 10q-2 44 -3 86l-2 84q-18 -1 -36 -1h-36q-7 1 -10 6.5t-2.5 12.5t4 12.5t10.5 6.5q16 0 33.5 -0.5t35.5 -0.5q-2 50 -3 99l-2 98h-66v0z" />
    <glyph glyph-name="perthousand" unicode="&#x2030;" horiz-adv-x="453" 
d="M342 267q13 6 27 3t18 -17q16 -9 27 -21.5t12 -27.5q1 -16 -8.5 -29.5t-24 -22.5t-32 -12t-32.5 1q-3 -10 -12.5 -18t-21 -13t-24.5 -6.5t-23 1.5q-16 4 -25.5 23t-9 40.5t13.5 40t41 23.5q11 2 14.5 -6.5t-2.5 -15.5q7 -3 13 -5.5t11 -7.5q1 20 11 39q-7 1 -10.5 7.5
t1.5 14.5q11 12 36 9zM241 434q4 6 10.5 7.5t12.5 -0.5t10 -7t1 -12q-24 -69 -45.5 -121.5t-41 -99t-37 -91t-33.5 -98.5q-2 -7 -8 -9t-11.5 -0.5t-9.5 6t-2 11.5q15 47 28 84t24 68.5t21.5 60t22.5 58.5t26 64.5t32 78.5zM67 354q13 7 27 4t18 -18q13 -7 23.5 -17t14 -22.5
t-1.5 -26.5t-23 -29q-8 -7 -20.5 -12.5t-24.5 -6.5q-22 -2 -34 7.5t-15.5 24.5t-1 33t10.5 33q-7 1 -10.5 7.5t1.5 14.5q5 6 15 8t21 0zM120 279q10 12 0 21t-26 15q-11 -13 -11.5 -31.5t9.5 -26.5q8 4 15.5 10t12.5 12zM396 191q9 13 -1 22t-26 15q-11 -14 -11.5 -32
t9.5 -26q8 4 15.5 9.5t13.5 11.5zM297 164q-7 12 -24 19q-7 -13 -5.5 -28t15.5 -22q10 4 15 12t-1 19z" />
    <glyph glyph-name="bullet" unicode="&#x2022;" horiz-adv-x="125" 
d="M48 144q-15 6 -22 19t-6 27.5t10.5 25.5t27.5 12q28 -2 39 -19t8.5 -34.5t-18 -28.5t-39.5 -2z" />
    <glyph glyph-name="brokenbar" unicode="&#xa6;" horiz-adv-x="142" 
d="M57 -160q-2 45 -3 86.5t-2 82t-2 80.5t-2 84q2 6 7.5 9t12.5 3t14 -3.5t11 -10.5q1 -44 1 -84.5v-80.5t-0.5 -80t-1.5 -84q-1 -7 -6 -10.5t-11.5 -4t-11.5 2.5t-6 10zM46 549q1 7 6 11.5t11 4.5t11.5 -3.5t7.5 -11.5q3 -75 5.5 -150t3.5 -150q-1 -5 -7 -7.5t-13.5 -3
t-14 2t-9.5 8.5q-2 76 -2.5 150.5t1.5 148.5z" />
    <glyph glyph-name="mu" unicode="&#xb5;" horiz-adv-x="373" 
d="M44 264q0 11 8.5 16.5t20 5.5t22 -4.5t13.5 -13.5q1 -14 4 -42.5t8.5 -60.5t14 -61t20.5 -44q19 21 28 49.5t13.5 58.5t6.5 58t8 48q4 7 12 9.5t17 1.5t16.5 -5t9.5 -9q4 -29 6 -68t8 -75.5t20.5 -66.5t45.5 -41q5 -3 7 -7.5t1 -9t-5 -8t-11 -2.5q-32 11 -53 28.5
t-34 39.5t-19.5 47.5t-10.5 53.5q-2 -12 -7.5 -36t-15 -47t-23.5 -40.5t-32 -17.5q-15 0 -28.5 13t-23.5 34q-5 -67 -8.5 -127t-6.5 -101q-1 -7 -5 -11t-9 -4.5t-9.5 2.5t-4.5 11q0 49 2 100t3 104.5t-0.5 109t-8.5 112.5z" />
    <glyph glyph-name="mu" unicode="&#x3bc;" horiz-adv-x="373" 
d="M44 264q0 11 8.5 16.5t20 5.5t22 -4.5t13.5 -13.5q1 -14 4 -42.5t8.5 -60.5t14 -61t20.5 -44q19 21 28 49.5t13.5 58.5t6.5 58t8 48q4 7 12 9.5t17 1.5t16.5 -5t9.5 -9q4 -29 6 -68t8 -75.5t20.5 -66.5t45.5 -41q5 -3 7 -7.5t1 -9t-5 -8t-11 -2.5q-32 11 -53 28.5
t-34 39.5t-19.5 47.5t-10.5 53.5q-2 -12 -7.5 -36t-15 -47t-23.5 -40.5t-32 -17.5q-15 0 -28.5 13t-23.5 34q-5 -67 -8.5 -127t-6.5 -101q-1 -7 -5 -11t-9 -4.5t-9.5 2.5t-4.5 11q0 49 2 100t3 104.5t-0.5 109t-8.5 112.5z" />
    <glyph glyph-name="questiondown" unicode="&#xbf;" horiz-adv-x="226" 
d="M174 65q5 3 11 2.5t11 -4t7.5 -8.5t-0.5 -10q-12 -9 -35.5 -20t-50 -15t-50 3.5t-33.5 34.5q-11 30 -1 62.5t26 67.5t31 72.5t13 78.5q0 9 5.5 14t12 5t12.5 -5t7 -14q3 -39 -4.5 -70.5t-18 -59.5t-20 -55.5t-10.5 -59.5v-20.5t7 -22.5q6 -6 17 -4.5t23.5 6.5t23.5 11.5
t16 10.5zM98 420q12 4 20 2t11 -7t0 -12.5t-14 -13.5q-16 -3 -22 9t5 22z" />
    <glyph glyph-name="exclamdown" unicode="&#xa1;" horiz-adv-x="144" 
d="M114 35q-2 -11 -10 -15.5t-17.5 -4.5t-18 5t-10.5 13q-3 44 -5 92t-3.5 94.5t-2.5 89.5t-3 78q2 14 16 16t21 -9q9 -91 17.5 -180t15.5 -179zM41 446q-6 8 -5 16t6.5 12.5t13.5 4.5t14 -8t4.5 -14.5t-7 -10.5t-13 -4.5t-13.5 4.5z" />
    <glyph glyph-name="germandbls" unicode="&#xdf;" horiz-adv-x="338" 
d="M162 330q4 15 -0.5 28t-13.5 20.5t-20.5 8t-21.5 -10.5q-11 -27 -9.5 -73.5t8 -98.5t14 -102.5t7.5 -86.5q-2 -6 -9 -10.5t-16.5 -6t-18.5 0.5t-13 10v7q-2 36 -9.5 88t-13.5 105.5t-6.5 101.5t13.5 77q12 24 37.5 30t51 -0.5t44.5 -22t19 -35.5q2 -14 -4.5 -30
t-14.5 -30t-16 -25.5t-9 -17.5q2 -6 15 -16t30.5 -22.5t36.5 -27.5t34.5 -31.5t24.5 -34t6 -35.5q-3 -15 -19 -26.5t-37.5 -18.5t-46 -9t-44.5 1q-6 2 -7.5 7.5t1 11t7.5 8.5t12 0q13 -2 27.5 1t27.5 9t22 13.5t11 16.5q1 12 -11.5 29.5t-32 36t-42.5 37t-43 33.5
q-2 2 -6.5 8t-1.5 12q5 13 18.5 32.5t18.5 37.5z" />
    <glyph glyph-name="degree" unicode="&#xb0;" horiz-adv-x="202" 
d="M115 433q7 -4 11 -10q35 -16 43.5 -39t-2 -44t-36.5 -34t-59 -9q-33 8 -41 31.5t1.5 48t32.5 42t50 14.5zM107 325q14 3 23 12.5t10.5 20.5t-5.5 21.5t-24 16.5q-12 -7 -19.5 -18t-8.5 -22t4.5 -19.5t19.5 -11.5z" />
    <glyph glyph-name="endash" unicode="&#x2013;" horiz-adv-x="257" 
d="M33 174q-8 0 -11 5.5t-2.5 12t4.5 12t11 6.5q17 0 41.5 0.5t51 2t51.5 2.5t42 3q7 1 11.5 -2.5t5 -8.5t-3 -10t-10.5 -6q-18 -2 -43.5 -5t-52.5 -5.5t-52 -4.5t-43 -2z" />
    <glyph glyph-name="emdash" unicode="&#x2014;" horiz-adv-x="303" 
d="M33 174q-8 0 -11 5.5t-2.5 12t4.5 12t11 6.5q17 0 49 0.5t67 2t67.5 2.5t49.5 3q7 1 11 -2.5t4.5 -8.5t-2.5 -10t-10 -6q-18 -2 -50.5 -5t-68.5 -5.5t-68.5 -4.5t-50.5 -2z" />
    <glyph glyph-name="thorn" unicode="&#xfe;" horiz-adv-x="257" 
d="M33 512q1 12 9 16.5t18 3t18.5 -6.5t10.5 -11q1 -117 12 -231q26 2 48.5 -13.5t39.5 -39.5t27.5 -51t12.5 -48q1 -19 -2 -39t-11.5 -38t-22.5 -32.5t-33 -23.5q-6 -2 -13 -4.5t-15 -4.5q5 -37 8 -74.5t7 -75.5q-1 -8 -10 -13.5t-19 -6.5t-18.5 3t-8.5 15q-5 42 -15 116
t-19.5 165.5t-16.5 193t-7 200.5zM190 125q-2 22 -8.5 44.5t-17.5 41t-26 31t-34 14.5q5 -61 12 -121t13 -120q32 11 49 41.5t12 68.5z" />
    <glyph glyph-name="Thorn" unicode="&#xde;" horiz-adv-x="343" 
d="M53 104q-4 54 -7 107t-5 107q-3 1 -7 5t-6 9t0 10t12 8q-2 42 -2 84.5v84.5q0 2 1 3q3 8 11.5 11t17.5 2t16.5 -5t9.5 -9v-82.5t2 -82.5q38 2 75 -4.5t74 -25.5q9 -5 21.5 -14t23.5 -20.5t18 -25.5t7 -28q-1 -28 -19.5 -51.5t-47.5 -43t-65 -33.5t-72 -23q0 -2 0.5 -2.5
t0.5 -2.5q4 -39 8.5 -78t11.5 -80q-1 -6 -7.5 -10.5t-15.5 -6.5t-17.5 -0.5t-13.5 8.5q-2 2 -2 3q-7 41 -11.5 80t-8.5 80zM271 238q0 26 -17.5 44t-44 29t-57 15.5t-56.5 3.5q2 -57 5 -107.5t8 -107.5q23 6 51.5 17t53 26.5t41 35.5t16.5 44z" />
    <glyph glyph-name="periodcentered" unicode="&#xb7;" horiz-adv-x="93" 
d="M51 229q13 -7 14.5 -14t-3 -12t-12 -7t-12.5 1q-7 4 -8.5 11t0.5 13t7.5 9t13.5 -1z" />
    <glyph glyph-name="copyright" unicode="&#xa9;" horiz-adv-x="521" 
d="M49 308q10 33 30.5 64t48.5 54t62.5 34t74.5 3q28 -6 58.5 -17t59 -28t52 -39t37.5 -49q26 -42 20 -90t-33.5 -93t-71.5 -82t-93.5 -58t-100 -20.5t-90.5 30.5q-33 24 -50 59.5t-22 75t0.5 80.5t17.5 76zM279 432q-7 2 -14.5 3t-15.5 2q-34 -2 -65.5 -24t-48.5 -49
q-21 -30 -34.5 -75t-15 -92t12 -89.5t48.5 -67.5q29 -20 66 -22q43 4 86.5 27t79 56.5t57.5 73.5t22 78q0 31 -15.5 59.5t-40.5 52t-57 41t-65 26.5zM300 297q-1 -11 -7.5 -15t-14.5 1q-9 -5 -16.5 -11.5t-15.5 -14.5q-11 -11 -18 -29t4 -35q5 -8 12.5 -12.5t15.5 -6.5
q22 4 43 13.5t36 15.5q7 3 12 0.5t7.5 -7.5t1.5 -11t-7 -10q-20 -8 -44 -16.5t-48 -11t-46 4t-37 29.5q-10 13 -9 29.5t9.5 33t23.5 33t34 30.5q8 6 18 9t19.5 2t16.5 -6t10 -15z" />
    <glyph glyph-name="registered" unicode="&#xae;" horiz-adv-x="521" 
d="M49 308q10 33 30.5 64t48.5 54t62.5 34t74.5 3q28 -6 58.5 -17t59 -28t52 -39t37.5 -49q26 -42 20 -90t-33.5 -93t-71.5 -82t-93.5 -58t-100 -20.5t-90.5 30.5q-33 24 -50 59.5t-22 75t0.5 80.5t17.5 76zM279 432q-7 2 -14.5 3t-15.5 2q-34 -2 -65.5 -24t-48.5 -49
q-21 -30 -34.5 -75t-15 -92t12 -89.5t48.5 -67.5q29 -20 66 -22q43 4 86.5 27t79 56.5t57.5 73.5t22 78q0 31 -15.5 59.5t-40.5 52t-57 41t-65 26.5zM183 305q-3 6 1.5 10.5t12.5 7.5t16.5 3.5t13.5 -3.5l3 -8q13 4 27.5 6t26.5 0.5t20 -7.5t9 -17q1 -15 -10 -29t-29 -26
q29 -5 45 -28.5t32 -56.5q2 -7 -0.5 -11.5t-7 -6t-9.5 0t-9 6.5q-8 17 -16.5 34.5t-23.5 26.5q-11 7 -23 6t-24 -3q-1 -22 -2 -38.5t-1 -25.5q-1 -7 -7.5 -11t-14 -4.5t-14 2.5t-6.5 11q0 9 -1 29t-3 43.5t-4 47.5t-2 41zM239 253q16 10 27.5 20t13.5 19q-17 7 -43 -1z" />
    <glyph glyph-name="quoteright" unicode="&#x2019;" horiz-adv-x="98" 
d="M33 291q7 7 11.5 21t-4.5 22q-17 5 -20 13.5t0 16.5q2 9 10.5 14t18 5t17.5 -6.5t11 -22.5q4 -23 -6.5 -43.5t-20.5 -31.5q-3 -4 -7 -4.5t-7 1t-4.5 5.5t1.5 10z" />
    <glyph glyph-name="quoteleft" unicode="&#x2018;" horiz-adv-x="98" 
d="M64 368q-7 -8 -11.5 -21.5t4.5 -21.5q17 -5 20 -13.5t0 -16.5q-2 -9 -10.5 -14.5t-18 -5.5t-17.5 7t-11 23q-4 23 6.5 43.5t20.5 31.5q5 7 14 3t3 -15z" />
    <glyph glyph-name="quotedblleft" unicode="&#x201c;" horiz-adv-x="169" 
d="M64 368q-7 -8 -11.5 -21.5t4.5 -21.5q17 -5 20 -13.5t0 -16.5q-2 -9 -10.5 -14.5t-18 -5.5t-17.5 7t-11 23q-4 23 6.5 43.5t20.5 31.5q5 7 14 3t3 -15zM135 367q-7 -8 -11.5 -21.5t4.5 -21.5q17 -5 20 -13.5t0 -16.5q-2 -9 -10.5 -14t-18 -5t-18 6.5t-11.5 22.5
q-3 23 7 43.5t21 31.5q5 7 14 3t3 -15z" />
    <glyph glyph-name="quotedblright" unicode="&#x201d;" horiz-adv-x="169" 
d="M104 291q8 7 12.5 21t-4.5 22q-17 5 -20 13.5t-1 16.5q3 9 11 14t18 5t18 -6.5t11 -22.5q4 -23 -6.5 -43.5t-20.5 -31.5q-3 -4 -7 -4.5t-7.5 1t-5 5.5t1.5 10zM34 290q7 7 11.5 21t-4.5 22q-17 5 -20 13.5t0 16.5q2 9 10.5 14t18 5t17.5 -6.5t11 -22.5q4 -23 -6.5 -43.5
t-20.5 -31.5q-3 -4 -7 -4.5t-7 1t-4.5 5.5t1.5 10z" />
    <glyph glyph-name="quotedblbase" unicode="&#x201e;" horiz-adv-x="151" 
d="M95 -26q7 7 12 21t-4 22q-17 4 -20.5 13t-0.5 17q3 9 11 14t17.5 5t18 -7t11.5 -23q4 -22 -6.5 -42.5t-20.5 -31.5q-6 -8 -14.5 -4t-3.5 16zM24 -27q8 7 12.5 21t-4.5 22q-17 4 -20.5 13t-0.5 17q3 9 11 14t18 5t18 -7t11 -23q4 -22 -6.5 -42.5t-20.5 -31.5
q-3 -4 -7 -4.5t-7.5 1t-5 5.5t1.5 10z" />
    <glyph glyph-name="eth" unicode="&#xf0;" horiz-adv-x="275" 
d="M80 230q-14 -3 -18.5 7.5t5.5 19.5l62 28q-17 35 -31 71t-22 75q-1 8 2.5 13t8.5 6t10.5 -2t7.5 -11q8 -36 28.5 -70.5t38.5 -67.5l43 19q8 3 13.5 0.5t8 -7.5t1 -11t-8.5 -10l-42 -19l28 -58q14 2 17 -8t-5 -19q10 -25 15 -54.5t5 -48.5q0 -44 -30 -58t-70 -6
q-29 6 -57 20.5t-45 33.5t-17 40t27 39q7 5 15 9.5t20.5 10t31 12.5t46.5 18l-25 55zM185 162q-43 -12 -62.5 -25t-23 -25t6 -23t24 -20t30.5 -15t27 -8q16 3 19.5 18t0 33t-10.5 36t-11 29z" />
    <glyph glyph-name="slash" unicode="/" horiz-adv-x="130" 
d="M90 519q2 9 7 12t10.5 2t10 -5.5t4.5 -11.5q-19 -158 -38 -299.5t-48 -272.5q-2 -9 -8.5 -12.5t-13.5 -2.5t-11 7t-2 15q14 63 25.5 133t22 143.5t20.5 147.5t21 144z" />
    <glyph glyph-name="ae" unicode="&#xe6;" horiz-adv-x="474" 
d="M89 243q10 13 25 19t32 3q0 4 1 8.5t6 8.5q11 8 27.5 4t20.5 -12q1 -27 4 -73t9 -93.5t16 -87.5t25 -55q4 -5 0.5 -10t-10 -8.5t-15 -4.5t-12.5 2q-11 10 -19.5 28.5t-15.5 41.5t-13 50t-10 55q-5 -20 -11 -38.5t-17 -35.5q-14 -26 -32.5 -35t-35 -4.5t-27 22t-8.5 46.5
q3 48 16.5 89.5t43.5 79.5zM89 38q16 13 26.5 36.5t16 50.5t7 53.5t-0.5 45.5q-14 -14 -26.5 -37.5t-20 -49.5t-9 -52.5t6.5 -46.5zM207 128q-12 2 -13.5 12.5t10.5 14.5q5 1 10 1.5t10 0.5q2 29 8.5 57t18.5 45q18 25 38.5 22t35 -20.5t18 -43.5t-11.5 -47
q-8 -11 -21.5 -19t-29.5 -13q1 -40 12 -71.5t43 -40.5q26 5 48 22.5t40 35.5q6 5 13 4.5t12 -4t7 -9t-3 -11.5q-16 -15 -32 -27.5t-36 -22.5q-42 -20 -72 -16.5t-49.5 22t-29 48t-10.5 61.5q-5 0 -9.5 -0.5t-6.5 -0.5zM307 187q14 14 9 30.5t-16 24.5q-5 -6 -8 -15
t-5.5 -19.5t-3.5 -21t-2 -18.5q15 7 26 19z" />
    <glyph glyph-name="acute" unicode="&#xb4;" horiz-adv-x="146" 
d="M92 424q6 5 13.5 4t13 -4.5t8 -9.5t-2.5 -12q-19 -20 -40.5 -41.5t-38.5 -44.5q-5 -5 -10.5 -5.5t-10 2.5t-6 8t2.5 11q19 23 35 47t36 45z" />
    <glyph glyph-name="breve" unicode="&#x2d8;" horiz-adv-x="154" 
d="M19 388q-1 7 5.5 13.5t14.5 9.5t16 2t10 -8q4 -14 10 -25t12.5 -14t12 4t8.5 29q1 7 6 10.5t10 3t8.5 -5t2.5 -11.5q-5 -34 -21 -49t-35 -14.5t-36 15.5t-24 40z" />
    <glyph glyph-name="circumflex" unicode="&#x2c6;" horiz-adv-x="141" 
d="M55 321q-4 -5 -10.5 -6t-12.5 1t-10 6.5t-2 10.5q13 36 23.5 56t21.5 22t24.5 -15t31.5 -55q5 -14 -6.5 -17.5t-19.5 7.5q-6 14 -10.5 26.5t-8.5 13.5q-2 -1 -6.5 -11t-14.5 -39z" />
    <glyph glyph-name="dieresis" unicode="&#xa8;" horiz-adv-x="171" 
d="M29 335q-3 9 2.5 18t16.5 11q9 0 16 -7.5t2 -18.5q-7 -9 -18 -12t-19 9zM109 340q-5 6 -2 12.5t9 10t14 2.5t13 -11q1 -6 -2 -11.5t-8.5 -8.5t-12 -2.5t-11.5 8.5z" />
    <glyph glyph-name="grave" unicode="`" horiz-adv-x="123" 
d="M22 377q-5 5 -3.5 11t7 10t12 4.5t12.5 -3.5q16 -14 27 -29.5t24 -29.5q5 -5 4 -10.5t-4.5 -8.5t-9.5 -3.5t-11 4.5q-12 12 -27.5 26.5t-30.5 28.5z" />
    <glyph glyph-name="macron" unicode="&#xaf;" horiz-adv-x="182" 
d="M33 340q-8 0 -11 5.5t-2.5 11.5t4.5 11t11 6q29 1 58 0.5t58 0.5q12 -5 12 -15t-14 -13q-29 -1 -58 -4t-58 -3z" />
    <glyph glyph-name="caron" unicode="&#x2c7;" horiz-adv-x="146" 
d="M20 391q-3 7 1 14t11.5 10.5t15 3.5t11.5 -6t7.5 -14.5t7 -15.5t7 -11.5t6.5 -4.5q2 1 6.5 15t6.5 33q4 14 14.5 13.5t13.5 -13.5q-1 -7 -4 -20t-7.5 -27t-10 -26.5t-11.5 -18.5q-5 -6 -14.5 -4t-18.5 10q-12 13 -23 30.5t-19 31.5z" />
    <glyph glyph-name="ogonek" unicode="&#x2db;" horiz-adv-x="128" 
d="M69 18q14 4 18.5 -6.5t-6.5 -18.5q-7 -6 -15 -17t-10.5 -21.5t5.5 -16.5t32 0q14 1 16.5 -9.5t-8.5 -17.5q-39 -11 -59 -1.5t-23 28t10 41.5t40 39z" />
    <glyph glyph-name="ring" unicode="&#x2da;" horiz-adv-x="125" 
d="M70 399q22 -5 30.5 -16.5t5.5 -23t-15 -19.5t-30 -6q-15 2 -24 8t-13.5 14.5t-5 17t2.5 16.5q7 16 21 16t25 -4zM78 368q-6 2 -12 3l-12 2q-1 -4 2 -7t7 -4t8 0t7 6z" />
    <glyph glyph-name="cedilla" unicode="&#xb8;" horiz-adv-x="148" 
d="M75 13q1 7 5 10.5t8.5 3t8.5 -5t5 -11.5q2 -16 6 -36.5t0 -35.5q-2 -9 -9.5 -14.5t-15 -10t-13.5 -8.5t-4 -9q2 -6 20 -6.5t32 1.5q12 -5 12 -15t-13 -13q-12 -1 -29 -1.5t-32 2t-25.5 9t-11.5 20.5q-1 12 6 20t17 13.5t21 9.5t18 9q1 7 0.5 16.5t-2 19.5t-3 18.5
t-1.5 13.5z" />
    <glyph glyph-name="tilde" unicode="&#x2dc;" horiz-adv-x="149" 
d="M45 339q-8 -10 -18 -5.5t-7 17.5q11 26 22.5 34t22.5 5t21 -13t18 -21q8 11 12 13.5t7 1.5q5 -2 7.5 -8.5t-1.5 -14.5q-7 -15 -16 -19.5t-19 -1.5t-19.5 11t-18.5 17q-5 -4 -7 -7.5t-4 -8.5z" />
    <glyph glyph-name="dotaccent" unicode="&#x2d9;" horiz-adv-x="96" 
d="M29 350q-3 9 2.5 18t16.5 11q9 0 16 -7.5t2 -18.5q-7 -10 -18 -12.5t-19 9.5z" />
    <glyph glyph-name="hungarumlaut" unicode="&#x2dd;" horiz-adv-x="145" 
d="M92 432q2 7 7.5 9.5t11 2t10 -4t4.5 -9.5q0 -5 -2.5 -15.5t-6.5 -23t-8.5 -25t-7.5 -20.5q-5 -12 -15.5 -10t-11.5 14q8 28 12.5 50t6.5 32zM42 435q7 11 19.5 8.5t10.5 -16.5q-6 -21 -13 -43t-13 -38q-5 -12 -15.5 -10t-11.5 14q5 18 11.5 43t11.5 42z" />
    <glyph glyph-name="Aacute" unicode="&#xc1;" horiz-adv-x="347" 
d="M26 146q-7 -2 -11.5 1t-5.5 7.5t1.5 9.5t10.5 8l27 6q10 72 22.5 144.5t28.5 133.5q3 10 13 19.5t22.5 14.5t24.5 3t18 -14q29 -65 45.5 -131.5t33.5 -135.5q17 2 34 5l34 6q7 1 11 -2.5t4 -8.5t-3.5 -10t-10.5 -6l-63 -11q8 -35 17 -70.5t19.5 -68.5t23 -62.5
t28.5 -51.5q3 -5 2.5 -10t-3.5 -8.5t-8 -5t-10 1.5q-26 22 -44.5 52t-32.5 64.5t-24 73t-18 78.5q-29 -5 -57 -9.5t-54 -8.5l-17 -136q-3 -6 -11.5 -10.5t-18.5 -5.5t-17.5 2.5t-8.5 14.5q3 27 7 58.5t9 66.5zM206 204q-12 62 -25 121.5t-33 110.5q-14 -59 -24.5 -122
t-18.5 -125q24 5 49.5 8t51.5 7zM163 634q6 5 13.5 4t13 -4.5t8 -9.5t-2.5 -12q-19 -20 -40.5 -41.5t-38.5 -44.5q-5 -5 -10.5 -5.5t-10 2.5t-6 8t2.5 11q19 23 35 47t36 45z" />
    <glyph glyph-name="Abreve" unicode="&#x102;" horiz-adv-x="347" 
d="M26 146q-7 -2 -11.5 1t-5.5 7.5t1.5 9.5t10.5 8l27 6q10 72 22.5 144.5t28.5 133.5q3 10 13 19.5t22.5 14.5t24.5 3t18 -14q29 -65 45.5 -131.5t33.5 -135.5q17 2 34 5l34 6q7 1 11 -2.5t4 -8.5t-3.5 -10t-10.5 -6l-63 -11q8 -35 17 -70.5t19.5 -68.5t23 -62.5
t28.5 -51.5q3 -5 2.5 -10t-3.5 -8.5t-8 -5t-10 1.5q-26 22 -44.5 52t-32.5 64.5t-24 73t-18 78.5q-29 -5 -57 -9.5t-54 -8.5l-17 -136q-3 -6 -11.5 -10.5t-18.5 -5.5t-17.5 2.5t-8.5 14.5q3 27 7 58.5t9 66.5zM206 204q-12 62 -25 121.5t-33 110.5q-14 -59 -24.5 -122
t-18.5 -125q24 5 49.5 8t51.5 7zM83 589q-1 7 5.5 13.5t14.5 9.5t16 2t10 -8q4 -14 10 -25t12.5 -14t12 4t8.5 29q1 7 6 10.5t10 3t8.5 -5t2.5 -11.5q-5 -34 -21 -49t-35 -14.5t-36 15.5t-24 40z" />
    <glyph glyph-name="Acircumflex" unicode="&#xc2;" horiz-adv-x="347" 
d="M26 146q-7 -2 -11.5 1t-5.5 7.5t1.5 9.5t10.5 8l27 6q10 72 22.5 144.5t28.5 133.5q3 10 13 19.5t22.5 14.5t24.5 3t18 -14q29 -65 45.5 -131.5t33.5 -135.5q17 2 34 5l34 6q7 1 11 -2.5t4 -8.5t-3.5 -10t-10.5 -6l-63 -11q8 -35 17 -70.5t19.5 -68.5t23 -62.5
t28.5 -51.5q3 -5 2.5 -10t-3.5 -8.5t-8 -5t-10 1.5q-26 22 -44.5 52t-32.5 64.5t-24 73t-18 78.5q-29 -5 -57 -9.5t-54 -8.5l-17 -136q-3 -6 -11.5 -10.5t-18.5 -5.5t-17.5 2.5t-8.5 14.5q3 27 7 58.5t9 66.5zM206 204q-12 62 -25 121.5t-33 110.5q-14 -59 -24.5 -122
t-18.5 -125q24 5 49.5 8t51.5 7zM124 531q-4 -5 -10.5 -6t-12.5 1t-10 6.5t-2 10.5q13 36 23.5 56t21.5 22t24.5 -15t31.5 -55q5 -14 -6.5 -17.5t-19.5 7.5q-6 14 -10.5 26.5t-8.5 13.5q-2 -1 -6.5 -11t-14.5 -39z" />
    <glyph glyph-name="Agrave" unicode="&#xc0;" horiz-adv-x="347" 
d="M26 146q-7 -2 -11.5 1t-5.5 7.5t1.5 9.5t10.5 8l27 6q10 72 22.5 144.5t28.5 133.5q3 10 13 19.5t22.5 14.5t24.5 3t18 -14q29 -65 45.5 -131.5t33.5 -135.5q17 2 34 5l34 6q7 1 11 -2.5t4 -8.5t-3.5 -10t-10.5 -6l-63 -11q8 -35 17 -70.5t19.5 -68.5t23 -62.5
t28.5 -51.5q3 -5 2.5 -10t-3.5 -8.5t-8 -5t-10 1.5q-26 22 -44.5 52t-32.5 64.5t-24 73t-18 78.5q-29 -5 -57 -9.5t-54 -8.5l-17 -136q-3 -6 -11.5 -10.5t-18.5 -5.5t-17.5 2.5t-8.5 14.5q3 27 7 58.5t9 66.5zM206 204q-12 62 -25 121.5t-33 110.5q-14 -59 -24.5 -122
t-18.5 -125q24 5 49.5 8t51.5 7zM111 587q-5 5 -3.5 11t7 10t12 4.5t12.5 -3.5q16 -14 27 -29.5t24 -29.5q5 -5 4 -10.5t-4.5 -8.5t-9.5 -3.5t-11 4.5q-12 12 -27.5 26.5t-30.5 28.5z" />
    <glyph glyph-name="Adieresis" unicode="&#xc4;" horiz-adv-x="347" 
d="M26 146q-7 -2 -11.5 1t-5.5 7.5t1.5 9.5t10.5 8l27 6q10 72 22.5 144.5t28.5 133.5q3 10 13 19.5t22.5 14.5t24.5 3t18 -14q29 -65 45.5 -131.5t33.5 -135.5q17 2 34 5l34 6q7 1 11 -2.5t4 -8.5t-3.5 -10t-10.5 -6l-63 -11q8 -35 17 -70.5t19.5 -68.5t23 -62.5
t28.5 -51.5q3 -5 2.5 -10t-3.5 -8.5t-8 -5t-10 1.5q-26 22 -44.5 52t-32.5 64.5t-24 73t-18 78.5q-29 -5 -57 -9.5t-54 -8.5l-17 -136q-3 -6 -11.5 -10.5t-18.5 -5.5t-17.5 2.5t-8.5 14.5q3 27 7 58.5t9 66.5zM206 204q-12 62 -25 121.5t-33 110.5q-14 -59 -24.5 -122
t-18.5 -125q24 5 49.5 8t51.5 7zM88 545q-3 9 2.5 18t16.5 11q9 0 16 -7.5t2 -18.5q-7 -9 -18 -12t-19 9zM168 550q-5 6 -2 12.5t9 10t14 2.5t13 -11q1 -6 -2 -11.5t-8.5 -8.5t-12 -2.5t-11.5 8.5z" />
    <glyph glyph-name="Amacron" unicode="&#x100;" horiz-adv-x="347" 
d="M26 146q-7 -2 -11.5 1t-5.5 7.5t1.5 9.5t10.5 8l27 6q10 72 22.5 144.5t28.5 133.5q3 10 13 19.5t22.5 14.5t24.5 3t18 -14q29 -65 45.5 -131.5t33.5 -135.5q17 2 34 5l34 6q7 1 11 -2.5t4 -8.5t-3.5 -10t-10.5 -6l-63 -11q8 -35 17 -70.5t19.5 -68.5t23 -62.5
t28.5 -51.5q3 -5 2.5 -10t-3.5 -8.5t-8 -5t-10 1.5q-26 22 -44.5 52t-32.5 64.5t-24 73t-18 78.5q-29 -5 -57 -9.5t-54 -8.5l-17 -136q-3 -6 -11.5 -10.5t-18.5 -5.5t-17.5 2.5t-8.5 14.5q3 27 7 58.5t9 66.5zM206 204q-12 62 -25 121.5t-33 110.5q-14 -59 -24.5 -122
t-18.5 -125q24 5 49.5 8t51.5 7zM83 550q-8 0 -11 5.5t-2.5 11.5t4.5 11t11 6q29 1 58 0.5t58 0.5q12 -5 12 -15t-14 -13q-29 -1 -58 -4t-58 -3z" />
    <glyph glyph-name="Aogonek" unicode="&#x104;" horiz-adv-x="347" 
d="M26 146q-7 -2 -11.5 1t-5.5 7.5t1.5 9.5t10.5 8l27 6q10 72 22.5 144.5t28.5 133.5q3 10 13 19.5t22.5 14.5t24.5 3t18 -14q29 -65 45.5 -131.5t33.5 -135.5q17 2 34 5l34 6q7 1 11 -2.5t4 -8.5t-3.5 -10t-10.5 -6l-63 -11q8 -35 17 -70.5t19.5 -68.5t23 -62.5
t28.5 -51.5q3 -5 2.5 -10t-3.5 -8.5t-8 -5t-10 1.5q-26 22 -44.5 52t-32.5 64.5t-24 73t-18 78.5q-29 -5 -57 -9.5t-54 -8.5l-17 -136q-3 -6 -11.5 -10.5t-18.5 -5.5t-17.5 2.5t-8.5 14.5q3 27 7 58.5t9 66.5zM206 204q-12 62 -25 121.5t-33 110.5q-14 -59 -24.5 -122
t-18.5 -125q24 5 49.5 8t51.5 7zM336 -63q14 4 18.5 -6.5t-6.5 -18.5q-7 -6 -15 -17t-10.5 -21.5t5.5 -16.5t32 0q14 1 16.5 -9.5t-8.5 -17.5q-39 -11 -59 -1.5t-23 28t10 41.5t40 39z" />
    <glyph glyph-name="Aring" unicode="&#xc5;" horiz-adv-x="347" 
d="M26 146q-7 -2 -11.5 1t-5.5 7.5t1.5 9.5t10.5 8l27 6q10 72 22.5 144.5t28.5 133.5q3 10 13 19.5t22.5 14.5t24.5 3t18 -14q29 -65 45.5 -131.5t33.5 -135.5q17 2 34 5l34 6q7 1 11 -2.5t4 -8.5t-3.5 -10t-10.5 -6l-63 -11q8 -35 17 -70.5t19.5 -68.5t23 -62.5
t28.5 -51.5q3 -5 2.5 -10t-3.5 -8.5t-8 -5t-10 1.5q-26 22 -44.5 52t-32.5 64.5t-24 73t-18 78.5q-29 -5 -57 -9.5t-54 -8.5l-17 -136q-3 -6 -11.5 -10.5t-18.5 -5.5t-17.5 2.5t-8.5 14.5q3 27 7 58.5t9 66.5zM206 204q-12 62 -25 121.5t-33 110.5q-14 -59 -24.5 -122
t-18.5 -125q24 5 49.5 8t51.5 7zM150 609q22 -5 30.5 -16.5t5.5 -23t-15 -19.5t-30 -6q-15 2 -24 8t-13.5 14.5t-5 17t2.5 16.5q7 16 21 16t25 -4zM158 578q-6 2 -12 3l-12 2q-1 -4 2 -7t7 -4t8 0t7 6z" />
    <glyph glyph-name="Atilde" unicode="&#xc3;" horiz-adv-x="347" 
d="M26 146q-7 -2 -11.5 1t-5.5 7.5t1.5 9.5t10.5 8l27 6q10 72 22.5 144.5t28.5 133.5q3 10 13 19.5t22.5 14.5t24.5 3t18 -14q29 -65 45.5 -131.5t33.5 -135.5q17 2 34 5l34 6q7 1 11 -2.5t4 -8.5t-3.5 -10t-10.5 -6l-63 -11q8 -35 17 -70.5t19.5 -68.5t23 -62.5
t28.5 -51.5q3 -5 2.5 -10t-3.5 -8.5t-8 -5t-10 1.5q-26 22 -44.5 52t-32.5 64.5t-24 73t-18 78.5q-29 -5 -57 -9.5t-54 -8.5l-17 -136q-3 -6 -11.5 -10.5t-18.5 -5.5t-17.5 2.5t-8.5 14.5q3 27 7 58.5t9 66.5zM206 204q-12 62 -25 121.5t-33 110.5q-14 -59 -24.5 -122
t-18.5 -125q24 5 49.5 8t51.5 7zM116 549q-8 -10 -18 -5.5t-7 17.5q11 26 22.5 34t22.5 5t21 -13t18 -21q8 11 12 13.5t7 1.5q5 -2 7.5 -8.5t-1.5 -14.5q-7 -15 -16 -19.5t-19 -1.5t-19.5 11t-18.5 17q-5 -4 -7 -7.5t-4 -8.5z" />
    <glyph glyph-name="AE" unicode="&#xc6;" horiz-adv-x="511" 
d="M99 456q3 10 13 19.5t22.5 14.5t24.5 3t18 -14l17 -40q1 4 8 7q22 4 55 4t70.5 -1.5t77.5 -3t77 0.5q12 -5 12 -15t-14 -13q-49 0 -97.5 -1t-97.5 -4q5 -35 6.5 -74t3.5 -74q35 4 65 7t64 5q12 -5 12 -15t-13 -13q-33 -2 -64 -7.5t-62 -10.5v-4q0 -11 0.5 -21.5
t1.5 -21.5q0 -8 0.5 -25.5t2 -37.5t6.5 -38.5t14 -28.5q19 -1 40.5 1.5t43 7t41.5 9.5t35 10q7 1 12 -2t6.5 -7.5t-1 -9.5t-8.5 -8q-8 -2 -31.5 -9t-52 -14t-56 -12t-43.5 -3q9 -25 19 -46.5t23 -38.5q3 -5 2.5 -10t-3.5 -8.5t-8 -5t-10 1.5q-26 22 -44.5 52t-32.5 64.5
t-24 73t-18 78.5l-111 -18l-17 -136q-3 -6 -11.5 -10.5t-18.5 -5.5t-17.5 2.5t-8.5 14.5q3 27 7 58.5t9 66.5l-18 -4q-7 -2 -11.5 1t-5.5 7.5t1.5 9.5t10.5 8l27 6q10 72 22.5 144.5t28.5 133.5zM206 205q-12 61 -25 120.5t-33 110.5q-14 -59 -24.5 -121.5t-18.5 -124.5z
M205 409q10 -29 17.5 -57.5t14.5 -57.5q-1 11 -1.5 22.5t-2.5 24.5v-1l-7 70q-4 0 -10 -0.5t-11 -0.5z" />
    <glyph glyph-name="AEacute" unicode="&#x1fc;" horiz-adv-x="511" 
d="M99 456q3 10 13 19.5t22.5 14.5t24.5 3t18 -14l17 -40q1 4 8 7q22 4 55 4t70.5 -1.5t77.5 -3t77 0.5q12 -5 12 -15t-14 -13q-49 0 -97.5 -1t-97.5 -4q5 -35 6.5 -74t3.5 -74q35 4 65 7t64 5q12 -5 12 -15t-13 -13q-33 -2 -64 -7.5t-62 -10.5v-4q0 -11 0.5 -21.5
t1.5 -21.5q0 -8 0.5 -25.5t2 -37.5t6.5 -38.5t14 -28.5q19 -1 40.5 1.5t43 7t41.5 9.5t35 10q7 1 12 -2t6.5 -7.5t-1 -9.5t-8.5 -8q-8 -2 -31.5 -9t-52 -14t-56 -12t-43.5 -3q9 -25 19 -46.5t23 -38.5q3 -5 2.5 -10t-3.5 -8.5t-8 -5t-10 1.5q-26 22 -44.5 52t-32.5 64.5
t-24 73t-18 78.5l-111 -18l-17 -136q-3 -6 -11.5 -10.5t-18.5 -5.5t-17.5 2.5t-8.5 14.5q3 27 7 58.5t9 66.5l-18 -4q-7 -2 -11.5 1t-5.5 7.5t1.5 9.5t10.5 8l27 6q10 72 22.5 144.5t28.5 133.5zM206 205q-12 61 -25 120.5t-33 110.5q-14 -59 -24.5 -121.5t-18.5 -124.5z
M205 409q10 -29 17.5 -57.5t14.5 -57.5q-1 11 -1.5 22.5t-2.5 24.5v-1l-7 70q-4 0 -10 -0.5t-11 -0.5zM273 634q6 5 13.5 4t13 -4.5t8 -9.5t-2.5 -12q-19 -20 -40.5 -41.5t-38.5 -44.5q-5 -5 -10.5 -5.5t-10 2.5t-6 8t2.5 11q19 23 35 47t36 45z" />
    <glyph glyph-name="Cacute" unicode="&#x106;" horiz-adv-x="376" 
d="M220 336q-1 -7 -6 -11t-10.5 -4.5t-10.5 2.5t-6 11q0 11 -3 28.5t-8 35.5t-11.5 33.5t-14.5 22.5q-11 -7 -20.5 -23t-17.5 -36.5t-13.5 -42t-8.5 -40.5q-3 -28 -3.5 -59.5t3.5 -62.5t14 -60.5t28 -53.5q17 -23 36 -35t39 -15q32 5 62 26t53 50q5 4 11.5 4.5t12 -2t8 -7.5
t0.5 -11q-26 -33 -60 -56t-71 -29.5t-73.5 6.5t-68.5 53q-22 27 -34 69t-16 87.5t0.5 89t16.5 73.5q5 14 14 33.5t21 36.5t28 28t36 8q16 -2 29 -16.5t22 -35.5t14.5 -46.5t7.5 -50.5zM159 634q6 5 13.5 4t13 -4.5t8 -9.5t-2.5 -12q-19 -20 -40.5 -41.5t-38.5 -44.5
q-5 -5 -10.5 -5.5t-10 2.5t-6 8t2.5 11q19 23 35 47t36 45z" />
    <glyph glyph-name="Ccaron" unicode="&#x10c;" horiz-adv-x="376" 
d="M220 336q-1 -7 -6 -11t-10.5 -4.5t-10.5 2.5t-6 11q0 11 -3 28.5t-8 35.5t-11.5 33.5t-14.5 22.5q-11 -7 -20.5 -23t-17.5 -36.5t-13.5 -42t-8.5 -40.5q-3 -28 -3.5 -59.5t3.5 -62.5t14 -60.5t28 -53.5q17 -23 36 -35t39 -15q32 5 62 26t53 50q5 4 11.5 4.5t12 -2t8 -7.5
t0.5 -11q-26 -33 -60 -56t-71 -29.5t-73.5 6.5t-68.5 53q-22 27 -34 69t-16 87.5t0.5 89t16.5 73.5q5 14 14 33.5t21 36.5t28 28t36 8q16 -2 29 -16.5t22 -35.5t14.5 -46.5t7.5 -50.5zM73 601q-3 7 1 14t11.5 10.5t15 3.5t11.5 -6t7.5 -14.5t7 -15.5t7 -11.5t6.5 -4.5
q2 1 6.5 15t6.5 33q4 14 14.5 13.5t13.5 -13.5q-1 -7 -4 -20t-7.5 -27t-10 -26.5t-11.5 -18.5q-5 -6 -14.5 -4t-18.5 10q-12 13 -23 30.5t-19 31.5z" />
    <glyph glyph-name="Ccedilla" unicode="&#xc7;" horiz-adv-x="376" 
d="M224 10q2 -15 5 -32t0 -30q-2 -9 -10.5 -15.5t-17 -11t-13 -8.5t2.5 -8q8 -5 21.5 -6t27.5 1q12 -4 12 -14.5t-14 -13.5q-12 -1 -29 -1t-32 2.5t-25.5 9t-11.5 19.5q-1 12 6 20t17 13.5t21 9.5t18 9q2 10 -0.5 26.5t-4.5 28.5zM220 336q-1 -7 -6 -11t-10.5 -4.5
t-10.5 2.5t-6 11q0 11 -3 28.5t-8 35.5t-11.5 33.5t-14.5 22.5q-11 -7 -20.5 -23t-17.5 -36.5t-13.5 -42t-8.5 -40.5q-3 -28 -3.5 -59.5t3.5 -62.5t14 -60.5t28 -53.5q17 -23 36 -35t39 -15q32 5 62 26t53 50q5 4 11.5 4.5t12 -2t8 -7.5t0.5 -11q-26 -33 -60 -56t-71 -29.5
t-73.5 6.5t-68.5 53q-22 27 -34 69t-16 87.5t0.5 89t16.5 73.5q5 14 14 33.5t21 36.5t28 28t36 8q16 -2 29 -16.5t22 -35.5t14.5 -46.5t7.5 -50.5z" />
    <glyph glyph-name="Ccircumflex" unicode="&#x108;" horiz-adv-x="376" 
d="M220 336q-1 -7 -6 -11t-10.5 -4.5t-10.5 2.5t-6 11q0 11 -3 28.5t-8 35.5t-11.5 33.5t-14.5 22.5q-11 -7 -20.5 -23t-17.5 -36.5t-13.5 -42t-8.5 -40.5q-3 -28 -3.5 -59.5t3.5 -62.5t14 -60.5t28 -53.5q17 -23 36 -35t39 -15q32 5 62 26t53 50q5 4 11.5 4.5t12 -2t8 -7.5
t0.5 -11q-26 -33 -60 -56t-71 -29.5t-73.5 6.5t-68.5 53q-22 27 -34 69t-16 87.5t0.5 89t16.5 73.5q5 14 14 33.5t21 36.5t28 28t36 8q16 -2 29 -16.5t22 -35.5t14.5 -46.5t7.5 -50.5zM124 531q-4 -5 -10.5 -6t-12.5 1t-10 6.5t-2 10.5q13 36 23.5 56t21.5 22t24.5 -15
t31.5 -55q5 -14 -6.5 -17.5t-19.5 7.5q-6 14 -10.5 26.5t-8.5 13.5q-2 -1 -6.5 -11t-14.5 -39z" />
    <glyph glyph-name="Cdotaccent" unicode="&#x10a;" horiz-adv-x="376" 
d="M220 336q-1 -7 -6 -11t-10.5 -4.5t-10.5 2.5t-6 11q0 11 -3 28.5t-8 35.5t-11.5 33.5t-14.5 22.5q-11 -7 -20.5 -23t-17.5 -36.5t-13.5 -42t-8.5 -40.5q-3 -28 -3.5 -59.5t3.5 -62.5t14 -60.5t28 -53.5q17 -23 36 -35t39 -15q32 5 62 26t53 50q5 4 11.5 4.5t12 -2t8 -7.5
t0.5 -11q-26 -33 -60 -56t-71 -29.5t-73.5 6.5t-68.5 53q-22 27 -34 69t-16 87.5t0.5 89t16.5 73.5q5 14 14 33.5t21 36.5t28 28t36 8q16 -2 29 -16.5t22 -35.5t14.5 -46.5t7.5 -50.5zM113 551q-3 9 2.5 18t16.5 11q9 0 16 -7.5t2 -18.5q-7 -10 -18 -12.5t-19 9.5z" />
    <glyph glyph-name="Dcaron" unicode="&#x10e;" horiz-adv-x="423" 
d="M52 464q1 6 9.5 9.5t18 3.5t18 -3t10.5 -9v-2q25 12 55 6.5t60 -22.5t59 -43.5t52 -56.5t38.5 -61t19.5 -58q10 -66 -16.5 -116.5t-71.5 -96.5q-10 -10 -26 -19.5t-32 -12.5t-29.5 3t-17.5 26q-1 7 2.5 12t8 6t9.5 -1.5t8 -9.5v-3q32 17 58 45t41 66q21 51 11.5 101.5
t-38.5 94t-71.5 75.5t-87.5 45q-9 -2 -16.5 -7t-9.5 -14q-9 -26 -5.5 -59t12.5 -69t20 -73.5t17.5 -72.5t4 -66.5t-19.5 -55.5q-2 -2 -9 -4t-14.5 -2.5t-14.5 0t-10 2.5q-18 17 -28 55t-15 85t-5.5 98t0.5 94.5t3 73.5t2 36zM129 66q2 34 -4 77.5t-20 93.5q2 -54 7 -100.5
t17 -70.5zM87 601q-3 7 1 14t11.5 10.5t15 3.5t11.5 -6t7.5 -14.5t7 -15.5t7 -11.5t6.5 -4.5q2 1 6.5 15t6.5 33q4 14 14.5 13.5t13.5 -13.5q-1 -7 -4 -20t-7.5 -27t-10 -26.5t-11.5 -18.5q-5 -6 -14.5 -4t-18.5 10q-12 13 -23 30.5t-19 31.5z" />
    <glyph glyph-name="Dcroat" unicode="&#x110;" horiz-adv-x="423" 
d="M52 464q1 6 9.5 9.5t18 3.5t18 -3t10.5 -9v-2q25 12 55 6.5t60 -22.5t59 -43.5t52 -56.5t38.5 -61t19.5 -58q10 -66 -16.5 -116.5t-71.5 -96.5q-10 -10 -26 -19.5t-32 -12.5t-29.5 3t-17.5 26q-1 7 2.5 12t8 6t9.5 -1.5t8 -9.5v-3q32 17 58 45t41 66q21 51 11.5 101.5
t-38.5 94t-71.5 75.5t-87.5 45q-9 -2 -16.5 -7t-9.5 -14q-9 -26 -5.5 -59t12.5 -69t20 -73.5t17.5 -72.5t4 -66.5t-19.5 -55.5q-2 -2 -9 -4t-14.5 -2.5t-14.5 0t-10 2.5q-18 17 -28 55t-15 85t-5.5 98t0.5 94.5t3 73.5t2 36zM129 66q2 34 -4 77.5t-20 93.5q2 -54 7 -100.5
t17 -70.5zM40 203q-8 0 -11 5.5t-2.5 11.5t4.5 11t11 6q29 1 58 0.5t58 0.5q12 -5 12 -15t-14 -13q-29 -1 -58 -4t-58 -3z" />
    <glyph glyph-name="Eacute" unicode="&#xc9;" horiz-adv-x="350" 
d="M59 222q-6 -2 -10.5 2.5t-6 11.5t2 14t12.5 9q-1 23 -2.5 41.5t-3.5 40.5v-1l-7 70q-5 0 -13.5 -0.5t-10.5 0.5q-10 5 -10 18.5t11 17.5q22 4 54.5 4t70 -1.5t77.5 -3t77 0.5q12 -5 12 -15t-13 -13q-50 0 -98.5 -1t-97.5 -4q5 -35 6.5 -74t3.5 -74q35 4 65.5 7t64.5 5
q11 -5 11 -15t-13 -13q-33 -2 -64 -7.5t-62 -10.5v-4q0 -11 0.5 -21.5t1.5 -21.5q0 -8 0.5 -25.5t2 -37.5t6.5 -38.5t14 -28.5q19 -1 41 1.5t43.5 7t41 9.5t34.5 10q7 1 12 -2t6.5 -7.5t-1 -9.5t-8.5 -8q-8 -2 -33 -9.5t-55 -15t-58 -12t-42 -0.5q-23 6 -34.5 23t-17 40.5
t-6.5 50.5t-2 51q-1 10 -1.5 19.5t-0.5 19.5zM193 606q6 5 13.5 4t13 -4.5t8 -9.5t-2.5 -12q-19 -20 -40.5 -41.5t-38.5 -44.5q-5 -5 -10.5 -5.5t-10 2.5t-6 8t2.5 11q19 23 35 47t36 45z" />
    <glyph glyph-name="Ebreve" unicode="&#x114;" horiz-adv-x="350" 
d="M59 222q-6 -2 -10.5 2.5t-6 11.5t2 14t12.5 9q-1 23 -2.5 41.5t-3.5 40.5v-1l-7 70q-5 0 -13.5 -0.5t-10.5 0.5q-10 5 -10 18.5t11 17.5q22 4 54.5 4t70 -1.5t77.5 -3t77 0.5q12 -5 12 -15t-13 -13q-50 0 -98.5 -1t-97.5 -4q5 -35 6.5 -74t3.5 -74q35 4 65.5 7t64.5 5
q11 -5 11 -15t-13 -13q-33 -2 -64 -7.5t-62 -10.5v-4q0 -11 0.5 -21.5t1.5 -21.5q0 -8 0.5 -25.5t2 -37.5t6.5 -38.5t14 -28.5q19 -1 41 1.5t43.5 7t41 9.5t34.5 10q7 1 12 -2t6.5 -7.5t-1 -9.5t-8.5 -8q-8 -2 -33 -9.5t-55 -15t-58 -12t-42 -0.5q-23 6 -34.5 23t-17 40.5
t-6.5 50.5t-2 51q-1 10 -1.5 19.5t-0.5 19.5zM107 561q-1 7 5.5 13.5t14.5 9.5t16 2t10 -8q4 -14 10 -25t12.5 -14t12 4t8.5 29q1 7 6 10.5t10 3t8.5 -5t2.5 -11.5q-5 -34 -21 -49t-35 -14.5t-36 15.5t-24 40z" />
    <glyph glyph-name="Ecaron" unicode="&#x11a;" horiz-adv-x="350" 
d="M59 222q-6 -2 -10.5 2.5t-6 11.5t2 14t12.5 9q-1 23 -2.5 41.5t-3.5 40.5v-1l-7 70q-5 0 -13.5 -0.5t-10.5 0.5q-10 5 -10 18.5t11 17.5q22 4 54.5 4t70 -1.5t77.5 -3t77 0.5q12 -5 12 -15t-13 -13q-50 0 -98.5 -1t-97.5 -4q5 -35 6.5 -74t3.5 -74q35 4 65.5 7t64.5 5
q11 -5 11 -15t-13 -13q-33 -2 -64 -7.5t-62 -10.5v-4q0 -11 0.5 -21.5t1.5 -21.5q0 -8 0.5 -25.5t2 -37.5t6.5 -38.5t14 -28.5q19 -1 41 1.5t43.5 7t41 9.5t34.5 10q7 1 12 -2t6.5 -7.5t-1 -9.5t-8.5 -8q-8 -2 -33 -9.5t-55 -15t-58 -12t-42 -0.5q-23 6 -34.5 23t-17 40.5
t-6.5 50.5t-2 51q-1 10 -1.5 19.5t-0.5 19.5zM111 566q-3 7 1 14t11.5 10.5t15 3.5t11.5 -6t7.5 -14.5t7 -15.5t7 -11.5t6.5 -4.5q2 1 6.5 15t6.5 33q4 14 14.5 13.5t13.5 -13.5q-1 -7 -4 -20t-7.5 -27t-10 -26.5t-11.5 -18.5q-5 -6 -14.5 -4t-18.5 10q-12 13 -23 30.5
t-19 31.5z" />
    <glyph glyph-name="Ecircumflex" unicode="&#xca;" horiz-adv-x="350" 
d="M59 222q-6 -2 -10.5 2.5t-6 11.5t2 14t12.5 9q-1 23 -2.5 41.5t-3.5 40.5v-1l-7 70q-5 0 -13.5 -0.5t-10.5 0.5q-10 5 -10 18.5t11 17.5q22 4 54.5 4t70 -1.5t77.5 -3t77 0.5q12 -5 12 -15t-13 -13q-50 0 -98.5 -1t-97.5 -4q5 -35 6.5 -74t3.5 -74q35 4 65.5 7t64.5 5
q11 -5 11 -15t-13 -13q-33 -2 -64 -7.5t-62 -10.5v-4q0 -11 0.5 -21.5t1.5 -21.5q0 -8 0.5 -25.5t2 -37.5t6.5 -38.5t14 -28.5q19 -1 41 1.5t43.5 7t41 9.5t34.5 10q7 1 12 -2t6.5 -7.5t-1 -9.5t-8.5 -8q-8 -2 -33 -9.5t-55 -15t-58 -12t-42 -0.5q-23 6 -34.5 23t-17 40.5
t-6.5 50.5t-2 51q-1 10 -1.5 19.5t-0.5 19.5zM158 503q-4 -5 -10.5 -6t-12.5 1t-10 6.5t-2 10.5q13 36 23.5 56t21.5 22t24.5 -15t31.5 -55q5 -14 -6.5 -17.5t-19.5 7.5q-6 14 -10.5 26.5t-8.5 13.5q-2 -1 -6.5 -11t-14.5 -39z" />
    <glyph glyph-name="Edieresis" unicode="&#xcb;" horiz-adv-x="350" 
d="M59 222q-6 -2 -10.5 2.5t-6 11.5t2 14t12.5 9q-1 23 -2.5 41.5t-3.5 40.5v-1l-7 70q-5 0 -13.5 -0.5t-10.5 0.5q-10 5 -10 18.5t11 17.5q22 4 54.5 4t70 -1.5t77.5 -3t77 0.5q12 -5 12 -15t-13 -13q-50 0 -98.5 -1t-97.5 -4q5 -35 6.5 -74t3.5 -74q35 4 65.5 7t64.5 5
q11 -5 11 -15t-13 -13q-33 -2 -64 -7.5t-62 -10.5v-4q0 -11 0.5 -21.5t1.5 -21.5q0 -8 0.5 -25.5t2 -37.5t6.5 -38.5t14 -28.5q19 -1 41 1.5t43.5 7t41 9.5t34.5 10q7 1 12 -2t6.5 -7.5t-1 -9.5t-8.5 -8q-8 -2 -33 -9.5t-55 -15t-58 -12t-42 -0.5q-23 6 -34.5 23t-17 40.5
t-6.5 50.5t-2 51q-1 10 -1.5 19.5t-0.5 19.5zM118 517q-3 9 2.5 18t16.5 11q9 0 16 -7.5t2 -18.5q-7 -9 -18 -12t-19 9zM198 522q-5 6 -2 12.5t9 10t14 2.5t13 -11q1 -6 -2 -11.5t-8.5 -8.5t-12 -2.5t-11.5 8.5z" />
    <glyph glyph-name="Edotaccent" unicode="&#x116;" horiz-adv-x="350" 
d="M59 222q-6 -2 -10.5 2.5t-6 11.5t2 14t12.5 9q-1 23 -2.5 41.5t-3.5 40.5v-1l-7 70q-5 0 -13.5 -0.5t-10.5 0.5q-10 5 -10 18.5t11 17.5q22 4 54.5 4t70 -1.5t77.5 -3t77 0.5q12 -5 12 -15t-13 -13q-50 0 -98.5 -1t-97.5 -4q5 -35 6.5 -74t3.5 -74q35 4 65.5 7t64.5 5
q11 -5 11 -15t-13 -13q-33 -2 -64 -7.5t-62 -10.5v-4q0 -11 0.5 -21.5t1.5 -21.5q0 -8 0.5 -25.5t2 -37.5t6.5 -38.5t14 -28.5q19 -1 41 1.5t43.5 7t41 9.5t34.5 10q7 1 12 -2t6.5 -7.5t-1 -9.5t-8.5 -8q-8 -2 -33 -9.5t-55 -15t-58 -12t-42 -0.5q-23 6 -34.5 23t-17 40.5
t-6.5 50.5t-2 51q-1 10 -1.5 19.5t-0.5 19.5zM155 532q-3 9 2.5 18t16.5 11q9 0 16 -7.5t2 -18.5q-7 -10 -18 -12.5t-19 9.5z" />
    <glyph glyph-name="Egrave" unicode="&#xc8;" horiz-adv-x="350" 
d="M59 222q-6 -2 -10.5 2.5t-6 11.5t2 14t12.5 9q-1 23 -2.5 41.5t-3.5 40.5v-1l-7 70q-5 0 -13.5 -0.5t-10.5 0.5q-10 5 -10 18.5t11 17.5q22 4 54.5 4t70 -1.5t77.5 -3t77 0.5q12 -5 12 -15t-13 -13q-50 0 -98.5 -1t-97.5 -4q5 -35 6.5 -74t3.5 -74q35 4 65.5 7t64.5 5
q11 -5 11 -15t-13 -13q-33 -2 -64 -7.5t-62 -10.5v-4q0 -11 0.5 -21.5t1.5 -21.5q0 -8 0.5 -25.5t2 -37.5t6.5 -38.5t14 -28.5q19 -1 41 1.5t43.5 7t41 9.5t34.5 10q7 1 12 -2t6.5 -7.5t-1 -9.5t-8.5 -8q-8 -2 -33 -9.5t-55 -15t-58 -12t-42 -0.5q-23 6 -34.5 23t-17 40.5
t-6.5 50.5t-2 51q-1 10 -1.5 19.5t-0.5 19.5zM135 559q-5 5 -3.5 11t7 10t12 4.5t12.5 -3.5q16 -14 27 -29.5t24 -29.5q5 -5 4 -10.5t-4.5 -8.5t-9.5 -3.5t-11 4.5q-12 12 -27.5 26.5t-30.5 28.5z" />
    <glyph glyph-name="Emacron" unicode="&#x112;" horiz-adv-x="350" 
d="M59 222q-6 -2 -10.5 2.5t-6 11.5t2 14t12.5 9q-1 23 -2.5 41.5t-3.5 40.5v-1l-7 70q-5 0 -13.5 -0.5t-10.5 0.5q-10 5 -10 18.5t11 17.5q22 4 54.5 4t70 -1.5t77.5 -3t77 0.5q12 -5 12 -15t-13 -13q-50 0 -98.5 -1t-97.5 -4q5 -35 6.5 -74t3.5 -74q35 4 65.5 7t64.5 5
q11 -5 11 -15t-13 -13q-33 -2 -64 -7.5t-62 -10.5v-4q0 -11 0.5 -21.5t1.5 -21.5q0 -8 0.5 -25.5t2 -37.5t6.5 -38.5t14 -28.5q19 -1 41 1.5t43.5 7t41 9.5t34.5 10q7 1 12 -2t6.5 -7.5t-1 -9.5t-8.5 -8q-8 -2 -33 -9.5t-55 -15t-58 -12t-42 -0.5q-23 6 -34.5 23t-17 40.5
t-6.5 50.5t-2 51q-1 10 -1.5 19.5t-0.5 19.5zM109 522q-8 0 -11 5.5t-2.5 11.5t4.5 11t11 6q29 1 58 0.5t58 0.5q12 -5 12 -15t-14 -13q-29 -1 -58 -4t-58 -3z" />
    <glyph glyph-name="Eogonek" unicode="&#x118;" horiz-adv-x="350" 
d="M59 222q-6 -2 -10.5 2.5t-6 11.5t2 14t12.5 9q-1 23 -2.5 41.5t-3.5 40.5v-1l-7 70q-5 0 -13.5 -0.5t-10.5 0.5q-10 5 -10 18.5t11 17.5q22 4 54.5 4t70 -1.5t77.5 -3t77 0.5q12 -5 12 -15t-13 -13q-50 0 -98.5 -1t-97.5 -4q5 -35 6.5 -74t3.5 -74q35 4 65.5 7t64.5 5
q11 -5 11 -15t-13 -13q-33 -2 -64 -7.5t-62 -10.5v-4q0 -11 0.5 -21.5t1.5 -21.5q0 -8 0.5 -25.5t2 -37.5t6.5 -38.5t14 -28.5q19 -1 41 1.5t43.5 7t41 9.5t34.5 10q7 1 12 -2t6.5 -7.5t-1 -9.5t-8.5 -8q-8 -2 -33 -9.5t-55 -15t-58 -12t-42 -0.5q-23 6 -34.5 23t-17 40.5
t-6.5 50.5t-2 51q-1 10 -1.5 19.5t-0.5 19.5zM226 59q14 4 18.5 -6.5t-6.5 -18.5q-7 -6 -15 -17t-10.5 -21.5t5.5 -16.5t32 0q14 1 16.5 -9.5t-8.5 -17.5q-39 -11 -59 -1.5t-23 28t10 41.5t40 39z" />
    <glyph glyph-name="Gbreve" unicode="&#x11e;" horiz-adv-x="488" 
d="M357 484q6 -11 5.5 -27t-5.5 -35l5 -12q3 -9 -1.5 -14t-10.5 -4q2 -34 11.5 -66.5t20.5 -64.5l28 11q14 5 19 -6t-7 -19l-30 -12l4 -9q10 -26 20 -50t18 -47q6 -18 15.5 -40t17 -45t10.5 -45.5t-3 -42.5q-8 -26 -36.5 -41t-69.5 -20t-89.5 -1t-96 16.5t-89.5 32.5t-70 47
q-20 19 -18 37.5t15.5 36t34.5 33.5t40 28q57 36 117 63.5t122 53.5q-9 26 -18 53.5t-16 53.5q-11 -21 -24.5 -40.5t-27.5 -33t-27.5 -19.5t-25.5 0q-25 12 -33.5 32.5t-4.5 44t17.5 47t32.5 41.5t42 27t46 3l6 32q1 7 9 11.5t17 5.5t17.5 -2.5t12.5 -12.5v-1zM380 118
q-7 17 -16.5 42.5t-20.5 55.5q-34 -13 -70.5 -29.5t-71 -35t-64.5 -38t-49.5 -38t-26 -36t4.5 -31.5t39 -28.5t64.5 -27t77 -20.5t76 -8.5t61.5 9t35 31.5q4 12 0 34t-11.5 45.5t-16 44t-11.5 30.5zM291 403q-1 5 -1 8.5v8.5q-17 -5 -35 -20.5t-30 -35t-14.5 -40t12.5 -35.5
q14 11 25.5 29t16.5 25q8 15 14.5 29.5t11.5 30.5zM194 570q-1 7 5.5 13.5t14.5 9.5t16 2t10 -8q4 -14 10 -25t12.5 -14t12 4t8.5 29q1 7 6 10.5t10 3t8.5 -5t2.5 -11.5q-5 -34 -21 -49t-35 -14.5t-36 15.5t-24 40z" />
    <glyph glyph-name="Gcircumflex" unicode="&#x11c;" horiz-adv-x="488" 
d="M357 484q6 -11 5.5 -27t-5.5 -35l5 -12q3 -9 -1.5 -14t-10.5 -4q2 -34 11.5 -66.5t20.5 -64.5l28 11q14 5 19 -6t-7 -19l-30 -12l4 -9q10 -26 20 -50t18 -47q6 -18 15.5 -40t17 -45t10.5 -45.5t-3 -42.5q-8 -26 -36.5 -41t-69.5 -20t-89.5 -1t-96 16.5t-89.5 32.5t-70 47
q-20 19 -18 37.5t15.5 36t34.5 33.5t40 28q57 36 117 63.5t122 53.5q-9 26 -18 53.5t-16 53.5q-11 -21 -24.5 -40.5t-27.5 -33t-27.5 -19.5t-25.5 0q-25 12 -33.5 32.5t-4.5 44t17.5 47t32.5 41.5t42 27t46 3l6 32q1 7 9 11.5t17 5.5t17.5 -2.5t12.5 -12.5v-1zM380 118
q-7 17 -16.5 42.5t-20.5 55.5q-34 -13 -70.5 -29.5t-71 -35t-64.5 -38t-49.5 -38t-26 -36t4.5 -31.5t39 -28.5t64.5 -27t77 -20.5t76 -8.5t61.5 9t35 31.5q4 12 0 34t-11.5 45.5t-16 44t-11.5 30.5zM291 403q-1 5 -1 8.5v8.5q-17 -5 -35 -20.5t-30 -35t-14.5 -40t12.5 -35.5
q14 11 25.5 29t16.5 25q8 15 14.5 29.5t11.5 30.5zM245 531q-4 -5 -10.5 -6t-12.5 1t-10 6.5t-2 10.5q13 36 23.5 56t21.5 22t24.5 -15t31.5 -55q5 -14 -6.5 -17.5t-19.5 7.5q-6 14 -10.5 26.5t-8.5 13.5q-2 -1 -6.5 -11t-14.5 -39z" />
    <glyph glyph-name="Gdotaccent" unicode="&#x120;" horiz-adv-x="488" 
d="M357 484q6 -11 5.5 -27t-5.5 -35l5 -12q3 -9 -1.5 -14t-10.5 -4q2 -34 11.5 -66.5t20.5 -64.5l28 11q14 5 19 -6t-7 -19l-30 -12l4 -9q10 -26 20 -50t18 -47q6 -18 15.5 -40t17 -45t10.5 -45.5t-3 -42.5q-8 -26 -36.5 -41t-69.5 -20t-89.5 -1t-96 16.5t-89.5 32.5t-70 47
q-20 19 -18 37.5t15.5 36t34.5 33.5t40 28q57 36 117 63.5t122 53.5q-9 26 -18 53.5t-16 53.5q-11 -21 -24.5 -40.5t-27.5 -33t-27.5 -19.5t-25.5 0q-25 12 -33.5 32.5t-4.5 44t17.5 47t32.5 41.5t42 27t46 3l6 32q1 7 9 11.5t17 5.5t17.5 -2.5t12.5 -12.5v-1zM380 118
q-7 17 -16.5 42.5t-20.5 55.5q-34 -13 -70.5 -29.5t-71 -35t-64.5 -38t-49.5 -38t-26 -36t4.5 -31.5t39 -28.5t64.5 -27t77 -20.5t76 -8.5t61.5 9t35 31.5q4 12 0 34t-11.5 45.5t-16 44t-11.5 30.5zM291 403q-1 5 -1 8.5v8.5q-17 -5 -35 -20.5t-30 -35t-14.5 -40t12.5 -35.5
q14 11 25.5 29t16.5 25q8 15 14.5 29.5t11.5 30.5zM243 551q-3 9 2.5 18t16.5 11q9 0 16 -7.5t2 -18.5q-7 -10 -18 -12.5t-19 9.5z" />
    <glyph glyph-name="commaaccent" horiz-adv-x="86" 
d="M31 -102q5 6 9.5 17t-3.5 18q-14 4 -16 11t0 13q2 7 8.5 11.5t14.5 4t14.5 -6t8.5 -17.5q3 -19 -5 -35.5t-16 -25.5q-5 -6 -12.5 -3t-2.5 13z" />
    <glyph glyph-name="undercommaaccent" horiz-adv-x="86" 
d="M31 -102q5 6 9.5 17t-3.5 18q-14 4 -16 11t0 13q2 7 8.5 11.5t14.5 4t14.5 -6t8.5 -17.5q3 -19 -5 -35.5t-16 -25.5q-5 -6 -12.5 -3t-2.5 13z" />
    <glyph glyph-name="Gcommaaccent" unicode="&#x122;" horiz-adv-x="488" 
d="M357 484q6 -11 5.5 -27t-5.5 -35l5 -12q3 -9 -1.5 -14t-10.5 -4q2 -34 11.5 -66.5t20.5 -64.5l28 11q14 5 19 -6t-7 -19l-30 -12l4 -9q10 -26 20 -50t18 -47q6 -18 15.5 -40t17 -45t10.5 -45.5t-3 -42.5q-8 -26 -36.5 -41t-69.5 -20t-89.5 -1t-96 16.5t-89.5 32.5t-70 47
q-20 19 -18 37.5t15.5 36t34.5 33.5t40 28q57 36 117 63.5t122 53.5q-9 26 -18 53.5t-16 53.5q-11 -21 -24.5 -40.5t-27.5 -33t-27.5 -19.5t-25.5 0q-25 12 -33.5 32.5t-4.5 44t17.5 47t32.5 41.5t42 27t46 3l6 32q1 7 9 11.5t17 5.5t17.5 -2.5t12.5 -12.5v-1zM380 118
q-7 17 -16.5 42.5t-20.5 55.5q-34 -13 -70.5 -29.5t-71 -35t-64.5 -38t-49.5 -38t-26 -36t4.5 -31.5t39 -28.5t64.5 -27t77 -20.5t76 -8.5t61.5 9t35 31.5q4 12 0 34t-11.5 45.5t-16 44t-11.5 30.5zM291 403q-1 5 -1 8.5v8.5q-17 -5 -35 -20.5t-30 -35t-14.5 -40t12.5 -35.5
q14 11 25.5 29t16.5 25q8 15 14.5 29.5t11.5 30.5zM256.984 575.965q-5 -6 -9.49902 -16.999q-4.5 -10.999 3.49902 -17.999q13.999 -4 15.999 -10.999q2 -7 0 -12.999q-2 -7 -8.49902 -11.5q-6.5 -4.49902 -14.499 -3.99902q-8 0.5 -14.499 5.99902q-6.5 5.5 -8.5 17.499
q-3 18.999 5 35.498q7.99902 16.499 15.999 25.498q5 6 12.499 3q7.5 -3 2.5 -12.999z" />
    <glyph glyph-name="Hbar" unicode="&#x126;" horiz-adv-x="407" 
d="M22 284q-7 0 -10 5.5t-2.5 11.5t4 11t10.5 6l44 2q-1 44 -1.5 86.5t-0.5 88.5q1 7 9.5 10.5t18 3.5t18 -3t10.5 -9q0 -46 0.5 -88.5t1.5 -86.5l159 7q-3 72 -3 145q1 7 9.5 10.5t18 3.5t18 -3t10.5 -9q0 -74 3 -144l47 2q12 -5 12 -15t-14 -13h-11t-33 -2l2 -27
q7 1 13 1.5t13 0.5q11 -5 11 -15t-13 -13q-5 0 -10.5 -1t-10.5 -1q3 -30 7.5 -64t9.5 -66t10.5 -61.5t10.5 -50.5q0 -6 -6 -10t-14 -4.5t-15.5 1.5t-10.5 7q-20 61 -31 121t-17 122q-38 -2 -77.5 -5.5t-84.5 -6.5q2 -58 2.5 -116.5t1.5 -116.5q-1 -7 -9.5 -11t-19 -4.5
t-19 3t-8.5 10.5q-1 59 -1.5 116.5t-2.5 115.5q-8 0 -15.5 -0.5t-14.5 -0.5q-8 0 -11 5.5t-2.5 11.5t4.5 11t11 6h13t14 1q0 6 -0.5 12t-0.5 12zM284 301l-159 -10q0 -7 0.5 -13t0.5 -13q24 1 41.5 1.5t34.5 1.5t36 1.5t48 2.5z" />
    <glyph glyph-name="Hcircumflex" unicode="&#x124;" horiz-adv-x="379" 
d="M32 228q-8 0 -11 5.5t-2.5 11.5t4.5 11t11 6h12.5t14.5 1q-2 60 -3 116t-1 116q1 7 9.5 10.5t18 3.5t18 -3t10.5 -9q0 -60 1 -116t3 -116q24 1 41.5 1.5t34.5 1.5t36 1.5t48 2.5q-4 50 -5 100.5t-1 101.5q1 7 9 10.5t17.5 3.5t18 -3t10.5 -9q0 -51 1.5 -100.5t5.5 -98.5
q6 1 12.5 1h12.5q12 -5 12 -15t-14 -13q-5 0 -10 -0.5t-10 -0.5q3 -30 7.5 -64t9.5 -66t10.5 -61.5t10.5 -50.5q-1 -6 -7 -10t-13.5 -4.5t-15 1.5t-11.5 7q-20 61 -31 121t-16 122q-38 -2 -77.5 -5.5t-84.5 -6.5l3 -233q-1 -7 -9.5 -11t-18.5 -4.5t-18.5 3t-9.5 10.5l-3 232
q-8 0 -15.5 -0.5t-14.5 -0.5zM172 531q-4 -5 -10.5 -6t-12.5 1t-10 6.5t-2 10.5q13 36 23.5 56t21.5 22t24.5 -15t31.5 -55q5 -14 -6.5 -17.5t-19.5 7.5q-6 14 -10.5 26.5t-8.5 13.5q-2 -1 -6.5 -11t-14.5 -39z" />
    <glyph glyph-name="Iacute" unicode="&#xcd;" horiz-adv-x="171" 
d="M54 465q1 6 9.5 9t18 2.5t18 -3.5t10.5 -9q1 -112 4.5 -221.5t4.5 -221.5q0 -7 -8.5 -10t-19 -3t-19 3.5t-9.5 10.5q-1 112 -4.5 221.5t-4.5 221.5zM103 634q6 5 13.5 4t13 -4.5t8 -9.5t-2.5 -12q-19 -20 -40.5 -41.5t-38.5 -44.5q-5 -5 -10.5 -5.5t-10 2.5t-6 8t2.5 11
q19 23 35 47t36 45z" />
    <glyph glyph-name="Ibreve" unicode="&#x12c;" horiz-adv-x="171" 
d="M54 465q1 6 9.5 9t18 2.5t18 -3.5t10.5 -9q1 -112 4.5 -221.5t4.5 -221.5q0 -7 -8.5 -10t-19 -3t-19 3.5t-9.5 10.5q-1 112 -4.5 221.5t-4.5 221.5zM26 598q-1 7 5.5 13.5t14.5 9.5t16 2t10 -8q4 -14 10 -25t12.5 -14t12 4t8.5 29q1 7 6 10.5t10 3t8.5 -5t2.5 -11.5
q-5 -34 -21 -49t-35 -14.5t-36 15.5t-24 40z" />
    <glyph glyph-name="Icircumflex" unicode="&#xce;" horiz-adv-x="171" 
d="M54 465q1 6 9.5 9t18 2.5t18 -3.5t10.5 -9q1 -112 4.5 -221.5t4.5 -221.5q0 -7 -8.5 -10t-19 -3t-19 3.5t-9.5 10.5q-1 112 -4.5 221.5t-4.5 221.5zM68 531q-4 -5 -10.5 -6t-12.5 1t-10 6.5t-2 10.5q13 36 23.5 56t21.5 22t24.5 -15t31.5 -55q5 -14 -6.5 -17.5t-19.5 7.5
q-6 14 -10.5 26.5t-8.5 13.5q-2 -1 -6.5 -11t-14.5 -39z" />
    <glyph glyph-name="Idieresis" unicode="&#xcf;" horiz-adv-x="171" 
d="M54 465q1 6 9.5 9t18 2.5t18 -3.5t10.5 -9q1 -112 4.5 -221.5t4.5 -221.5q0 -7 -8.5 -10t-19 -3t-19 3.5t-9.5 10.5q-1 112 -4.5 221.5t-4.5 221.5zM28 545q-3 9 2.5 18t16.5 11q9 0 16 -7.5t2 -18.5q-7 -9 -18 -12t-19 9zM108 550q-5 6 -2 12.5t9 10t14 2.5t13 -11
q1 -6 -2 -11.5t-8.5 -8.5t-12 -2.5t-11.5 8.5z" />
    <glyph glyph-name="Idotaccent" unicode="&#x130;" horiz-adv-x="171" 
d="M54 465q1 6 9.5 9t18 2.5t18 -3.5t10.5 -9q1 -112 4.5 -221.5t4.5 -221.5q0 -7 -8.5 -10t-19 -3t-19 3.5t-9.5 10.5q-1 112 -4.5 221.5t-4.5 221.5zM65 560q-3 9 2.5 18t16.5 11q9 0 16 -7.5t2 -18.5q-7 -10 -18 -12.5t-19 9.5z" />
    <glyph glyph-name="Igrave" unicode="&#xcc;" horiz-adv-x="171" 
d="M54 465q1 6 9.5 9t18 2.5t18 -3.5t10.5 -9q1 -112 4.5 -221.5t4.5 -221.5q0 -7 -8.5 -10t-19 -3t-19 3.5t-9.5 10.5q-1 112 -4.5 221.5t-4.5 221.5zM45 587q-5 5 -3.5 11t7 10t12 4.5t12.5 -3.5q16 -14 27 -29.5t24 -29.5q5 -5 4 -10.5t-4.5 -8.5t-9.5 -3.5t-11 4.5
q-12 12 -27.5 26.5t-30.5 28.5z" />
    <glyph glyph-name="Imacron" unicode="&#x12a;" horiz-adv-x="171" 
d="M54 465q1 6 9.5 9t18 2.5t18 -3.5t10.5 -9q1 -112 4.5 -221.5t4.5 -221.5q0 -7 -8.5 -10t-19 -3t-19 3.5t-9.5 10.5q-1 112 -4.5 221.5t-4.5 221.5zM28 550q-8 0 -11 5.5t-2.5 11.5t4.5 11t11 6q29 1 58 0.5t58 0.5q12 -5 12 -15t-14 -13q-29 -1 -58 -4t-58 -3z" />
    <glyph glyph-name="Iogonek" unicode="&#x12e;" horiz-adv-x="171" 
d="M91 47q7 2 13 -2t9 -10.5t2.5 -14t-6.5 -11.5q-7 -6 -15 -17t-10.5 -21.5t5.5 -16.5t32 0q13 1 15.5 -9t-7.5 -17q-39 -11 -59.5 0t-24.5 32t7.5 46t38.5 41zM54 465q1 6 9.5 9t18 2.5t18 -3.5t10.5 -9q1 -112 4.5 -221.5t4.5 -221.5q0 -7 -8.5 -10t-19 -3t-19 3.5
t-9.5 10.5q-1 112 -4.5 221.5t-4.5 221.5z" />
    <glyph glyph-name="Itilde" unicode="&#x128;" horiz-adv-x="171" 
d="M54 465q1 6 9.5 9t18 2.5t18 -3.5t10.5 -9q1 -112 4.5 -221.5t4.5 -221.5q0 -7 -8.5 -10t-19 -3t-19 3.5t-9.5 10.5q-1 112 -4.5 221.5t-4.5 221.5zM55 549q-8 -10 -18 -5.5t-7 17.5q11 26 22.5 34t22.5 5t21 -13t18 -21q8 11 12 13.5t7 1.5q5 -2 7.5 -8.5t-1.5 -14.5
q-7 -15 -16 -19.5t-19 -1.5t-19.5 11t-18.5 17q-5 -4 -7 -7.5t-4 -8.5z" />
    <glyph glyph-name="Jcircumflex" unicode="&#x134;" horiz-adv-x="340" 
d="M189 477q1 10 9 13.5t18 3t18.5 -4.5t10.5 -10q7 -68 15 -130t23 -136q9 2 17 3.5t14 3.5q13 1 15.5 -9.5t-7.5 -16.5l-34 -8q4 -26 8 -55t3 -55.5t-7 -47.5t-21 -29q-21 -12 -50.5 -11.5t-59.5 7t-58 18t-47 22.5q-7 4 -16.5 11t-17 16t-11.5 19t0 21q8 20 30.5 35.5
t53.5 27t66 20t67 15.5q-8 43 -13.5 79t-10.5 68t-8.5 61.5t-6.5 61.5v7zM49 94q0 -14 15.5 -27.5t38.5 -24t50.5 -17.5t50.5 -7q15 4 25 11.5t12 21.5q2 29 -0.5 60t-7.5 63q-29 -7 -60 -15t-57 -18t-44.5 -21.5t-22.5 -25.5zM186 531q-4 -5 -10.5 -6t-12.5 1t-10 6.5
t-2 10.5q13 36 23.5 56t21.5 22t24.5 -15t31.5 -55q5 -14 -6.5 -17.5t-19.5 7.5q-6 14 -10.5 26.5t-8.5 13.5q-2 -1 -6.5 -11t-14.5 -39z" />
    <glyph glyph-name="Kcommaaccent" unicode="&#x136;" horiz-adv-x="419" 
d="M257 415q-10 8 -9.5 15.5t6.5 11t15 1t15 -14.5q4 -23 -10 -51t-37.5 -57.5t-53 -58t-55.5 -52.5q43 4 88.5 -3.5t84.5 -29t66 -57t33 -85.5q-2 -14 -11 -16t-17 9q-8 46 -33.5 77t-62 46.5t-80 16t-86.5 -13.5q2 -35 4.5 -74t3.5 -72q-1 -6 -9 -11.5t-18 -7t-19 1.5
t-10 14v2q-1 37 -3 64t-4 64q-6 0 -9.5 7.5t-3.5 17t2.5 20t8.5 18.5q-2 40 -5 77t-5.5 74t-4.5 74t-3 78q2 10 10 14t18 3.5t18 -5t10 -10.5q1 -65 5 -129t9 -129q18 15 41.5 34.5t46 41.5t40.5 46.5t24 48.5zM231 -79q5 6 9.5 17t-3.5 18q-14 4 -16 11t0 13q2 7 8.5 11.5
t14.5 4t14.5 -6t8.5 -17.5q3 -19 -5 -35.5t-16 -25.5q-5 -6 -12.5 -3t-2.5 13z" />
    <glyph glyph-name="Lacute" unicode="&#x139;" horiz-adv-x="307" 
d="M43 464q-1 7 7 11.5t18 5.5t19 -1.5t12 -9.5q8 -68 8 -136t-1 -125.5t0.5 -98.5t13.5 -55q13 -7 35 -3t45.5 12.5t44.5 17.5t32 13q14 5 19.5 -6t-7.5 -19q-24 -9 -49.5 -20t-51.5 -20t-53 -12.5t-54 2.5q-16 3 -23.5 23t-10.5 44t-3 46.5v31.5q1 40 2 84t1.5 84.5
t-0.5 74.5t-4 56zM92 622q6 5 13.5 4t13 -4.5t8 -9.5t-2.5 -12q-19 -20 -40.5 -41.5t-38.5 -44.5q-5 -5 -10.5 -5.5t-10 2.5t-6 8t2.5 11q19 23 35 47t36 45z" />
    <glyph glyph-name="Lcaron" unicode="&#x13d;" horiz-adv-x="307" 
d="M43 464q-1 7 7 11.5t18 5.5t19 -1.5t12 -9.5q8 -68 8 -136t-1 -125.5t0.5 -98.5t13.5 -55q13 -7 35 -3t45.5 12.5t44.5 17.5t32 13q14 5 19.5 -6t-7.5 -19q-24 -9 -49.5 -20t-51.5 -20t-53 -12.5t-54 2.5q-16 3 -23.5 23t-10.5 44t-3 46.5v31.5q1 40 2 84t1.5 84.5
t-0.5 74.5t-4 56zM3 584q-3 7 1 14t11.5 10.5t15 3.5t11.5 -6t7.5 -14.5t7 -15.5t7 -11.5t6.5 -4.5q2 1 6.5 15t6.5 33q4 14 14.5 13.5t13.5 -13.5q-1 -7 -4 -20t-7.5 -27t-10 -26.5t-11.5 -18.5q-5 -6 -14.5 -4t-18.5 10q-12 13 -23 30.5t-19 31.5z" />
    <glyph glyph-name="Lcommaaccent" unicode="&#x13b;" horiz-adv-x="307" 
d="M43 464q-1 7 7 11.5t18 5.5t19 -1.5t12 -9.5q8 -68 8 -136t-1 -125.5t0.5 -98.5t13.5 -55q13 -7 35 -3t45.5 12.5t44.5 17.5t32 13q14 5 19.5 -6t-7.5 -19q-24 -9 -49.5 -20t-51.5 -20t-53 -12.5t-54 2.5q-16 3 -23.5 23t-10.5 44t-3 46.5v31.5q1 40 2 84t1.5 84.5
t-0.5 74.5t-4 56zM179 -82q5 6 9.5 17t-3.5 18q-14 4 -16 11t0 13q2 7 8.5 11.5t14.5 4t14.5 -6t8.5 -17.5q3 -19 -5 -35.5t-16 -25.5q-5 -6 -12.5 -3t-2.5 13z" />
    <glyph glyph-name="Ldot" unicode="&#x13f;" horiz-adv-x="307" 
d="M43 464q-1 7 7 11.5t18 5.5t19 -1.5t12 -9.5q8 -68 8 -136t-1 -125.5t0.5 -98.5t13.5 -55q13 -7 35 -3t45.5 12.5t44.5 17.5t32 13q14 5 19.5 -6t-7.5 -19q-24 -9 -49.5 -20t-51.5 -20t-53 -12.5t-54 2.5q-16 3 -23.5 23t-10.5 44t-3 46.5v31.5q1 40 2 84t1.5 84.5
t-0.5 74.5t-4 56zM173 307q13 -7 14.5 -14t-3 -12t-12 -7t-12.5 1q-7 4 -8.5 11t0.5 13t7.5 9t13.5 -1z" />
    <glyph glyph-name="Lslash" unicode="&#x141;" horiz-adv-x="326" 
d="M62 464q0 7 7.5 11.5t17.5 5.5t19.5 -1.5t11.5 -9.5q7 -60 8 -118.5t0 -112.5q13 9 24 17t19 15q6 5 11.5 4.5t8.5 -4.5t3 -10t-6 -11l-61 -48q-1 -56 1 -94.5t14 -52.5q13 -7 35 -3t45.5 12.5t44.5 17.5t32 13q14 5 19.5 -6t-7.5 -19q-24 -9 -49.5 -20t-52 -20
t-53 -12.5t-53.5 2.5q-15 3 -22.5 20t-11.5 38.5t-4 43v33.5l-30 -21q-7 -3 -12.5 0t-8.5 9t-2.5 12.5t5.5 10.5q9 6 21.5 13.5t26.5 17.5q1 38 2.5 77t1.5 74.5t-1 65.5t-4 50z" />
    <glyph glyph-name="Nacute" unicode="&#x143;" horiz-adv-x="403" 
d="M69 10q-1 2 -4.5 25.5t-7 60t-7.5 81.5t-7 90t-4.5 86t-0.5 69q0 8 7 13t16.5 7t19.5 0.5t16 -5.5q7 -2 24.5 -27.5t40.5 -62.5t48.5 -80t48 -79.5t38.5 -61t21 -25.5q-6 49 -14.5 107t-13.5 116.5t-2.5 112t17.5 94.5q4 12 11 16t12.5 2t8 -9.5t-0.5 -19.5
q-11 -30 -12.5 -70t2.5 -84.5t12 -92t16.5 -93.5t16 -88t11.5 -76q0 -6 -5 -11.5t-12.5 -9.5t-15 -4.5t-11.5 4.5q-39 42 -71.5 85.5t-61.5 88t-57.5 90.5t-59.5 95q-2 -16 -0.5 -58t3.5 -92.5t4 -102t2 -85.5q-4 -13 -13 -15t-15 9zM200 606q6 5 13.5 4t13 -4.5t8 -9.5
t-2.5 -12q-19 -20 -40.5 -41.5t-38.5 -44.5q-5 -5 -10.5 -5.5t-10 2.5t-6 8t2.5 11q19 23 35 47t36 45z" />
    <glyph glyph-name="Ncaron" unicode="&#x147;" horiz-adv-x="403" 
d="M69 10q-1 2 -4.5 25.5t-7 60t-7.5 81.5t-7 90t-4.5 86t-0.5 69q0 8 7 13t16.5 7t19.5 0.5t16 -5.5q7 -2 24.5 -27.5t40.5 -62.5t48.5 -80t48 -79.5t38.5 -61t21 -25.5q-6 49 -14.5 107t-13.5 116.5t-2.5 112t17.5 94.5q4 12 11 16t12.5 2t8 -9.5t-0.5 -19.5
q-11 -30 -12.5 -70t2.5 -84.5t12 -92t16.5 -93.5t16 -88t11.5 -76q0 -6 -5 -11.5t-12.5 -9.5t-15 -4.5t-11.5 4.5q-39 42 -71.5 85.5t-61.5 88t-57.5 90.5t-59.5 95q-2 -16 -0.5 -58t3.5 -92.5t4 -102t2 -85.5q-4 -13 -13 -15t-15 9zM120 564q-3 7 1 14t11.5 10.5t15 3.5
t11.5 -6t7.5 -14.5t7 -15.5t7 -11.5t6.5 -4.5q2 1 6.5 15t6.5 33q4 14 14.5 13.5t13.5 -13.5q-1 -7 -4 -20t-7.5 -27t-10 -26.5t-11.5 -18.5q-5 -6 -14.5 -4t-18.5 10q-12 13 -23 30.5t-19 31.5z" />
    <glyph glyph-name="Ncommaaccent" unicode="&#x145;" horiz-adv-x="403" 
d="M69 10q-1 2 -4.5 25.5t-7 60t-7.5 81.5t-7 90t-4.5 86t-0.5 69q0 8 7 13t16.5 7t19.5 0.5t16 -5.5q7 -2 24.5 -27.5t40.5 -62.5t48.5 -80t48 -79.5t38.5 -61t21 -25.5q-6 49 -14.5 107t-13.5 116.5t-2.5 112t17.5 94.5q4 12 11 16t12.5 2t8 -9.5t-0.5 -19.5
q-11 -30 -12.5 -70t2.5 -84.5t12 -92t16.5 -93.5t16 -88t11.5 -76q0 -6 -5 -11.5t-12.5 -9.5t-15 -4.5t-11.5 4.5q-39 42 -71.5 85.5t-61.5 88t-57.5 90.5t-59.5 95q-2 -16 -0.5 -58t3.5 -92.5t4 -102t2 -85.5q-4 -13 -13 -15t-15 9zM197 -93q5 6 9.5 17t-3.5 18
q-14 4 -16 11t0 13q2 7 8.5 11.5t14.5 4t14.5 -6t8.5 -17.5q3 -19 -5 -35.5t-16 -25.5q-5 -6 -12.5 -3t-2.5 13z" />
    <glyph glyph-name="Ntilde" unicode="&#xd1;" horiz-adv-x="403" 
d="M69 10q-1 2 -4.5 25.5t-7 60t-7.5 81.5t-7 90t-4.5 86t-0.5 69q0 8 7 13t16.5 7t19.5 0.5t16 -5.5q7 -2 24.5 -27.5t40.5 -62.5t48.5 -80t48 -79.5t38.5 -61t21 -25.5q-6 49 -14.5 107t-13.5 116.5t-2.5 112t17.5 94.5q4 12 11 16t12.5 2t8 -9.5t-0.5 -19.5
q-11 -30 -12.5 -70t2.5 -84.5t12 -92t16.5 -93.5t16 -88t11.5 -76q0 -6 -5 -11.5t-12.5 -9.5t-15 -4.5t-11.5 4.5q-39 42 -71.5 85.5t-61.5 88t-57.5 90.5t-59.5 95q-2 -16 -0.5 -58t3.5 -92.5t4 -102t2 -85.5q-4 -13 -13 -15t-15 9zM149 510q-8 -10 -18 -5.5t-7 17.5
q11 26 22.5 34t22.5 5t21 -13t18 -21q8 11 12 13.5t7 1.5q5 -2 7.5 -8.5t-1.5 -14.5q-7 -15 -16 -19.5t-19 -1.5t-19.5 11t-18.5 17q-5 -4 -7 -7.5t-4 -8.5z" />
    <glyph glyph-name="Oacute" unicode="&#xd3;" horiz-adv-x="399" 
d="M359 240q2 -50 -11.5 -89t-36.5 -66.5t-52 -43.5t-58 -19q-28 -3 -55 5.5t-49.5 30.5t-38 57.5t-19.5 85.5q-3 34 0.5 68.5t12 66t22 57.5t31.5 44h-4q-8 1 -11 5t-2.5 9t4.5 9.5t11 4.5q42 -2 86.5 -17.5t81.5 -44t61.5 -69.5t26.5 -94zM319 232q-3 31 -15 61.5
t-33 56.5t-49.5 46.5t-62.5 31.5q-24 -16 -38.5 -49t-19.5 -73t-2 -83t14.5 -80t30.5 -62.5t45 -30.5q33 9 58 28.5t42 45t24.5 54t5.5 54.5zM180 606q6 5 13.5 4t13 -4.5t8 -9.5t-2.5 -12q-19 -20 -40.5 -41.5t-38.5 -44.5q-5 -5 -10.5 -5.5t-10 2.5t-6 8t2.5 11
q19 23 35 47t36 45z" />
    <glyph glyph-name="Obreve" unicode="&#x14e;" horiz-adv-x="399" 
d="M359 240q2 -50 -11.5 -89t-36.5 -66.5t-52 -43.5t-58 -19q-28 -3 -55 5.5t-49.5 30.5t-38 57.5t-19.5 85.5q-3 34 0.5 68.5t12 66t22 57.5t31.5 44h-4q-8 1 -11 5t-2.5 9t4.5 9.5t11 4.5q42 -2 86.5 -17.5t81.5 -44t61.5 -69.5t26.5 -94zM319 232q-3 31 -15 61.5
t-33 56.5t-49.5 46.5t-62.5 31.5q-24 -16 -38.5 -49t-19.5 -73t-2 -83t14.5 -80t30.5 -62.5t45 -30.5q33 9 58 28.5t42 45t24.5 54t5.5 54.5zM113 561q-1 7 5.5 13.5t14.5 9.5t16 2t10 -8q4 -14 10 -25t12.5 -14t12 4t8.5 29q1 7 6 10.5t10 3t8.5 -5t2.5 -11.5
q-5 -34 -21 -49t-35 -14.5t-36 15.5t-24 40z" />
    <glyph glyph-name="Ocircumflex" unicode="&#xd4;" horiz-adv-x="399" 
d="M359 240q2 -50 -11.5 -89t-36.5 -66.5t-52 -43.5t-58 -19q-28 -3 -55 5.5t-49.5 30.5t-38 57.5t-19.5 85.5q-3 34 0.5 68.5t12 66t22 57.5t31.5 44h-4q-8 1 -11 5t-2.5 9t4.5 9.5t11 4.5q42 -2 86.5 -17.5t81.5 -44t61.5 -69.5t26.5 -94zM319 232q-3 31 -15 61.5
t-33 56.5t-49.5 46.5t-62.5 31.5q-24 -16 -38.5 -49t-19.5 -73t-2 -83t14.5 -80t30.5 -62.5t45 -30.5q33 9 58 28.5t42 45t24.5 54t5.5 54.5zM164 503q-4 -5 -10.5 -6t-12.5 1t-10 6.5t-2 10.5q13 36 23.5 56t21.5 22t24.5 -15t31.5 -55q5 -14 -6.5 -17.5t-19.5 7.5
q-6 14 -10.5 26.5t-8.5 13.5q-2 -1 -6.5 -11t-14.5 -39z" />
    <glyph glyph-name="Odieresis" unicode="&#xd6;" horiz-adv-x="399" 
d="M359 240q2 -50 -11.5 -89t-36.5 -66.5t-52 -43.5t-58 -19q-28 -3 -55 5.5t-49.5 30.5t-38 57.5t-19.5 85.5q-3 34 0.5 68.5t12 66t22 57.5t31.5 44h-4q-8 1 -11 5t-2.5 9t4.5 9.5t11 4.5q42 -2 86.5 -17.5t81.5 -44t61.5 -69.5t26.5 -94zM319 232q-3 31 -15 61.5
t-33 56.5t-49.5 46.5t-62.5 31.5q-24 -16 -38.5 -49t-19.5 -73t-2 -83t14.5 -80t30.5 -62.5t45 -30.5q33 9 58 28.5t42 45t24.5 54t5.5 54.5zM119 526q-3 9 2.5 18t16.5 11q9 0 16 -7.5t2 -18.5q-7 -9 -18 -12t-19 9zM199 531q-5 6 -2 12.5t9 10t14 2.5t13 -11
q1 -6 -2 -11.5t-8.5 -8.5t-12 -2.5t-11.5 8.5z" />
    <glyph glyph-name="Ograve" unicode="&#xd2;" horiz-adv-x="399" 
d="M359 240q2 -50 -11.5 -89t-36.5 -66.5t-52 -43.5t-58 -19q-28 -3 -55 5.5t-49.5 30.5t-38 57.5t-19.5 85.5q-3 34 0.5 68.5t12 66t22 57.5t31.5 44h-4q-8 1 -11 5t-2.5 9t4.5 9.5t11 4.5q42 -2 86.5 -17.5t81.5 -44t61.5 -69.5t26.5 -94zM319 232q-3 31 -15 61.5
t-33 56.5t-49.5 46.5t-62.5 31.5q-24 -16 -38.5 -49t-19.5 -73t-2 -83t14.5 -80t30.5 -62.5t45 -30.5q33 9 58 28.5t42 45t24.5 54t5.5 54.5zM141 554q-5 5 -3.5 11t7 10t12 4.5t12.5 -3.5q16 -14 27 -29.5t24 -29.5q5 -5 4 -10.5t-4.5 -8.5t-9.5 -3.5t-11 4.5
q-12 12 -27.5 26.5t-30.5 28.5z" />
    <glyph glyph-name="Ohungarumlaut" unicode="&#x150;" horiz-adv-x="399" 
d="M359 240q2 -50 -11.5 -89t-36.5 -66.5t-52 -43.5t-58 -19q-28 -3 -55 5.5t-49.5 30.5t-38 57.5t-19.5 85.5q-3 34 0.5 68.5t12 66t22 57.5t31.5 44h-4q-8 1 -11 5t-2.5 9t4.5 9.5t11 4.5q42 -2 86.5 -17.5t81.5 -44t61.5 -69.5t26.5 -94zM319 232q-3 31 -15 61.5
t-33 56.5t-49.5 46.5t-62.5 31.5q-24 -16 -38.5 -49t-19.5 -73t-2 -83t14.5 -80t30.5 -62.5t45 -30.5q33 9 58 28.5t42 45t24.5 54t5.5 54.5zM210 586q2 7 7.5 9.5t11 2t10 -4t4.5 -9.5q0 -5 -2.5 -15.5t-6.5 -23t-8.5 -25t-7.5 -20.5q-5 -12 -15.5 -10t-11.5 14
q8 28 12.5 50t6.5 32zM160 589q7 11 19.5 8.5t10.5 -16.5q-6 -21 -13 -43t-13 -38q-5 -12 -15.5 -10t-11.5 14q5 18 11.5 43t11.5 42z" />
    <glyph glyph-name="Omacron" unicode="&#x14c;" horiz-adv-x="399" 
d="M359 240q2 -50 -11.5 -89t-36.5 -66.5t-52 -43.5t-58 -19q-28 -3 -55 5.5t-49.5 30.5t-38 57.5t-19.5 85.5q-3 34 0.5 68.5t12 66t22 57.5t31.5 44h-4q-8 1 -11 5t-2.5 9t4.5 9.5t11 4.5q42 -2 86.5 -17.5t81.5 -44t61.5 -69.5t26.5 -94zM319 232q-3 31 -15 61.5
t-33 56.5t-49.5 46.5t-62.5 31.5q-24 -16 -38.5 -49t-19.5 -73t-2 -83t14.5 -80t30.5 -62.5t45 -30.5q33 9 58 28.5t42 45t24.5 54t5.5 54.5zM123 513q-8 0 -11 5.5t-2.5 11.5t4.5 11t11 6q29 1 58 0.5t58 0.5q12 -5 12 -15t-14 -13q-29 -1 -58 -4t-58 -3z" />
    <glyph glyph-name="Oslash" unicode="&#xd8;" horiz-adv-x="399" 
d="M359 240q2 -50 -11.5 -89t-36.5 -66.5t-52 -43.5t-58 -19q-28 -3 -55 5.5t-49.5 30.5t-38 57.5t-19.5 85.5q-3 34 0.5 68.5t12 66t22 57.5t31.5 44h-4q-8 1 -11 5t-2.5 9t4.5 9.5t11 4.5q42 -2 86.5 -17.5t81.5 -44t61.5 -69.5t26.5 -94zM319 232q-3 31 -15 61.5
t-33 56.5t-49.5 46.5t-62.5 31.5q-24 -16 -38.5 -49t-19.5 -73t-2 -83t14.5 -80t30.5 -62.5t45 -30.5q33 9 58 28.5t42 45t24.5 54t5.5 54.5zM231 519q2 9 7 12t10.5 2t10 -5.5t4.5 -11.5q-19 -158 -38 -299.5t-48 -272.5q-2 -9 -8.5 -12.5t-13.5 -2.5t-11 7t-2 15
q14 63 25.5 133t22 143.5t20.5 147.5t21 144z" />
    <glyph glyph-name="Oslashacute" unicode="&#x1fe;" horiz-adv-x="399" 
d="M359 240q2 -50 -11.5 -89t-36.5 -66.5t-52 -43.5t-58 -19q-28 -3 -55 5.5t-49.5 30.5t-38 57.5t-19.5 85.5q-3 34 0.5 68.5t12 66t22 57.5t31.5 44h-4q-8 1 -11 5t-2.5 9t4.5 9.5t11 4.5q42 -2 86.5 -17.5t81.5 -44t61.5 -69.5t26.5 -94zM319 232q-3 31 -15 61.5
t-33 56.5t-49.5 46.5t-62.5 31.5q-24 -16 -38.5 -49t-19.5 -73t-2 -83t14.5 -80t30.5 -62.5t45 -30.5q33 9 58 28.5t42 45t24.5 54t5.5 54.5zM231 519q2 9 7 12t10.5 2t10 -5.5t4.5 -11.5q-19 -158 -38 -299.5t-48 -272.5q-2 -9 -8.5 -12.5t-13.5 -2.5t-11 7t-2 15
q14 63 25.5 133t22 143.5t20.5 147.5t21 144zM198 615q6 5 13.5 4t13 -4.5t8 -9.5t-2.5 -12q-19 -20 -40.5 -41.5t-38.5 -44.5q-5 -5 -10.5 -5.5t-10 2.5t-6 8t2.5 11q19 23 35 47t36 45z" />
    <glyph glyph-name="Otilde" unicode="&#xd5;" horiz-adv-x="399" 
d="M359 240q2 -50 -11.5 -89t-36.5 -66.5t-52 -43.5t-58 -19q-28 -3 -55 5.5t-49.5 30.5t-38 57.5t-19.5 85.5q-3 34 0.5 68.5t12 66t22 57.5t31.5 44h-4q-8 1 -11 5t-2.5 9t4.5 9.5t11 4.5q42 -2 86.5 -17.5t81.5 -44t61.5 -69.5t26.5 -94zM319 232q-3 31 -15 61.5
t-33 56.5t-49.5 46.5t-62.5 31.5q-24 -16 -38.5 -49t-19.5 -73t-2 -83t14.5 -80t30.5 -62.5t45 -30.5q33 9 58 28.5t42 45t24.5 54t5.5 54.5zM150 521q-8 -10 -18 -5.5t-7 17.5q11 26 22.5 34t22.5 5t21 -13t18 -21q8 11 12 13.5t7 1.5q5 -2 7.5 -8.5t-1.5 -14.5
q-7 -15 -16 -19.5t-19 -1.5t-19.5 11t-18.5 17q-5 -4 -7 -7.5t-4 -8.5z" />
    <glyph glyph-name="OE" unicode="&#x152;" horiz-adv-x="559" 
d="M103 465q29 -2 59.5 -10t59.5 -22q2 10 11 13q22 4 55 4t70.5 -1.5t77.5 -3t77 0.5q12 -5 12 -15t-14 -13q-49 0 -98 -1t-98 -4q5 -35 7.5 -74t3.5 -74q34 4 64.5 7t64.5 5q12 -5 12 -15t-14 -13q-32 -2 -63 -7.5t-63 -10.5q0 -20 1 -46.5t4 -52.5t8 -47.5t12 -30.5
q19 -1 41 1.5t43.5 7t41.5 9.5t35 10q7 1 12 -2t6.5 -7.5t-1 -9.5t-9.5 -8q-8 -2 -33 -9.5t-54.5 -15t-57.5 -12t-42 -0.5q-18 5 -28.5 15.5t-17.5 27.5q-20 -17 -42.5 -27t-44.5 -12q-28 -3 -55 5.5t-49.5 30.5t-38 57.5t-19.5 85.5q-3 34 0.5 68.5t12 66t22 57.5t31.5 44
h-4q-8 1 -11 5t-2.5 9t4.5 9.5t11 4.5zM271 222q-6 -2 -10.5 2.5t-5.5 11.5t2 14t13 9q-1 23 -2.5 44t-5.5 58q-20 23 -46 40t-57 27q-24 -16 -38.5 -49t-19.5 -73t-2 -83t14.5 -80t30.5 -62.5t45 -30.5q30 8 51.5 22t37.5 34q-3 28 -4.5 56t-2.5 60z" />
    <glyph glyph-name="Racute" unicode="&#x154;" horiz-adv-x="442" 
d="M35 461q-1 9 7 14t18.5 5.5t20 -2.5t11.5 -10q2 -20 3 -36l2 -32q13 23 32 40t39 24q15 6 31 5.5t28.5 -7.5t20 -21.5t6.5 -36.5q-1 -28 -10 -56t-22.5 -55t-29.5 -52t-32 -47q46 -8 83.5 -26t77.5 -45q24 -16 47 -35.5t49 -46.5q6 -6 6 -12.5t-4 -10.5t-11.5 -3.5
t-14.5 8.5q-27 24 -60 46t-69 40t-74 30.5t-76 16.5l2 -11q2 -31 4 -62.5t-2 -61.5q-1 -6 -8 -10.5t-16 -6.5t-18 0t-14 11q-6 29 -8.5 60t-4.5 63q-14 7 -10 21q3 8 10 13v36.5t1 37.5zM121 388q-6 -10 -10.5 -19.5t-9.5 -19.5q2 -32 4.5 -64.5t4.5 -74.5q13 18 27 38.5
t26 42t20.5 44t11.5 43.5q5 31 0.5 46t-15 16t-26 -12.5t-33.5 -39.5zM164 625q6 5 13.5 4t13 -4.5t8 -9.5t-2.5 -12q-19 -20 -40.5 -41.5t-38.5 -44.5q-5 -5 -10.5 -5.5t-10 2.5t-6 8t2.5 11q19 23 35 47t36 45z" />
    <glyph glyph-name="Rcommaaccent" unicode="&#x156;" horiz-adv-x="442" 
d="M35 461q-1 9 7 14t18.5 5.5t20 -2.5t11.5 -10q2 -20 3 -36l2 -32q13 23 32 40t39 24q15 6 31 5.5t28.5 -7.5t20 -21.5t6.5 -36.5q-1 -28 -10 -56t-22.5 -55t-29.5 -52t-32 -47q46 -8 83.5 -26t77.5 -45q24 -16 47 -35.5t49 -46.5q6 -6 6 -12.5t-4 -10.5t-11.5 -3.5
t-14.5 8.5q-27 24 -60 46t-69 40t-74 30.5t-76 16.5l2 -11q2 -31 4 -62.5t-2 -61.5q-1 -6 -8 -10.5t-16 -6.5t-18 0t-14 11q-6 29 -8.5 60t-4.5 63q-14 7 -10 21q3 8 10 13v36.5t1 37.5zM121 388q-6 -10 -10.5 -19.5t-9.5 -19.5q2 -32 4.5 -64.5t4.5 -74.5q13 18 27 38.5
t26 42t20.5 44t11.5 43.5q5 31 0.5 46t-15 16t-26 -12.5t-33.5 -39.5zM213 -60q5 6 9.5 17t-3.5 18q-14 4 -16 11t0 13q2 7 8.5 11.5t14.5 4t14.5 -6t8.5 -17.5q3 -19 -5 -35.5t-16 -25.5q-5 -6 -12.5 -3t-2.5 13z" />
    <glyph glyph-name="Rcaron" unicode="&#x158;" horiz-adv-x="442" 
d="M35 461q-1 9 7 14t18.5 5.5t20 -2.5t11.5 -10q2 -20 3 -36l2 -32q13 23 32 40t39 24q15 6 31 5.5t28.5 -7.5t20 -21.5t6.5 -36.5q-1 -28 -10 -56t-22.5 -55t-29.5 -52t-32 -47q46 -8 83.5 -26t77.5 -45q24 -16 47 -35.5t49 -46.5q6 -6 6 -12.5t-4 -10.5t-11.5 -3.5
t-14.5 8.5q-27 24 -60 46t-69 40t-74 30.5t-76 16.5l2 -11q2 -31 4 -62.5t-2 -61.5q-1 -6 -8 -10.5t-16 -6.5t-18 0t-14 11q-6 29 -8.5 60t-4.5 63q-14 7 -10 21q3 8 10 13v36.5t1 37.5zM121 388q-6 -10 -10.5 -19.5t-9.5 -19.5q2 -32 4.5 -64.5t4.5 -74.5q13 18 27 38.5
t26 42t20.5 44t11.5 43.5q5 31 0.5 46t-15 16t-26 -12.5t-33.5 -39.5zM77 585q-3 7 1 14t11.5 10.5t15 3.5t11.5 -6t7.5 -14.5t7 -15.5t7 -11.5t6.5 -4.5q2 1 6.5 15t6.5 33q4 14 14.5 13.5t13.5 -13.5q-1 -7 -4 -20t-7.5 -27t-10 -26.5t-11.5 -18.5q-5 -6 -14.5 -4
t-18.5 10q-12 13 -23 30.5t-19 31.5z" />
    <glyph glyph-name="Sacute" unicode="&#x15a;" horiz-adv-x="396" 
d="M308 375q-1 -7 -6.5 -11t-12 -4.5t-13.5 1.5t-10 7q-5 23 -11 40.5t-17 28t-29 13t-48 -4.5q-18 -4 -33.5 -13.5t-24.5 -24.5t-10 -34.5t11 -42.5q11 -21 35 -39t53 -36.5t60.5 -37t57 -39t42 -43.5t16.5 -51q0 -32 -27.5 -50t-68 -24t-86 -0.5t-81 19.5t-54 35.5
t-4.5 49.5q4 6 10 7t11 -2t8 -9t0 -13q6 -18 30 -29.5t53 -17t56.5 -6t41.5 4.5q43 14 47.5 30.5t-14.5 35t-54.5 40.5t-74 47.5t-73 55t-50.5 64.5q-14 27 -11 50.5t17.5 43t38 33.5t50.5 22q32 9 62 9t54 -11t39.5 -34t19.5 -60zM179 625q6 5 13.5 4t13 -4.5t8 -9.5
t-2.5 -12q-19 -20 -40.5 -41.5t-38.5 -44.5q-5 -5 -10.5 -5.5t-10 2.5t-6 8t2.5 11q19 23 35 47t36 45z" />
    <glyph glyph-name="Scaron" unicode="&#x160;" horiz-adv-x="396" 
d="M308 375q-1 -7 -6.5 -11t-12 -4.5t-13.5 1.5t-10 7q-5 23 -11 40.5t-17 28t-29 13t-48 -4.5q-18 -4 -33.5 -13.5t-24.5 -24.5t-10 -34.5t11 -42.5q11 -21 35 -39t53 -36.5t60.5 -37t57 -39t42 -43.5t16.5 -51q0 -32 -27.5 -50t-68 -24t-86 -0.5t-81 19.5t-54 35.5
t-4.5 49.5q4 6 10 7t11 -2t8 -9t0 -13q6 -18 30 -29.5t53 -17t56.5 -6t41.5 4.5q43 14 47.5 30.5t-14.5 35t-54.5 40.5t-74 47.5t-73 55t-50.5 64.5q-14 27 -11 50.5t17.5 43t38 33.5t50.5 22q32 9 62 9t54 -11t39.5 -34t19.5 -60zM93 588q-3 7 1 14t11.5 10.5t15 3.5
t11.5 -6t7.5 -14.5t7 -15.5t7 -11.5t6.5 -4.5q2 1 6.5 15t6.5 33q4 14 14.5 13.5t13.5 -13.5q-1 -7 -4 -20t-7.5 -27t-10 -26.5t-11.5 -18.5q-5 -6 -14.5 -4t-18.5 10q-12 13 -23 30.5t-19 31.5z" />
    <glyph glyph-name="Scedilla" unicode="&#x15e;" horiz-adv-x="396" 
d="M213 25q1 7 5 10.5t8.5 3t8.5 -5t5 -11.5q2 -16 4 -29.5t-1 -27.5q-2 -9 -11 -15.5t-17.5 -11t-13 -8.5t2.5 -8q8 -5 21.5 -6t27.5 1q12 -5 12 -15t-14 -13q-12 -1 -29 -1.5t-32 2t-25.5 9t-11.5 20.5q-1 12 6 20t17 13.5t21 9.5t18 9q2 14 0 29.5t-2 24.5zM308 375
q-1 -7 -6.5 -11t-12 -4.5t-13.5 1.5t-10 7q-5 23 -11 40.5t-17 28t-29 13t-48 -4.5q-18 -4 -33.5 -13.5t-24.5 -24.5t-10 -34.5t11 -42.5q11 -21 35 -39t53 -36.5t60.5 -37t57 -39t42 -43.5t16.5 -51q0 -32 -27.5 -50t-68 -24t-86 -0.5t-81 19.5t-54 35.5t-4.5 49.5
q4 6 10 7t11 -2t8 -9t0 -13q6 -18 30 -29.5t53 -17t56.5 -6t41.5 4.5q43 14 47.5 30.5t-14.5 35t-54.5 40.5t-74 47.5t-73 55t-50.5 64.5q-14 27 -11 50.5t17.5 43t38 33.5t50.5 22q32 9 62 9t54 -11t39.5 -34t19.5 -60z" />
    <glyph glyph-name="Scircumflex" unicode="&#x15c;" horiz-adv-x="396" 
d="M308 375q-1 -7 -6.5 -11t-12 -4.5t-13.5 1.5t-10 7q-5 23 -11 40.5t-17 28t-29 13t-48 -4.5q-18 -4 -33.5 -13.5t-24.5 -24.5t-10 -34.5t11 -42.5q11 -21 35 -39t53 -36.5t60.5 -37t57 -39t42 -43.5t16.5 -51q0 -32 -27.5 -50t-68 -24t-86 -0.5t-81 19.5t-54 35.5
t-4.5 49.5q4 6 10 7t11 -2t8 -9t0 -13q6 -18 30 -29.5t53 -17t56.5 -6t41.5 4.5q43 14 47.5 30.5t-14.5 35t-54.5 40.5t-74 47.5t-73 55t-50.5 64.5q-14 27 -11 50.5t17.5 43t38 33.5t50.5 22q32 9 62 9t54 -11t39.5 -34t19.5 -60zM149 523q-4 -5 -10.5 -6t-12.5 1t-10 6.5
t-2 10.5q13 36 23.5 56t21.5 22t24.5 -15t31.5 -55q5 -14 -6.5 -17.5t-19.5 7.5q-6 14 -10.5 26.5t-8.5 13.5q-2 -1 -6.5 -11t-14.5 -39z" />
    <glyph glyph-name="Scommaaccent" unicode="&#x218;" horiz-adv-x="396" 
d="M308 375q-1 -7 -6.5 -11t-12 -4.5t-13.5 1.5t-10 7q-5 23 -11 40.5t-17 28t-29 13t-48 -4.5q-18 -4 -33.5 -13.5t-24.5 -24.5t-10 -34.5t11 -42.5q11 -21 35 -39t53 -36.5t60.5 -37t57 -39t42 -43.5t16.5 -51q0 -32 -27.5 -50t-68 -24t-86 -0.5t-81 19.5t-54 35.5
t-4.5 49.5q4 6 10 7t11 -2t8 -9t0 -13q6 -18 30 -29.5t53 -17t56.5 -6t41.5 4.5q43 14 47.5 30.5t-14.5 35t-54.5 40.5t-74 47.5t-73 55t-50.5 64.5q-14 27 -11 50.5t17.5 43t38 33.5t50.5 22q32 9 62 9t54 -11t39.5 -34t19.5 -60zM199 -102q5 6 9.5 17t-3.5 18
q-14 4 -16 11t0 13q2 7 8.5 11.5t14.5 4t14.5 -6t8.5 -17.5q3 -19 -5 -35.5t-16 -25.5q-5 -6 -12.5 -3t-2.5 13z" />
    <glyph glyph-name="Tbar" unicode="&#x166;" horiz-adv-x="404" 
d="M162 416q-1 10 -1.5 20t-0.5 20q-38 -3 -68.5 -5t-68.5 -3q-7 1 -10 6.5t-2.5 12t4 12t10.5 6.5q38 1 67 1t67 3v1q7 8 26.5 8.5t29.5 -8.5q45 3 83.5 5t83.5 4q12 -5 12 -15t-13 -13q-45 -2 -83 -4.5t-83 -7.5l2 -40l147 8q12 -4 12 -14.5t-14 -13.5l-143 -12
q7 -92 14 -182.5t10 -183.5q-1 -7 -9.5 -11t-19 -4.5t-19 2.5t-8.5 11q-3 91 -10 182t-13 182l-122 -10q-8 1 -11 6.5t-2.5 12.5t4.5 12.5t11 5.5z" />
    <glyph glyph-name="Tcaron" unicode="&#x164;" horiz-adv-x="404" 
d="M159 490q7 8 26.5 8.5t29.5 -8.5q45 3 83.5 5t83.5 4q12 -5 12 -15t-13 -13q-45 -2 -83 -4.5t-83 -7.5q7 -111 15.5 -219t12.5 -219q-1 -7 -9.5 -11t-19 -4.5t-19 2.5t-8.5 11q-4 110 -12.5 219t-14.5 218q-38 -3 -68.5 -5t-68.5 -3q-7 1 -10 6.5t-2.5 12t4 12t10.5 6.5
q38 1 67 1t67 3v1v0zM126 612q-3 7 1 14t11.5 10.5t15 3.5t11.5 -6t7.5 -14.5t7 -15.5t7 -11.5t6.5 -4.5q2 1 6.5 15t6.5 33q4 14 14.5 13.5t13.5 -13.5q-1 -7 -4 -20t-7.5 -27t-10 -26.5t-11.5 -18.5q-5 -6 -14.5 -4t-18.5 10q-12 13 -23 30.5t-19 31.5z" />
    <glyph glyph-name="Tcommaaccent" unicode="&#x162;" horiz-adv-x="404" 
d="M159 490q7 8 26.5 8.5t29.5 -8.5q45 3 83.5 5t83.5 4q12 -5 12 -15t-13 -13q-45 -2 -83 -4.5t-83 -7.5q7 -111 15.5 -219t12.5 -219q-1 -7 -9.5 -11t-19 -4.5t-19 2.5t-8.5 11q-4 110 -12.5 219t-14.5 218q-38 -3 -68.5 -5t-68.5 -3q-7 1 -10 6.5t-2.5 12t4 12t10.5 6.5
q38 1 67 1t67 3v1v0zM205 -109q5 6 9.5 17t-3.5 18q-14 4 -16 11t0 13q2 7 8.5 11.5t14.5 4t14.5 -6t8.5 -17.5q3 -19 -5 -35.5t-16 -25.5q-5 -6 -12.5 -3t-2.5 13z" />
    <glyph glyph-name="Uacute" unicode="&#xda;" horiz-adv-x="360" 
d="M45 415q0 7 7.5 10.5t17 3t19 -4t12.5 -9.5q0 -32 1 -76t5.5 -86t12.5 -76.5t23 -47.5q10 9 24.5 29t28.5 45t25 52.5t16 51.5q-2 46 -1.5 86t2.5 69q0 11 8.5 16.5t19 6.5t20.5 -3.5t13 -13.5q8 -78 -6 -158q2 -51 8 -108t15 -108.5t21 -92.5t26 -61q4 -7 2.5 -12.5
t-6 -8t-10.5 -2t-11 5.5q-20 21 -36 54t-28 73t-20 85t-12 91q-9 -19 -22 -42.5t-28.5 -44t-31.5 -35t-30 -14.5q-22 0 -36.5 15.5t-23.5 38.5t-13.5 51t-6.5 54q-2 40 -3.5 80.5t-1.5 85.5zM197 634q6 5 13.5 4t13 -4.5t8 -9.5t-2.5 -12q-19 -20 -40.5 -41.5t-38.5 -44.5
q-5 -5 -10.5 -5.5t-10 2.5t-6 8t2.5 11q19 23 35 47t36 45z" />
    <glyph glyph-name="Ubreve" unicode="&#x16c;" horiz-adv-x="360" 
d="M45 415q0 7 7.5 10.5t17 3t19 -4t12.5 -9.5q0 -32 1 -76t5.5 -86t12.5 -76.5t23 -47.5q10 9 24.5 29t28.5 45t25 52.5t16 51.5q-2 46 -1.5 86t2.5 69q0 11 8.5 16.5t19 6.5t20.5 -3.5t13 -13.5q8 -78 -6 -158q2 -51 8 -108t15 -108.5t21 -92.5t26 -61q4 -7 2.5 -12.5
t-6 -8t-10.5 -2t-11 5.5q-20 21 -36 54t-28 73t-20 85t-12 91q-9 -19 -22 -42.5t-28.5 -44t-31.5 -35t-30 -14.5q-22 0 -36.5 15.5t-23.5 38.5t-13.5 51t-6.5 54q-2 40 -3.5 80.5t-1.5 85.5zM96 589q-1 7 5.5 13.5t14.5 9.5t16 2t10 -8q4 -14 10 -25t12.5 -14t12 4t8.5 29
q1 7 6 10.5t10 3t8.5 -5t2.5 -11.5q-5 -34 -21 -49t-35 -14.5t-36 15.5t-24 40z" />
    <glyph glyph-name="Ucircumflex" unicode="&#xdb;" horiz-adv-x="360" 
d="M45 415q0 7 7.5 10.5t17 3t19 -4t12.5 -9.5q0 -32 1 -76t5.5 -86t12.5 -76.5t23 -47.5q10 9 24.5 29t28.5 45t25 52.5t16 51.5q-2 46 -1.5 86t2.5 69q0 11 8.5 16.5t19 6.5t20.5 -3.5t13 -13.5q8 -78 -6 -158q2 -51 8 -108t15 -108.5t21 -92.5t26 -61q4 -7 2.5 -12.5
t-6 -8t-10.5 -2t-11 5.5q-20 21 -36 54t-28 73t-20 85t-12 91q-9 -19 -22 -42.5t-28.5 -44t-31.5 -35t-30 -14.5q-22 0 -36.5 15.5t-23.5 38.5t-13.5 51t-6.5 54q-2 40 -3.5 80.5t-1.5 85.5zM141 531q-4 -5 -10.5 -6t-12.5 1t-10 6.5t-2 10.5q13 36 23.5 56t21.5 22
t24.5 -15t31.5 -55q5 -14 -6.5 -17.5t-19.5 7.5q-6 14 -10.5 26.5t-8.5 13.5q-2 -1 -6.5 -11t-14.5 -39z" />
    <glyph glyph-name="Udieresis" unicode="&#xdc;" horiz-adv-x="360" 
d="M45 415q0 7 7.5 10.5t17 3t19 -4t12.5 -9.5q0 -32 1 -76t5.5 -86t12.5 -76.5t23 -47.5q10 9 24.5 29t28.5 45t25 52.5t16 51.5q-2 46 -1.5 86t2.5 69q0 11 8.5 16.5t19 6.5t20.5 -3.5t13 -13.5q8 -78 -6 -158q2 -51 8 -108t15 -108.5t21 -92.5t26 -61q4 -7 2.5 -12.5
t-6 -8t-10.5 -2t-11 5.5q-20 21 -36 54t-28 73t-20 85t-12 91q-9 -19 -22 -42.5t-28.5 -44t-31.5 -35t-30 -14.5q-22 0 -36.5 15.5t-23.5 38.5t-13.5 51t-6.5 54q-2 40 -3.5 80.5t-1.5 85.5zM104 545q-3 9 2.5 18t16.5 11q9 0 16 -7.5t2 -18.5q-7 -9 -18 -12t-19 9zM184 550
q-5 6 -2 12.5t9 10t14 2.5t13 -11q1 -6 -2 -11.5t-8.5 -8.5t-12 -2.5t-11.5 8.5z" />
    <glyph glyph-name="Ugrave" unicode="&#xd9;" horiz-adv-x="360" 
d="M45 415q0 7 7.5 10.5t17 3t19 -4t12.5 -9.5q0 -32 1 -76t5.5 -86t12.5 -76.5t23 -47.5q10 9 24.5 29t28.5 45t25 52.5t16 51.5q-2 46 -1.5 86t2.5 69q0 11 8.5 16.5t19 6.5t20.5 -3.5t13 -13.5q8 -78 -6 -158q2 -51 8 -108t15 -108.5t21 -92.5t26 -61q4 -7 2.5 -12.5
t-6 -8t-10.5 -2t-11 5.5q-20 21 -36 54t-28 73t-20 85t-12 91q-9 -19 -22 -42.5t-28.5 -44t-31.5 -35t-30 -14.5q-22 0 -36.5 15.5t-23.5 38.5t-13.5 51t-6.5 54q-2 40 -3.5 80.5t-1.5 85.5zM122 587q-5 5 -3.5 11t7 10t12 4.5t12.5 -3.5q16 -14 27 -29.5t24 -29.5
q5 -5 4 -10.5t-4.5 -8.5t-9.5 -3.5t-11 4.5q-12 12 -27.5 26.5t-30.5 28.5z" />
    <glyph glyph-name="Uhungarumlaut" unicode="&#x170;" horiz-adv-x="360" 
d="M45 415q0 7 7.5 10.5t17 3t19 -4t12.5 -9.5q0 -32 1 -76t5.5 -86t12.5 -76.5t23 -47.5q10 9 24.5 29t28.5 45t25 52.5t16 51.5q-2 46 -1.5 86t2.5 69q0 11 8.5 16.5t19 6.5t20.5 -3.5t13 -13.5q8 -78 -6 -158q2 -51 8 -108t15 -108.5t21 -92.5t26 -61q4 -7 2.5 -12.5
t-6 -8t-10.5 -2t-11 5.5q-20 21 -36 54t-28 73t-20 85t-12 91q-9 -19 -22 -42.5t-28.5 -44t-31.5 -35t-30 -14.5q-22 0 -36.5 15.5t-23.5 38.5t-13.5 51t-6.5 54q-2 40 -3.5 80.5t-1.5 85.5zM182 633q2 7 7.5 9.5t11 2t10 -4t4.5 -9.5q0 -5 -2.5 -15.5t-6.5 -23t-8.5 -25
t-7.5 -20.5q-5 -12 -15.5 -10t-11.5 14q8 28 12.5 50t6.5 32zM132 636q7 11 19.5 8.5t10.5 -16.5q-6 -21 -13 -43t-13 -38q-5 -12 -15.5 -10t-11.5 14q5 18 11.5 43t11.5 42z" />
    <glyph glyph-name="Umacron" unicode="&#x16a;" horiz-adv-x="360" 
d="M45 415q0 7 7.5 10.5t17 3t19 -4t12.5 -9.5q0 -32 1 -76t5.5 -86t12.5 -76.5t23 -47.5q10 9 24.5 29t28.5 45t25 52.5t16 51.5q-2 46 -1.5 86t2.5 69q0 11 8.5 16.5t19 6.5t20.5 -3.5t13 -13.5q8 -78 -6 -158q2 -51 8 -108t15 -108.5t21 -92.5t26 -61q4 -7 2.5 -12.5
t-6 -8t-10.5 -2t-11 5.5q-20 21 -36 54t-28 73t-20 85t-12 91q-9 -19 -22 -42.5t-28.5 -44t-31.5 -35t-30 -14.5q-22 0 -36.5 15.5t-23.5 38.5t-13.5 51t-6.5 54q-2 40 -3.5 80.5t-1.5 85.5zM105 544q-8 0 -11 5.5t-2.5 11.5t4.5 11t11 6q29 1 58 0.5t58 0.5q12 -5 12 -15
t-14 -13q-29 -1 -58 -4t-58 -3z" />
    <glyph glyph-name="Uogonek" unicode="&#x172;" horiz-adv-x="360" 
d="M45 415q0 7 7.5 10.5t17 3t19 -4t12.5 -9.5q0 -32 1 -76t5.5 -86t12.5 -76.5t23 -47.5q10 9 24.5 29t28.5 45t25 52.5t16 51.5q-2 46 -1.5 86t2.5 69q0 11 8.5 16.5t19 6.5t20.5 -3.5t13 -13.5q8 -78 -6 -158q2 -51 8 -108t15 -108.5t21 -92.5t26 -61q4 -7 2.5 -12.5
t-6 -8t-10.5 -2t-11 5.5q-20 21 -36 54t-28 73t-20 85t-12 91q-9 -19 -22 -42.5t-28.5 -44t-31.5 -35t-30 -14.5q-22 0 -36.5 15.5t-23.5 38.5t-13.5 51t-6.5 54q-2 40 -3.5 80.5t-1.5 85.5zM346 -56q14 4 18.5 -6.5t-6.5 -18.5q-7 -6 -15 -17t-10.5 -21.5t5.5 -16.5t32 0
q14 1 16.5 -9.5t-8.5 -17.5q-39 -11 -59 -1.5t-23 28t10 41.5t40 39z" />
    <glyph glyph-name="Uring" unicode="&#x16e;" horiz-adv-x="360" 
d="M45 415q0 7 7.5 10.5t17 3t19 -4t12.5 -9.5q0 -32 1 -76t5.5 -86t12.5 -76.5t23 -47.5q10 9 24.5 29t28.5 45t25 52.5t16 51.5q-2 46 -1.5 86t2.5 69q0 11 8.5 16.5t19 6.5t20.5 -3.5t13 -13.5q8 -78 -6 -158q2 -51 8 -108t15 -108.5t21 -92.5t26 -61q4 -7 2.5 -12.5
t-6 -8t-10.5 -2t-11 5.5q-20 21 -36 54t-28 73t-20 85t-12 91q-9 -19 -22 -42.5t-28.5 -44t-31.5 -35t-30 -14.5q-22 0 -36.5 15.5t-23.5 38.5t-13.5 51t-6.5 54q-2 40 -3.5 80.5t-1.5 85.5zM168 592q22 -5 30.5 -16.5t5.5 -23t-15 -19.5t-30 -6q-15 2 -24 8t-13.5 14.5
t-5 17t2.5 16.5q7 16 21 16t25 -4zM176 561q-6 2 -12 3l-12 2q-1 -4 2 -7t7 -4t8 0t7 6z" />
    <glyph glyph-name="Utilde" unicode="&#x168;" horiz-adv-x="360" 
d="M45 415q0 7 7.5 10.5t17 3t19 -4t12.5 -9.5q0 -32 1 -76t5.5 -86t12.5 -76.5t23 -47.5q10 9 24.5 29t28.5 45t25 52.5t16 51.5q-2 46 -1.5 86t2.5 69q0 11 8.5 16.5t19 6.5t20.5 -3.5t13 -13.5q8 -78 -6 -158q2 -51 8 -108t15 -108.5t21 -92.5t26 -61q4 -7 2.5 -12.5
t-6 -8t-10.5 -2t-11 5.5q-20 21 -36 54t-28 73t-20 85t-12 91q-9 -19 -22 -42.5t-28.5 -44t-31.5 -35t-30 -14.5q-22 0 -36.5 15.5t-23.5 38.5t-13.5 51t-6.5 54q-2 40 -3.5 80.5t-1.5 85.5zM130 527q-8 -10 -18 -5.5t-7 17.5q11 26 22.5 34t22.5 5t21 -13t18 -21
q8 11 12 13.5t7 1.5q5 -2 7.5 -8.5t-1.5 -14.5q-7 -15 -16 -19.5t-19 -1.5t-19.5 11t-18.5 17q-5 -4 -7 -7.5t-4 -8.5z" />
    <glyph glyph-name="Wacute" unicode="&#x1e82;" horiz-adv-x="519" 
d="M29 501q1 9 9 13t18 3.5t18.5 -4.5t10.5 -10q9 -102 17 -203t26 -202q9 51 17.5 107t16.5 106.5t17 89t18 55.5q5 7 14.5 10t20.5 2t21.5 -6t16.5 -13q21 -29 40 -70.5t37.5 -89.5t38.5 -98t43 -96q3 32 -0.5 80.5t-3.5 103.5t9 112.5t36 108.5q13 11 23 4t4 -20
q-18 -37 -26 -79.5t-9.5 -87t1.5 -88.5t7 -84t7 -74.5t2 -58.5q-1 -12 -8 -18t-16 -7t-18.5 2.5t-14.5 9.5q-22 27 -41.5 65t-37 81t-33.5 87.5t-30.5 83.5t-28.5 69t-28 44q-11 -47 -19 -103t-15.5 -114.5t-15 -116t-16.5 -106.5q-5 -9 -14 -11t-18.5 -0.5t-17 5.5t-10.5 9
q-17 48 -27 109.5t-16.5 129t-12 137t-12.5 133.5zM249 634q6 5 13.5 4t13 -4.5t8 -9.5t-2.5 -12q-19 -20 -40.5 -41.5t-38.5 -44.5q-5 -5 -10.5 -5.5t-10 2.5t-6 8t2.5 11q19 23 35 47t36 45z" />
    <glyph glyph-name="Wcircumflex" unicode="&#x174;" horiz-adv-x="519" 
d="M29 501q1 9 9 13t18 3.5t18.5 -4.5t10.5 -10q9 -102 17 -203t26 -202q9 51 17.5 107t16.5 106.5t17 89t18 55.5q5 7 14.5 10t20.5 2t21.5 -6t16.5 -13q21 -29 40 -70.5t37.5 -89.5t38.5 -98t43 -96q3 32 -0.5 80.5t-3.5 103.5t9 112.5t36 108.5q13 11 23 4t4 -20
q-18 -37 -26 -79.5t-9.5 -87t1.5 -88.5t7 -84t7 -74.5t2 -58.5q-1 -12 -8 -18t-16 -7t-18.5 2.5t-14.5 9.5q-22 27 -41.5 65t-37 81t-33.5 87.5t-30.5 83.5t-28.5 69t-28 44q-11 -47 -19 -103t-15.5 -114.5t-15 -116t-16.5 -106.5q-5 -9 -14 -11t-18.5 -0.5t-17 5.5t-10.5 9
q-17 48 -27 109.5t-16.5 129t-12 137t-12.5 133.5zM205 531q-4 -5 -10.5 -6t-12.5 1t-10 6.5t-2 10.5q13 36 23.5 56t21.5 22t24.5 -15t31.5 -55q5 -14 -6.5 -17.5t-19.5 7.5q-6 14 -10.5 26.5t-8.5 13.5q-2 -1 -6.5 -11t-14.5 -39z" />
    <glyph glyph-name="Wdieresis" unicode="&#x1e84;" horiz-adv-x="519" 
d="M29 501q1 9 9 13t18 3.5t18.5 -4.5t10.5 -10q9 -102 17 -203t26 -202q9 51 17.5 107t16.5 106.5t17 89t18 55.5q5 7 14.5 10t20.5 2t21.5 -6t16.5 -13q21 -29 40 -70.5t37.5 -89.5t38.5 -98t43 -96q3 32 -0.5 80.5t-3.5 103.5t9 112.5t36 108.5q13 11 23 4t4 -20
q-18 -37 -26 -79.5t-9.5 -87t1.5 -88.5t7 -84t7 -74.5t2 -58.5q-1 -12 -8 -18t-16 -7t-18.5 2.5t-14.5 9.5q-22 27 -41.5 65t-37 81t-33.5 87.5t-30.5 83.5t-28.5 69t-28 44q-11 -47 -19 -103t-15.5 -114.5t-15 -116t-16.5 -106.5q-5 -9 -14 -11t-18.5 -0.5t-17 5.5t-10.5 9
q-17 48 -27 109.5t-16.5 129t-12 137t-12.5 133.5zM165 545q-3 9 2.5 18t16.5 11q9 0 16 -7.5t2 -18.5q-7 -9 -18 -12t-19 9zM245 550q-5 6 -2 12.5t9 10t14 2.5t13 -11q1 -6 -2 -11.5t-8.5 -8.5t-12 -2.5t-11.5 8.5z" />
    <glyph glyph-name="Wgrave" unicode="&#x1e80;" horiz-adv-x="519" 
d="M29 501q1 9 9 13t18 3.5t18.5 -4.5t10.5 -10q9 -102 17 -203t26 -202q9 51 17.5 107t16.5 106.5t17 89t18 55.5q5 7 14.5 10t20.5 2t21.5 -6t16.5 -13q21 -29 40 -70.5t37.5 -89.5t38.5 -98t43 -96q3 32 -0.5 80.5t-3.5 103.5t9 112.5t36 108.5q13 11 23 4t4 -20
q-18 -37 -26 -79.5t-9.5 -87t1.5 -88.5t7 -84t7 -74.5t2 -58.5q-1 -12 -8 -18t-16 -7t-18.5 2.5t-14.5 9.5q-22 27 -41.5 65t-37 81t-33.5 87.5t-30.5 83.5t-28.5 69t-28 44q-11 -47 -19 -103t-15.5 -114.5t-15 -116t-16.5 -106.5q-5 -9 -14 -11t-18.5 -0.5t-17 5.5t-10.5 9
q-17 48 -27 109.5t-16.5 129t-12 137t-12.5 133.5zM192 587q-5 5 -3.5 11t7 10t12 4.5t12.5 -3.5q16 -14 27 -29.5t24 -29.5q5 -5 4 -10.5t-4.5 -8.5t-9.5 -3.5t-11 4.5q-12 12 -27.5 26.5t-30.5 28.5z" />
    <glyph glyph-name="Yacute" unicode="&#xdd;" horiz-adv-x="422" 
d="M64 403q0 12 8.5 16t19 3.5t19.5 -5.5t10 -12q3 -17 10 -41.5t18 -48.5t25.5 -45t32.5 -32q15 22 23 52t13 57q-1 35 -2.5 68.5t2.5 67.5q3 8 10 11t16 2t17 -5t13 -10q11 -26 9.5 -61t-9.5 -70l1 -18q2 -29 7 -76.5t12 -104.5q20 4 40 7.5t40 6.5q11 -1 12 -12.5
t-6 -14.5q-20 -4 -41 -7t-42 -7q7 -71 13 -146.5t4.5 -139.5t-13.5 -108.5t-39 -53.5q-12 -4 -32 -4t-40 8q-37 14 -75.5 51t-69 82t-48 90.5t-11.5 76.5q4 24 18.5 43.5t34 35t42.5 27.5t44 21q28 11 55.5 19t56.5 16q-2 19 -3 33t-2.5 26.5t-3 26.5t-4.5 33
q-35 -75 -79 -54q-20 10 -37.5 34t-31.5 53t-23.5 58.5t-13.5 50.5zM255 -294q21 12 27.5 56.5t4 104t-9.5 125.5t-11 122q-64 -14 -110.5 -37t-77.5 -59q-17 -20 -20.5 -40t3.5 -46q5 -19 16.5 -45t27.5 -52.5t35 -51.5t39 -43.5t39.5 -28.5t36.5 -5zM189 607q6 5 13.5 4
t13 -4.5t8 -9.5t-2.5 -12q-19 -20 -40.5 -41.5t-38.5 -44.5q-5 -5 -10.5 -5.5t-10 2.5t-6 8t2.5 11q19 23 35 47t36 45z" />
    <glyph glyph-name="Ycircumflex" unicode="&#x176;" horiz-adv-x="422" 
d="M153 514q-4 -5 -10.5 -6.5t-12.5 -0.5t-10 4.5t-4 9.5q8 38 16 59.5t19 25t26 -12t38 -50.5q4 -7 2.5 -11.5t-6 -7t-10.5 -1t-10 6.5q-8 13 -13.5 24.5t-10.5 12.5q-2 -2 -5.5 -12.5t-8.5 -40.5zM64 403q0 12 8.5 16t19 3.5t19.5 -5.5t10 -12q3 -17 10 -41.5t18 -48.5
t25.5 -45t32.5 -32q15 22 23 52t13 57q-1 35 -2.5 68.5t2.5 67.5q3 8 10 11t16 2t17 -5t13 -10q11 -26 9.5 -61t-9.5 -70l1 -18q2 -29 7 -76.5t12 -104.5q20 4 40 7.5t40 6.5q11 -1 12 -12.5t-6 -14.5q-20 -4 -41 -7t-42 -7q7 -71 13 -146.5t4.5 -139.5t-13.5 -108.5
t-39 -53.5q-12 -4 -32 -4t-40 8q-37 14 -75.5 51t-69 82t-48 90.5t-11.5 76.5q4 24 18.5 43.5t34 35t42.5 27.5t44 21q28 11 55.5 19t56.5 16q-2 19 -3 33t-2.5 26.5t-3 26.5t-4.5 33q-35 -75 -79 -54q-20 10 -37.5 34t-31.5 53t-23.5 58.5t-13.5 50.5zM255 -294
q21 12 27.5 56.5t4 104t-9.5 125.5t-11 122q-64 -14 -110.5 -37t-77.5 -59q-17 -20 -20.5 -40t3.5 -46q5 -19 16.5 -45t27.5 -52.5t35 -51.5t39 -43.5t39.5 -28.5t36.5 -5z" />
    <glyph glyph-name="Ydieresis" unicode="&#x178;" horiz-adv-x="422" 
d="M112 501q-5 8 -2.5 18t13.5 15q8 2 17 -4t7 -17q-4 -11 -14 -16t-21 4zM188 526q-6 4 -4.5 11t6.5 12.5t12.5 6t14.5 -6.5q3 -5 1.5 -11.5t-6 -11t-11 -5.5t-13.5 5zM64 403q0 12 8.5 16t19 3.5t19.5 -5.5t10 -12q3 -17 10 -41.5t18 -48.5t25.5 -45t32.5 -32q15 22 23 52
t13 57q-1 35 -2.5 68.5t2.5 67.5q3 8 10 11t16 2t17 -5t13 -10q11 -26 9.5 -61t-9.5 -70l1 -18q2 -29 7 -76.5t12 -104.5q20 4 40 7.5t40 6.5q11 -1 12 -12.5t-6 -14.5q-20 -4 -41 -7t-42 -7q7 -71 13 -146.5t4.5 -139.5t-13.5 -108.5t-39 -53.5q-12 -4 -32 -4t-40 8
q-37 14 -75.5 51t-69 82t-48 90.5t-11.5 76.5q4 24 18.5 43.5t34 35t42.5 27.5t44 21q28 11 55.5 19t56.5 16q-2 19 -3 33t-2.5 26.5t-3 26.5t-4.5 33q-35 -75 -79 -54q-20 10 -37.5 34t-31.5 53t-23.5 58.5t-13.5 50.5zM255 -294q21 12 27.5 56.5t4 104t-9.5 125.5t-11 122
q-64 -14 -110.5 -37t-77.5 -59q-17 -20 -20.5 -40t3.5 -46q5 -19 16.5 -45t27.5 -52.5t35 -51.5t39 -43.5t39.5 -28.5t36.5 -5z" />
    <glyph glyph-name="Ygrave" unicode="&#x1ef2;" horiz-adv-x="422" 
d="M64 403q0 12 8.5 16t19 3.5t19.5 -5.5t10 -12q3 -17 10 -41.5t18 -48.5t25.5 -45t32.5 -32q15 22 23 52t13 57q-1 35 -2.5 68.5t2.5 67.5q3 8 10 11t16 2t17 -5t13 -10q11 -26 9.5 -61t-9.5 -70l1 -18q2 -29 7 -76.5t12 -104.5q20 4 40 7.5t40 6.5q11 -1 12 -12.5
t-6 -14.5q-20 -4 -41 -7t-42 -7q7 -71 13 -146.5t4.5 -139.5t-13.5 -108.5t-39 -53.5q-12 -4 -32 -4t-40 8q-37 14 -75.5 51t-69 82t-48 90.5t-11.5 76.5q4 24 18.5 43.5t34 35t42.5 27.5t44 21q28 11 55.5 19t56.5 16q-2 19 -3 33t-2.5 26.5t-3 26.5t-4.5 33
q-35 -75 -79 -54q-20 10 -37.5 34t-31.5 53t-23.5 58.5t-13.5 50.5zM255 -294q21 12 27.5 56.5t4 104t-9.5 125.5t-11 122q-64 -14 -110.5 -37t-77.5 -59q-17 -20 -20.5 -40t3.5 -46q5 -19 16.5 -45t27.5 -52.5t35 -51.5t39 -43.5t39.5 -28.5t36.5 -5zM109 545q-5 5 -3.5 11
t7 10t12 4.5t12.5 -3.5q16 -14 27 -29.5t24 -29.5q5 -5 4 -10.5t-4.5 -8.5t-9.5 -3.5t-11 4.5q-12 12 -27.5 26.5t-30.5 28.5z" />
    <glyph glyph-name="Zacute" unicode="&#x179;" horiz-adv-x="392" 
d="M69 445q-12 5 -12 15.5t13 12.5q32 -2 65.5 5t66.5 9q27 2 56 -0.5t53 -16.5q19 -12 24 -29.5t0.5 -37.5t-16 -41.5t-25.5 -42t-28 -38t-24 -29.5q-14 -18 -28.5 -35t-28.5 -34q-15 -18 -30.5 -36t-28.5 -35t-21 -32.5t-7 -28.5q2 -11 12.5 -14.5t31.5 -4.5
q55 2 109 11.5t108 20.5q7 1 12 -2t6.5 -7.5t-1 -9.5t-8.5 -8q-29 -5 -58 -11.5t-58 -12.5q-21 -4 -32.5 -5.5t-21 -2.5t-21 -2t-32.5 -3q-61 -5 -84 10t-21.5 40.5t21.5 58t45.5 64t50 58t34.5 39.5q5 6 16.5 19t24.5 30t24.5 36t17 36.5t2.5 33t-19 24.5q-12 7 -36.5 6.5
t-52 -3t-54.5 -5.5t-45 -2zM213 640q6 5 13.5 4t13 -4.5t8 -9.5t-2.5 -12q-19 -20 -40.5 -41.5t-38.5 -44.5q-5 -5 -10.5 -5.5t-10 2.5t-6 8t2.5 11q19 23 35 47t36 45z" />
    <glyph glyph-name="Zcaron" unicode="&#x17d;" horiz-adv-x="392" 
d="M69 445q-12 5 -12 15.5t13 12.5q32 -2 65.5 5t66.5 9q27 2 56 -0.5t53 -16.5q19 -12 24 -29.5t0.5 -37.5t-16 -41.5t-25.5 -42t-28 -38t-24 -29.5q-14 -18 -28.5 -35t-28.5 -34q-15 -18 -30.5 -36t-28.5 -35t-21 -32.5t-7 -28.5q2 -11 12.5 -14.5t31.5 -4.5
q55 2 109 11.5t108 20.5q7 1 12 -2t6.5 -7.5t-1 -9.5t-8.5 -8q-29 -5 -58 -11.5t-58 -12.5q-21 -4 -32.5 -5.5t-21 -2.5t-21 -2t-32.5 -3q-61 -5 -84 10t-21.5 40.5t21.5 58t45.5 64t50 58t34.5 39.5q5 6 16.5 19t24.5 30t24.5 36t17 36.5t2.5 33t-19 24.5q-12 7 -36.5 6.5
t-52 -3t-54.5 -5.5t-45 -2zM118 601q-3 7 1 14t11.5 10.5t15 3.5t11.5 -6t7.5 -14.5t7 -15.5t7 -11.5t6.5 -4.5q2 1 6.5 15t6.5 33q4 14 14.5 13.5t13.5 -13.5q-1 -7 -4 -20t-7.5 -27t-10 -26.5t-11.5 -18.5q-5 -6 -14.5 -4t-18.5 10q-12 13 -23 30.5t-19 31.5z" />
    <glyph glyph-name="Zdotaccent" unicode="&#x17b;" horiz-adv-x="392" 
d="M69 445q-12 5 -12 15.5t13 12.5q32 -2 65.5 5t66.5 9q27 2 56 -0.5t53 -16.5q19 -12 24 -29.5t0.5 -37.5t-16 -41.5t-25.5 -42t-28 -38t-24 -29.5q-14 -18 -28.5 -35t-28.5 -34q-15 -18 -30.5 -36t-28.5 -35t-21 -32.5t-7 -28.5q2 -11 12.5 -14.5t31.5 -4.5
q55 2 109 11.5t108 20.5q7 1 12 -2t6.5 -7.5t-1 -9.5t-8.5 -8q-29 -5 -58 -11.5t-58 -12.5q-21 -4 -32.5 -5.5t-21 -2.5t-21 -2t-32.5 -3q-61 -5 -84 10t-21.5 40.5t21.5 58t45.5 64t50 58t34.5 39.5q5 6 16.5 19t24.5 30t24.5 36t17 36.5t2.5 33t-19 24.5q-12 7 -36.5 6.5
t-52 -3t-54.5 -5.5t-45 -2zM176 560q-3 9 2.5 18t16.5 11q9 0 16 -7.5t2 -18.5q-7 -10 -18 -12.5t-19 9.5z" />
    <glyph glyph-name="aacute" unicode="&#xe1;" horiz-adv-x="270" 
d="M89 243q10 13 25 19t32 3q0 4 1 8.5t6 8.5q11 8 27.5 4t20.5 -12q1 -27 4 -73t9 -93.5t16 -87.5t25 -55q4 -5 0.5 -10t-10 -8.5t-15 -4.5t-12.5 2q-11 10 -19.5 28.5t-15.5 41.5t-13 50t-10 55q-5 -20 -11 -38.5t-17 -35.5q-14 -26 -32.5 -35t-35 -4.5t-27 22t-8.5 46.5
q3 48 16.5 89.5t43.5 79.5zM89 38q16 13 26.5 36.5t16 50.5t7 53.5t-0.5 45.5q-14 -14 -26.5 -37.5t-20 -49.5t-9 -52.5t6.5 -46.5zM153 424q6 5 13.5 4t13 -4.5t8 -9.5t-2.5 -12q-19 -20 -40.5 -41.5t-38.5 -44.5q-5 -5 -10.5 -5.5t-10 2.5t-6 8t2.5 11q19 23 35 47t36 45z
" />
    <glyph glyph-name="abreve" unicode="&#x103;" horiz-adv-x="270" 
d="M89 243q10 13 25 19t32 3q0 4 1 8.5t6 8.5q11 8 27.5 4t20.5 -12q1 -27 4 -73t9 -93.5t16 -87.5t25 -55q4 -5 0.5 -10t-10 -8.5t-15 -4.5t-12.5 2q-11 10 -19.5 28.5t-15.5 41.5t-13 50t-10 55q-5 -20 -11 -38.5t-17 -35.5q-14 -26 -32.5 -35t-35 -4.5t-27 22t-8.5 46.5
q3 48 16.5 89.5t43.5 79.5zM89 38q16 13 26.5 36.5t16 50.5t7 53.5t-0.5 45.5q-14 -14 -26.5 -37.5t-20 -49.5t-9 -52.5t6.5 -46.5zM76 388q-1 7 5.5 13.5t14.5 9.5t16 2t10 -8q4 -14 10 -25t12.5 -14t12 4t8.5 29q1 7 6 10.5t10 3t8.5 -5t2.5 -11.5q-5 -34 -21 -49
t-35 -14.5t-36 15.5t-24 40z" />
    <glyph glyph-name="acircumflex" unicode="&#xe2;" horiz-adv-x="270" 
d="M89 243q10 13 25 19t32 3q0 4 1 8.5t6 8.5q11 8 27.5 4t20.5 -12q1 -27 4 -73t9 -93.5t16 -87.5t25 -55q4 -5 0.5 -10t-10 -8.5t-15 -4.5t-12.5 2q-11 10 -19.5 28.5t-15.5 41.5t-13 50t-10 55q-5 -20 -11 -38.5t-17 -35.5q-14 -26 -32.5 -35t-35 -4.5t-27 22t-8.5 46.5
q3 48 16.5 89.5t43.5 79.5zM89 38q16 13 26.5 36.5t16 50.5t7 53.5t-0.5 45.5q-14 -14 -26.5 -37.5t-20 -49.5t-9 -52.5t6.5 -46.5zM117 321q-4 -5 -10.5 -6t-12.5 1t-10 6.5t-2 10.5q13 36 23.5 56t21.5 22t24.5 -15t31.5 -55q5 -14 -6.5 -17.5t-19.5 7.5q-6 14 -10.5 26.5
t-8.5 13.5q-2 -1 -6.5 -11t-14.5 -39z" />
    <glyph glyph-name="adieresis" unicode="&#xe4;" horiz-adv-x="270" 
d="M89 243q10 13 25 19t32 3q0 4 1 8.5t6 8.5q11 8 27.5 4t20.5 -12q1 -27 4 -73t9 -93.5t16 -87.5t25 -55q4 -5 0.5 -10t-10 -8.5t-15 -4.5t-12.5 2q-11 10 -19.5 28.5t-15.5 41.5t-13 50t-10 55q-5 -20 -11 -38.5t-17 -35.5q-14 -26 -32.5 -35t-35 -4.5t-27 22t-8.5 46.5
q3 48 16.5 89.5t43.5 79.5zM89 38q16 13 26.5 36.5t16 50.5t7 53.5t-0.5 45.5q-14 -14 -26.5 -37.5t-20 -49.5t-9 -52.5t6.5 -46.5zM80 335q-3 9 2.5 18t16.5 11q9 0 16 -7.5t2 -18.5q-7 -9 -18 -12t-19 9zM160 340q-5 6 -2 12.5t9 10t14 2.5t13 -11q1 -6 -2 -11.5
t-8.5 -8.5t-12 -2.5t-11.5 8.5z" />
    <glyph glyph-name="agrave" unicode="&#xe0;" horiz-adv-x="270" 
d="M89 243q10 13 25 19t32 3q0 4 1 8.5t6 8.5q11 8 27.5 4t20.5 -12q1 -27 4 -73t9 -93.5t16 -87.5t25 -55q4 -5 0.5 -10t-10 -8.5t-15 -4.5t-12.5 2q-11 10 -19.5 28.5t-15.5 41.5t-13 50t-10 55q-5 -20 -11 -38.5t-17 -35.5q-14 -26 -32.5 -35t-35 -4.5t-27 22t-8.5 46.5
q3 48 16.5 89.5t43.5 79.5zM89 38q16 13 26.5 36.5t16 50.5t7 53.5t-0.5 45.5q-14 -14 -26.5 -37.5t-20 -49.5t-9 -52.5t6.5 -46.5zM85 377q-5 5 -3.5 11t7 10t12 4.5t12.5 -3.5q16 -14 27 -29.5t24 -29.5q5 -5 4 -10.5t-4.5 -8.5t-9.5 -3.5t-11 4.5q-12 12 -27.5 26.5
t-30.5 28.5z" />
    <glyph glyph-name="amacron" unicode="&#x101;" horiz-adv-x="270" 
d="M89 243q10 13 25 19t32 3q0 4 1 8.5t6 8.5q11 8 27.5 4t20.5 -12q1 -27 4 -73t9 -93.5t16 -87.5t25 -55q4 -5 0.5 -10t-10 -8.5t-15 -4.5t-12.5 2q-11 10 -19.5 28.5t-15.5 41.5t-13 50t-10 55q-5 -20 -11 -38.5t-17 -35.5q-14 -26 -32.5 -35t-35 -4.5t-27 22t-8.5 46.5
q3 48 16.5 89.5t43.5 79.5zM89 38q16 13 26.5 36.5t16 50.5t7 53.5t-0.5 45.5q-14 -14 -26.5 -37.5t-20 -49.5t-9 -52.5t6.5 -46.5zM78 340q-8 0 -11 5.5t-2.5 11.5t4.5 11t11 6q29 1 58 0.5t58 0.5q12 -5 12 -15t-14 -13q-29 -1 -58 -4t-58 -3z" />
    <glyph glyph-name="aogonek" unicode="&#x105;" horiz-adv-x="270" 
d="M89 243q10 13 25 19t32 3q0 4 1 8.5t6 8.5q11 8 27.5 4t20.5 -12q1 -27 4 -73t9 -93.5t16 -87.5t25 -55q4 -5 0.5 -10t-10 -8.5t-15 -4.5t-12.5 2q-11 10 -19.5 28.5t-15.5 41.5t-13 50t-10 55q-5 -20 -11 -38.5t-17 -35.5q-14 -26 -32.5 -35t-35 -4.5t-27 22t-8.5 46.5
q3 48 16.5 89.5t43.5 79.5zM89 38q16 13 26.5 36.5t16 50.5t7 53.5t-0.5 45.5q-14 -14 -26.5 -37.5t-20 -49.5t-9 -52.5t6.5 -46.5zM238 -28q14 4 18.5 -6.5t-6.5 -18.5q-7 -6 -15 -17t-10.5 -21.5t5.5 -16.5t32 0q14 1 16.5 -9.5t-8.5 -17.5q-39 -11 -59 -1.5t-23 28
t10 41.5t40 39z" />
    <glyph glyph-name="aring" unicode="&#xe5;" horiz-adv-x="270" 
d="M89 243q10 13 25 19t32 3q0 4 1 8.5t6 8.5q11 8 27.5 4t20.5 -12q1 -27 4 -73t9 -93.5t16 -87.5t25 -55q4 -5 0.5 -10t-10 -8.5t-15 -4.5t-12.5 2q-11 10 -19.5 28.5t-15.5 41.5t-13 50t-10 55q-5 -20 -11 -38.5t-17 -35.5q-14 -26 -32.5 -35t-35 -4.5t-27 22t-8.5 46.5
q3 48 16.5 89.5t43.5 79.5zM89 38q16 13 26.5 36.5t16 50.5t7 53.5t-0.5 45.5q-14 -14 -26.5 -37.5t-20 -49.5t-9 -52.5t6.5 -46.5zM132 399q22 -5 30.5 -16.5t5.5 -23t-15 -19.5t-30 -6q-15 2 -24 8t-13.5 14.5t-5 17t2.5 16.5q7 16 21 16t25 -4zM140 368q-6 2 -12 3l-12 2
q-1 -4 2 -7t7 -4t8 0t7 6z" />
    <glyph glyph-name="atilde" unicode="&#xe3;" horiz-adv-x="270" 
d="M89 243q10 13 25 19t32 3q0 4 1 8.5t6 8.5q11 8 27.5 4t20.5 -12q1 -27 4 -73t9 -93.5t16 -87.5t25 -55q4 -5 0.5 -10t-10 -8.5t-15 -4.5t-12.5 2q-11 10 -19.5 28.5t-15.5 41.5t-13 50t-10 55q-5 -20 -11 -38.5t-17 -35.5q-14 -26 -32.5 -35t-35 -4.5t-27 22t-8.5 46.5
q3 48 16.5 89.5t43.5 79.5zM89 38q16 13 26.5 36.5t16 50.5t7 53.5t-0.5 45.5q-14 -14 -26.5 -37.5t-20 -49.5t-9 -52.5t6.5 -46.5zM105 339q-8 -10 -18 -5.5t-7 17.5q11 26 22.5 34t22.5 5t21 -13t18 -21q8 11 12 13.5t7 1.5q5 -2 7.5 -8.5t-1.5 -14.5q-7 -15 -16 -19.5
t-19 -1.5t-19.5 11t-18.5 17q-5 -4 -7 -7.5t-4 -8.5z" />
    <glyph glyph-name="aeacute" unicode="&#x1fd;" horiz-adv-x="474" 
d="M89 243q10 13 25 19t32 3q0 4 1 8.5t6 8.5q11 8 27.5 4t20.5 -12q1 -27 4 -73t9 -93.5t16 -87.5t25 -55q4 -5 0.5 -10t-10 -8.5t-15 -4.5t-12.5 2q-11 10 -19.5 28.5t-15.5 41.5t-13 50t-10 55q-5 -20 -11 -38.5t-17 -35.5q-14 -26 -32.5 -35t-35 -4.5t-27 22t-8.5 46.5
q3 48 16.5 89.5t43.5 79.5zM89 38q16 13 26.5 36.5t16 50.5t7 53.5t-0.5 45.5q-14 -14 -26.5 -37.5t-20 -49.5t-9 -52.5t6.5 -46.5zM207 128q-12 2 -13.5 12.5t10.5 14.5q5 1 10 1.5t10 0.5q2 29 8.5 57t18.5 45q18 25 38.5 22t35 -20.5t18 -43.5t-11.5 -47
q-8 -11 -21.5 -19t-29.5 -13q1 -40 12 -71.5t43 -40.5q26 5 48 22.5t40 35.5q6 5 13 4.5t12 -4t7 -9t-3 -11.5q-16 -15 -32 -27.5t-36 -22.5q-42 -20 -72 -16.5t-49.5 22t-29 48t-10.5 61.5q-5 0 -9.5 -0.5t-6.5 -0.5zM307 187q14 14 9 30.5t-16 24.5q-5 -6 -8 -15
t-5.5 -19.5t-3.5 -21t-2 -18.5q15 7 26 19zM254 424q6 5 13.5 4t13 -4.5t8 -9.5t-2.5 -12q-19 -20 -40.5 -41.5t-38.5 -44.5q-5 -5 -10.5 -5.5t-10 2.5t-6 8t2.5 11q19 23 35 47t36 45z" />
    <glyph glyph-name="cacute" unicode="&#x107;" 
d="M193 200q-4 -14 -13.5 -14.5t-15.5 11.5q-2 6 -10.5 24t-22.5 28q-7 -6 -12.5 -19.5t-9 -32t-4.5 -40.5t1 -43q2 -33 12.5 -60t27.5 -37q20 8 30 20t27 27q7 4 13.5 3.5t11 -4.5t5.5 -10t-4 -12q-11 -14 -28 -27t-37 -19q-35 -11 -58.5 0.5t-37 37t-18 59.5t-3 68t9.5 63
t19 44q16 20 36.5 20.5t38.5 -12t30 -33t12 -42.5zM126 424q6 5 13.5 4t13 -4.5t8 -9.5t-2.5 -12q-19 -20 -40.5 -41.5t-38.5 -44.5q-5 -5 -10.5 -5.5t-10 2.5t-6 8t2.5 11q19 23 35 47t36 45z" />
    <glyph glyph-name="ccaron" unicode="&#x10d;" 
d="M193 200q-4 -14 -13.5 -14.5t-15.5 11.5q-2 6 -10.5 24t-22.5 28q-7 -6 -12.5 -19.5t-9 -32t-4.5 -40.5t1 -43q2 -33 12.5 -60t27.5 -37q20 8 30 20t27 27q7 4 13.5 3.5t11 -4.5t5.5 -10t-4 -12q-11 -14 -28 -27t-37 -19q-35 -11 -58.5 0.5t-37 37t-18 59.5t-3 68t9.5 63
t19 44q16 20 36.5 20.5t38.5 -12t30 -33t12 -42.5zM58 391q-3 7 1 14t11.5 10.5t15 3.5t11.5 -6t7.5 -14.5t7 -15.5t7 -11.5t6.5 -4.5q2 1 6.5 15t6.5 33q4 14 14.5 13.5t13.5 -13.5q-1 -7 -4 -20t-7.5 -27t-10 -26.5t-11.5 -18.5q-5 -6 -14.5 -4t-18.5 10q-12 13 -23 30.5
t-19 31.5z" />
    <glyph glyph-name="ccedilla" unicode="&#xe7;" 
d="M172 12q2 -15 5.5 -33t-0.5 -32q-2 -9 -11 -15t-17 -11t-12.5 -9t2.5 -8q8 -5 21 -6t27 1q12 -4 12 -14.5t-13 -13.5q-12 -1 -29 -1t-32 2.5t-25.5 9t-11.5 19.5q-1 12 6 20t17 13.5t21 9.5t18 9q2 9 0 22t-4 25zM193 200q-4 -14 -13.5 -14.5t-15.5 11.5q-2 6 -10.5 24
t-22.5 28q-7 -6 -12.5 -19.5t-9 -32t-4.5 -40.5t1 -43q2 -33 12.5 -60t27.5 -37q20 8 30 20t27 27q7 4 13.5 3.5t11 -4.5t5.5 -10t-4 -12q-11 -14 -28 -27t-37 -19q-35 -11 -58.5 0.5t-37 37t-18 59.5t-3 68t9.5 63t19 44q16 20 36.5 20.5t38.5 -12t30 -33t12 -42.5z" />
    <glyph glyph-name="ccircumflex" unicode="&#x109;" 
d="M193 200q-4 -14 -13.5 -14.5t-15.5 11.5q-2 6 -10.5 24t-22.5 28q-7 -6 -12.5 -19.5t-9 -32t-4.5 -40.5t1 -43q2 -33 12.5 -60t27.5 -37q20 8 30 20t27 27q7 4 13.5 3.5t11 -4.5t5.5 -10t-4 -12q-11 -14 -28 -27t-37 -19q-35 -11 -58.5 0.5t-37 37t-18 59.5t-3 68t9.5 63
t19 44q16 20 36.5 20.5t38.5 -12t30 -33t12 -42.5zM100 321q-4 -5 -10.5 -6t-12.5 1t-10 6.5t-2 10.5q13 36 23.5 56t21.5 22t24.5 -15t31.5 -55q5 -14 -6.5 -17.5t-19.5 7.5q-6 14 -10.5 26.5t-8.5 13.5q-2 -1 -6.5 -11t-14.5 -39z" />
    <glyph glyph-name="cdotaccent" unicode="&#x10b;" 
d="M193 200q-4 -14 -13.5 -14.5t-15.5 11.5q-2 6 -10.5 24t-22.5 28q-7 -6 -12.5 -19.5t-9 -32t-4.5 -40.5t1 -43q2 -33 12.5 -60t27.5 -37q20 8 30 20t27 27q7 4 13.5 3.5t11 -4.5t5.5 -10t-4 -12q-11 -14 -28 -27t-37 -19q-35 -11 -58.5 0.5t-37 37t-18 59.5t-3 68t9.5 63
t19 44q16 20 36.5 20.5t38.5 -12t30 -33t12 -42.5zM97 350q-3 9 2.5 18t16.5 11q9 0 16 -7.5t2 -18.5q-7 -10 -18 -12.5t-19 9.5z" />
    <glyph glyph-name="dcaron" unicode="&#x10f;" horiz-adv-x="312" 
d="M142 256q5 34 -3 171q-1 9 6.5 13.5t17.5 5.5t19.5 -2t12.5 -9q3 -15 3 -47t0.5 -75t1.5 -92.5t5.5 -98.5t13 -94t23.5 -79q14 6 20.5 -2t-3.5 -19q-10 -8 -24.5 -9t-23.5 10q-18 20 -29 46t-18 54.5t-10 58t-5 57.5q-8 -26 -19.5 -48.5t-25.5 -40.5q-24 -29 -48 -26.5
t-27 43.5q-2 25 4.5 59t21.5 63.5t37 48t50 12.5zM83 73q23 26 36 66t19 84q-10 -9 -20.5 -28t-19 -41t-13.5 -44t-2 -37zM248 291q7 7 11.5 21t-4.5 22q-17 5 -20 13.5t0 16.5q2 9 10.5 14t18 5t17.5 -6.5t11 -22.5q4 -23 -6.5 -43.5t-20.5 -31.5q-3 -4 -7 -4.5t-7 1
t-4.5 5.5t1.5 10z" />
    <glyph glyph-name="dcroat" unicode="&#x111;" horiz-adv-x="261" 
d="M142 256q5 34 -3 171q-1 9 6.5 13.5t17.5 5.5t19.5 -2t12.5 -9q3 -15 3 -47t0.5 -75t1.5 -92.5t5.5 -98.5t13 -94t23.5 -79q14 6 20.5 -2t-3.5 -19q-10 -8 -24.5 -9t-23.5 10q-18 20 -29 46t-18 54.5t-10 58t-5 57.5q-8 -26 -19.5 -48.5t-25.5 -40.5q-24 -29 -48 -26.5
t-27 43.5q-2 25 4.5 59t21.5 63.5t37 48t50 12.5zM83 73q23 26 36 66t19 84q-10 -9 -20.5 -28t-19 -41t-13.5 -44t-2 -37zM91 290q-8 0 -11 5.5t-2.5 12t4.5 12t11 6.5q34 0 69.5 2.5t69.5 5.5q7 1 11.5 -2.5t5 -8.5t-3 -10t-10.5 -6q-35 -4 -72 -10.5t-72 -6.5z" />
    <glyph glyph-name="eacute" unicode="&#xe9;" horiz-adv-x="298" 
d="M21 128q-12 2 -13.5 12.5t10.5 14.5q5 1 10 1.5t10 0.5q2 29 8.5 57t18.5 45q18 25 38.5 22t35 -20.5t18 -43.5t-11.5 -47q-8 -11 -21.5 -19t-29.5 -13q1 -40 12 -71.5t43 -40.5q26 5 48 22.5t40 35.5q6 5 13 4.5t12 -4t7 -9t-3 -11.5q-16 -15 -32 -27.5t-36 -22.5
q-42 -20 -72 -16.5t-49.5 22t-29 48t-10.5 61.5q-5 0 -9.5 -0.5t-6.5 -0.5zM121 187q14 14 9 30.5t-16 24.5q-5 -6 -8 -15t-5.5 -19.5t-3.5 -21t-2 -18.5q15 7 26 19zM111 415q6 5 13.5 4t13 -4.5t8 -9.5t-2.5 -12q-19 -20 -40.5 -41.5t-38.5 -44.5q-5 -5 -10.5 -5.5
t-10 2.5t-6 8t2.5 11q19 23 35 47t36 45z" />
    <glyph glyph-name="ebreve" unicode="&#x115;" horiz-adv-x="298" 
d="M21 128q-12 2 -13.5 12.5t10.5 14.5q5 1 10 1.5t10 0.5q2 29 8.5 57t18.5 45q18 25 38.5 22t35 -20.5t18 -43.5t-11.5 -47q-8 -11 -21.5 -19t-29.5 -13q1 -40 12 -71.5t43 -40.5q26 5 48 22.5t40 35.5q6 5 13 4.5t12 -4t7 -9t-3 -11.5q-16 -15 -32 -27.5t-36 -22.5
q-42 -20 -72 -16.5t-49.5 22t-29 48t-10.5 61.5q-5 0 -9.5 -0.5t-6.5 -0.5zM121 187q14 14 9 30.5t-16 24.5q-5 -6 -8 -15t-5.5 -19.5t-3.5 -21t-2 -18.5q15 7 26 19zM36 379q-1 7 5.5 13.5t14.5 9.5t16 2t10 -8q4 -14 10 -25t12.5 -14t12 4t8.5 29q1 7 6 10.5t10 3t8.5 -5
t2.5 -11.5q-5 -34 -21 -49t-35 -14.5t-36 15.5t-24 40z" />
    <glyph glyph-name="ecaron" unicode="&#x11b;" horiz-adv-x="298" 
d="M21 128q-12 2 -13.5 12.5t10.5 14.5q5 1 10 1.5t10 0.5q2 29 8.5 57t18.5 45q18 25 38.5 22t35 -20.5t18 -43.5t-11.5 -47q-8 -11 -21.5 -19t-29.5 -13q1 -40 12 -71.5t43 -40.5q26 5 48 22.5t40 35.5q6 5 13 4.5t12 -4t7 -9t-3 -11.5q-16 -15 -32 -27.5t-36 -22.5
q-42 -20 -72 -16.5t-49.5 22t-29 48t-10.5 61.5q-5 0 -9.5 -0.5t-6.5 -0.5zM121 187q14 14 9 30.5t-16 24.5q-5 -6 -8 -15t-5.5 -19.5t-3.5 -21t-2 -18.5q15 7 26 19zM34 382q-3 7 1 14t11.5 10.5t15 3.5t11.5 -6t7.5 -14.5t7 -15.5t7 -11.5t6.5 -4.5q2 1 6.5 15t6.5 33
q4 14 14.5 13.5t13.5 -13.5q-1 -7 -4 -20t-7.5 -27t-10 -26.5t-11.5 -18.5q-5 -6 -14.5 -4t-18.5 10q-12 13 -23 30.5t-19 31.5z" />
    <glyph glyph-name="ecircumflex" unicode="&#xea;" horiz-adv-x="298" 
d="M21 128q-12 2 -13.5 12.5t10.5 14.5q5 1 10 1.5t10 0.5q2 29 8.5 57t18.5 45q18 25 38.5 22t35 -20.5t18 -43.5t-11.5 -47q-8 -11 -21.5 -19t-29.5 -13q1 -40 12 -71.5t43 -40.5q26 5 48 22.5t40 35.5q6 5 13 4.5t12 -4t7 -9t-3 -11.5q-16 -15 -32 -27.5t-36 -22.5
q-42 -20 -72 -16.5t-49.5 22t-29 48t-10.5 61.5q-5 0 -9.5 -0.5t-6.5 -0.5zM121 187q14 14 9 30.5t-16 24.5q-5 -6 -8 -15t-5.5 -19.5t-3.5 -21t-2 -18.5q15 7 26 19zM79 321q-4 -5 -10.5 -6t-12.5 1t-10 6.5t-2 10.5q13 36 23.5 56t21.5 22t24.5 -15t31.5 -55
q5 -14 -6.5 -17.5t-19.5 7.5q-6 14 -10.5 26.5t-8.5 13.5q-2 -1 -6.5 -11t-14.5 -39z" />
    <glyph glyph-name="edieresis" unicode="&#xeb;" horiz-adv-x="298" 
d="M21 128q-12 2 -13.5 12.5t10.5 14.5q5 1 10 1.5t10 0.5q2 29 8.5 57t18.5 45q18 25 38.5 22t35 -20.5t18 -43.5t-11.5 -47q-8 -11 -21.5 -19t-29.5 -13q1 -40 12 -71.5t43 -40.5q26 5 48 22.5t40 35.5q6 5 13 4.5t12 -4t7 -9t-3 -11.5q-16 -15 -32 -27.5t-36 -22.5
q-42 -20 -72 -16.5t-49.5 22t-29 48t-10.5 61.5q-5 0 -9.5 -0.5t-6.5 -0.5zM121 187q14 14 9 30.5t-16 24.5q-5 -6 -8 -15t-5.5 -19.5t-3.5 -21t-2 -18.5q15 7 26 19zM36 337q-3 9 2.5 18t16.5 11q9 0 16 -7.5t2 -18.5q-7 -9 -18 -12t-19 9zM116 342q-5 6 -2 12.5t9 10
t14 2.5t13 -11q1 -6 -2 -11.5t-8.5 -8.5t-12 -2.5t-11.5 8.5z" />
    <glyph glyph-name="edotaccent" unicode="&#x117;" horiz-adv-x="298" 
d="M21 128q-12 2 -13.5 12.5t10.5 14.5q5 1 10 1.5t10 0.5q2 29 8.5 57t18.5 45q18 25 38.5 22t35 -20.5t18 -43.5t-11.5 -47q-8 -11 -21.5 -19t-29.5 -13q1 -40 12 -71.5t43 -40.5q26 5 48 22.5t40 35.5q6 5 13 4.5t12 -4t7 -9t-3 -11.5q-16 -15 -32 -27.5t-36 -22.5
q-42 -20 -72 -16.5t-49.5 22t-29 48t-10.5 61.5q-5 0 -9.5 -0.5t-6.5 -0.5zM121 187q14 14 9 30.5t-16 24.5q-5 -6 -8 -15t-5.5 -19.5t-3.5 -21t-2 -18.5q15 7 26 19zM75 339q-3 9 2.5 18t16.5 11q9 0 16 -7.5t2 -18.5q-7 -10 -18 -12.5t-19 9.5z" />
    <glyph glyph-name="egrave" unicode="&#xe8;" horiz-adv-x="298" 
d="M21 128q-12 2 -13.5 12.5t10.5 14.5q5 1 10 1.5t10 0.5q2 29 8.5 57t18.5 45q18 25 38.5 22t35 -20.5t18 -43.5t-11.5 -47q-8 -11 -21.5 -19t-29.5 -13q1 -40 12 -71.5t43 -40.5q26 5 48 22.5t40 35.5q6 5 13 4.5t12 -4t7 -9t-3 -11.5q-16 -15 -32 -27.5t-36 -22.5
q-42 -20 -72 -16.5t-49.5 22t-29 48t-10.5 61.5q-5 0 -9.5 -0.5t-6.5 -0.5zM121 187q14 14 9 30.5t-16 24.5q-5 -6 -8 -15t-5.5 -19.5t-3.5 -21t-2 -18.5q15 7 26 19zM62 377q-5 5 -3.5 11t7 10t12 4.5t12.5 -3.5q16 -14 27 -29.5t24 -29.5q5 -5 4 -10.5t-4.5 -8.5
t-9.5 -3.5t-11 4.5q-12 12 -27.5 26.5t-30.5 28.5z" />
    <glyph glyph-name="emacron" unicode="&#x113;" horiz-adv-x="298" 
d="M21 128q-12 2 -13.5 12.5t10.5 14.5q5 1 10 1.5t10 0.5q2 29 8.5 57t18.5 45q18 25 38.5 22t35 -20.5t18 -43.5t-11.5 -47q-8 -11 -21.5 -19t-29.5 -13q1 -40 12 -71.5t43 -40.5q26 5 48 22.5t40 35.5q6 5 13 4.5t12 -4t7 -9t-3 -11.5q-16 -15 -32 -27.5t-36 -22.5
q-42 -20 -72 -16.5t-49.5 22t-29 48t-10.5 61.5q-5 0 -9.5 -0.5t-6.5 -0.5zM121 187q14 14 9 30.5t-16 24.5q-5 -6 -8 -15t-5.5 -19.5t-3.5 -21t-2 -18.5q15 7 26 19zM39 340q-8 0 -11 5.5t-2.5 11.5t4.5 11t11 6q29 1 58 0.5t58 0.5q12 -5 12 -15t-14 -13q-29 -1 -58 -4
t-58 -3z" />
    <glyph glyph-name="eogonek" unicode="&#x119;" horiz-adv-x="298" 
d="M21 128q-12 2 -13.5 12.5t10.5 14.5q5 1 10 1.5t10 0.5q2 29 8.5 57t18.5 45q18 25 38.5 22t35 -20.5t18 -43.5t-11.5 -47q-8 -11 -21.5 -19t-29.5 -13q1 -40 12 -71.5t43 -40.5q26 5 48 22.5t40 35.5q6 5 13 4.5t12 -4t7 -9t-3 -11.5q-16 -15 -32 -27.5t-36 -22.5
q-42 -20 -72 -16.5t-49.5 22t-29 48t-10.5 61.5q-5 0 -9.5 -0.5t-6.5 -0.5zM121 187q14 14 9 30.5t-16 24.5q-5 -6 -8 -15t-5.5 -19.5t-3.5 -21t-2 -18.5q15 7 26 19zM204 50q14 4 18.5 -6.5t-6.5 -18.5q-7 -6 -15 -17t-10.5 -21.5t5.5 -16.5t32 0q14 1 16.5 -9.5
t-8.5 -17.5q-39 -11 -59 -1.5t-23 28t10 41.5t40 39z" />
    <glyph glyph-name="ff" unicode="&#xfb00;" horiz-adv-x="402" 
d="M340 441q8 -9 1.5 -17t-18.5 -3q-3 2 -11 4.5t-17 5.5q-8 -35 -2.5 -69.5t8.5 -69.5q26 2 47 2.5t33 -1.5q7 -3 9.5 -8t1.5 -9.5t-6 -8t-12 -2.5q-11 0 -29 -0.5t-40 -2.5q5 -36 10.5 -88.5t8 -107t0 -103t-13.5 -75.5q-11 -26 -34.5 -35.5t-49.5 -14.5q-8 -1 -12.5 3
t-5.5 8.5t1.5 9t8.5 5.5q20 2 31 10t16.5 20.5t6.5 30.5t1 40q0 17 -1 47t-4 69t-7.5 84.5t-10.5 92.5q-30 -2 -61 -5t-60 -6q5 -38 10 -89.5t7 -102.5t-1 -96t-13 -71q-11 -26 -34 -35.5t-50 -14.5q-6 -1 -10.5 2t-6.5 7.5t0 9.5t9 7q21 3 32.5 11.5t16.5 22t5.5 30.5
t0.5 37q0 16 -1 44.5t-3.5 65t-6.5 79t-10 87.5l-51 -4q-14 2 -13 14t15 14q17 0 46 3q-3 20 -6 42.5t-5 46t-2 45.5t5 41q8 22 20.5 22.5t24.5 -1.5q16 -5 30 -10t24 -13q8 -9 2 -17t-19 -3l-29 10q-8 -31 -2.5 -68t12.5 -89l120 13q-2 19 -4.5 39.5t-4 41t-1 39.5t5.5 36
q3 11 8.5 16t11.5 6.5t12 0.5l12 -2q16 -5 30 -10t24 -13z" />
    <glyph glyph-name="gbreve" unicode="&#x11f;" 
d="M140 239q5 20 9 35.5t11 29.5q4 9 10.5 11.5t12 1t10 -6t6.5 -10.5v-26t-2 -34q2 -30 8.5 -61t14.5 -65q10 -48 20.5 -96.5t19.5 -97.5q13 2 25.5 3.5t26.5 3.5q6 0 10 -3t5.5 -7.5t0 -9t-8.5 -6.5l-28 -4l-28 -4q6 -42 8.5 -81.5t0.5 -79.5q-2 -35 -16 -58.5t-35.5 -37
t-47.5 -19t-52 -5.5q-32 0 -66.5 9.5t-63.5 26.5q-21 12 -38.5 27.5t-29 32.5t-15 35t2.5 36q10 27 45.5 48.5t79.5 37.5t90 27t79 17q-11 66 -24.5 123.5t-26.5 126.5q-7 -15 -18.5 -31.5t-25 -29t-29 -19t-29.5 -1.5q-9 4 -14 12t-7.5 18t-2 20.5t1.5 18.5q4 26 15.5 51
t34.5 41q12 7 28.5 6.5t31.5 -6.5zM204 -315q15 37 14.5 89.5t-8.5 107.5q-24 -5 -61.5 -13.5t-76.5 -22.5t-72 -32.5t-48 -42.5q-12 -18 -0.5 -39t36 -39t57.5 -31.5t65 -17t57.5 5.5t36.5 35zM132 211q-12 2 -22 -8t-16.5 -25t-9 -31.5t0.5 -27.5q12 14 24 39.5t23 52.5z
M40 379q-1 7 5.5 13.5t14.5 9.5t16 2t10 -8q4 -14 10 -25t12.5 -14t12 4t8.5 29q1 7 6 10.5t10 3t8.5 -5t2.5 -11.5q-5 -34 -21 -49t-35 -14.5t-36 15.5t-24 40z" />
    <glyph glyph-name="gcircumflex" unicode="&#x11d;" 
d="M140 239q5 20 9 35.5t11 29.5q4 9 10.5 11.5t12 1t10 -6t6.5 -10.5v-26t-2 -34q2 -30 8.5 -61t14.5 -65q10 -48 20.5 -96.5t19.5 -97.5q13 2 25.5 3.5t26.5 3.5q6 0 10 -3t5.5 -7.5t0 -9t-8.5 -6.5l-28 -4l-28 -4q6 -42 8.5 -81.5t0.5 -79.5q-2 -35 -16 -58.5t-35.5 -37
t-47.5 -19t-52 -5.5q-32 0 -66.5 9.5t-63.5 26.5q-21 12 -38.5 27.5t-29 32.5t-15 35t2.5 36q10 27 45.5 48.5t79.5 37.5t90 27t79 17q-11 66 -24.5 123.5t-26.5 126.5q-7 -15 -18.5 -31.5t-25 -29t-29 -19t-29.5 -1.5q-9 4 -14 12t-7.5 18t-2 20.5t1.5 18.5q4 26 15.5 51
t34.5 41q12 7 28.5 6.5t31.5 -6.5zM204 -315q15 37 14.5 89.5t-8.5 107.5q-24 -5 -61.5 -13.5t-76.5 -22.5t-72 -32.5t-48 -42.5q-12 -18 -0.5 -39t36 -39t57.5 -31.5t65 -17t57.5 5.5t36.5 35zM132 211q-12 2 -22 -8t-16.5 -25t-9 -31.5t0.5 -27.5q12 14 24 39.5t23 52.5z
M90 330q-4 -5 -10.5 -6t-12.5 1t-10 6.5t-2 10.5q13 36 23.5 56t21.5 22t24.5 -15t31.5 -55q5 -14 -6.5 -17.5t-19.5 7.5q-6 14 -10.5 26.5t-8.5 13.5q-2 -1 -6.5 -11t-14.5 -39z" />
    <glyph glyph-name="gcommaaccent" unicode="&#x123;" 
d="M140 239q5 20 9 35.5t11 29.5q4 9 10.5 11.5t12 1t10 -6t6.5 -10.5v-26t-2 -34q2 -30 8.5 -61t14.5 -65q10 -48 20.5 -96.5t19.5 -97.5q13 2 25.5 3.5t26.5 3.5q6 0 10 -3t5.5 -7.5t0 -9t-8.5 -6.5l-28 -4l-28 -4q6 -42 8.5 -81.5t0.5 -79.5q-2 -35 -16 -58.5t-35.5 -37
t-47.5 -19t-52 -5.5q-32 0 -66.5 9.5t-63.5 26.5q-21 12 -38.5 27.5t-29 32.5t-15 35t2.5 36q10 27 45.5 48.5t79.5 37.5t90 27t79 17q-11 66 -24.5 123.5t-26.5 126.5q-7 -15 -18.5 -31.5t-25 -29t-29 -19t-29.5 -1.5q-9 4 -14 12t-7.5 18t-2 20.5t1.5 18.5q4 26 15.5 51
t34.5 41q12 7 28.5 6.5t31.5 -6.5zM204 -315q15 37 14.5 89.5t-8.5 107.5q-24 -5 -61.5 -13.5t-76.5 -22.5t-72 -32.5t-48 -42.5q-12 -18 -0.5 -39t36 -39t57.5 -31.5t65 -17t57.5 5.5t36.5 35zM132 211q-12 2 -22 -8t-16.5 -25t-9 -31.5t0.5 -27.5q12 14 24 39.5t23 52.5z
M106 401q-7 -8 -11.5 -21.5t4.5 -21.5q17 -5 20 -13.5t0 -16.5q-2 -9 -10.5 -14.5t-18 -5.5t-17.5 7t-11 23q-4 23 6.5 43.5t20.5 31.5q5 7 14 3t3 -15z" />
    <glyph glyph-name="gdotaccent" unicode="&#x121;" 
d="M140 239q5 20 9 35.5t11 29.5q4 9 10.5 11.5t12 1t10 -6t6.5 -10.5v-26t-2 -34q2 -30 8.5 -61t14.5 -65q10 -48 20.5 -96.5t19.5 -97.5q13 2 25.5 3.5t26.5 3.5q6 0 10 -3t5.5 -7.5t0 -9t-8.5 -6.5l-28 -4l-28 -4q6 -42 8.5 -81.5t0.5 -79.5q-2 -35 -16 -58.5t-35.5 -37
t-47.5 -19t-52 -5.5q-32 0 -66.5 9.5t-63.5 26.5q-21 12 -38.5 27.5t-29 32.5t-15 35t2.5 36q10 27 45.5 48.5t79.5 37.5t90 27t79 17q-11 66 -24.5 123.5t-26.5 126.5q-7 -15 -18.5 -31.5t-25 -29t-29 -19t-29.5 -1.5q-9 4 -14 12t-7.5 18t-2 20.5t1.5 18.5q4 26 15.5 51
t34.5 41q12 7 28.5 6.5t31.5 -6.5zM204 -315q15 37 14.5 89.5t-8.5 107.5q-24 -5 -61.5 -13.5t-76.5 -22.5t-72 -32.5t-48 -42.5q-12 -18 -0.5 -39t36 -39t57.5 -31.5t65 -17t57.5 5.5t36.5 35zM132 211q-12 2 -22 -8t-16.5 -25t-9 -31.5t0.5 -27.5q12 14 24 39.5t23 52.5z
M76 324q-3 9 2.5 18t16.5 11q9 0 16 -7.5t2 -18.5q-7 -10 -18 -12.5t-19 9.5z" />
    <glyph glyph-name="hbar" unicode="&#x127;" horiz-adv-x="359" 
d="M47 445q2 7 10 11t18 4.5t18 -2.5t10 -11q0 -78 -0.5 -156.5t7.5 -167.5q12 35 27 71.5t38 56.5q10 9 25 8t20 -3q17 -10 26.5 -30t15 -44t9.5 -49.5t10.5 -48t18 -39t31.5 -21.5h8q11 -4 10.5 -14.5t-14.5 -12.5q-9 -2 -21 -2.5t-23 2.5q-23 7 -37.5 26.5t-23.5 43.5
t-14.5 49t-9.5 44l-2 9.5t-4.5 21t-6 22t-6.5 13.5q-15 -17 -25 -43t-17 -55.5t-11.5 -59t-7.5 -51.5q-1 -7 -8 -10.5t-16 -3.5t-17.5 3.5t-11.5 10.5q-9 21 -14.5 54t-8.5 72t-4 81t-1 82.5t0.5 76.5t1.5 62zM24 259q-8 0 -11 5.5t-2.5 11.5t4.5 11t11 6q29 1 58 0.5
t58 0.5q12 -5 12 -15t-14 -13q-29 -1 -58 -4t-58 -3z" />
    <glyph glyph-name="hcircumflex" unicode="&#x125;" horiz-adv-x="359" 
d="M47 445q2 7 10 11t18 4.5t18 -2.5t10 -11q0 -78 -0.5 -156.5t7.5 -167.5q12 35 27 71.5t38 56.5q10 9 25 8t20 -3q17 -10 26.5 -30t15 -44t9.5 -49.5t10.5 -48t18 -39t31.5 -21.5h8q11 -4 10.5 -14.5t-14.5 -12.5q-9 -2 -21 -2.5t-23 2.5q-23 7 -37.5 26.5t-23.5 43.5
t-14.5 49t-9.5 44l-2 9.5t-4.5 21t-6 22t-6.5 13.5q-15 -17 -25 -43t-17 -55.5t-11.5 -59t-7.5 -51.5q-1 -7 -8 -10.5t-16 -3.5t-17.5 3.5t-11.5 10.5q-9 21 -14.5 54t-8.5 72t-4 81t-1 82.5t0.5 76.5t1.5 62zM173 301q-4 -5 -10.5 -6t-12.5 1t-10 6.5t-2 10.5
q13 36 23.5 56t21.5 22t24.5 -15t31.5 -55q5 -14 -6.5 -17.5t-19.5 7.5q-6 14 -10.5 26.5t-8.5 13.5q-2 -1 -6.5 -11t-14.5 -39z" />
    <glyph glyph-name="dotlessi" unicode="&#x131;" horiz-adv-x="152" 
d="M46 249q1 11 8.5 16t16 5t16.5 -5t10 -14q0 -60 3.5 -120.5t3.5 -120.5q0 -8 -8.5 -12.5t-18.5 -5t-18.5 3t-9.5 12.5q0 62 -1.5 121.5t-1.5 119.5z" />
    <glyph glyph-name="iacute" unicode="&#xed;" horiz-adv-x="152" 
d="M46 249q1 11 8.5 16t16 5t16.5 -5t10 -14q0 -60 3.5 -120.5t3.5 -120.5q0 -8 -8.5 -12.5t-18.5 -5t-18.5 3t-9.5 12.5q0 62 -1.5 121.5t-1.5 119.5zM94 424q6 5 13.5 4t13 -4.5t8 -9.5t-2.5 -12q-19 -20 -40.5 -41.5t-38.5 -44.5q-5 -5 -10.5 -5.5t-10 2.5t-6 8t2.5 11
q19 23 35 47t36 45z" />
    <glyph glyph-name="ibreve" unicode="&#x12d;" horiz-adv-x="152" 
d="M46 249q1 11 8.5 16t16 5t16.5 -5t10 -14q0 -60 3.5 -120.5t3.5 -120.5q0 -8 -8.5 -12.5t-18.5 -5t-18.5 3t-9.5 12.5q0 62 -1.5 121.5t-1.5 119.5zM9 388q-1 7 5.5 13.5t14.5 9.5t16 2t10 -8q4 -14 10 -25t12.5 -14t12 4t8.5 29q1 7 6 10.5t10 3t8.5 -5t2.5 -11.5
q-5 -34 -21 -49t-35 -14.5t-36 15.5t-24 40z" />
    <glyph glyph-name="icircumflex" unicode="&#xee;" horiz-adv-x="152" 
d="M46 249q1 11 8.5 16t16 5t16.5 -5t10 -14q0 -60 3.5 -120.5t3.5 -120.5q0 -8 -8.5 -12.5t-18.5 -5t-18.5 3t-9.5 12.5q0 62 -1.5 121.5t-1.5 119.5zM50 321q-4 -5 -10.5 -6t-12.5 1t-10 6.5t-2 10.5q13 36 23.5 56t21.5 22t24.5 -15t31.5 -55q5 -14 -6.5 -17.5t-19.5 7.5
q-6 14 -10.5 26.5t-8.5 13.5q-2 -1 -6.5 -11t-14.5 -39z" />
    <glyph glyph-name="idieresis" unicode="&#xef;" horiz-adv-x="152" 
d="M46 249q1 11 8.5 16t16 5t16.5 -5t10 -14q0 -60 3.5 -120.5t3.5 -120.5q0 -8 -8.5 -12.5t-18.5 -5t-18.5 3t-9.5 12.5q0 62 -1.5 121.5t-1.5 119.5zM16 335q-3 9 2.5 18t16.5 11q9 0 16 -7.5t2 -18.5q-7 -9 -18 -12t-19 9zM96 340q-5 6 -2 12.5t9 10t14 2.5t13 -11
q1 -6 -2 -11.5t-8.5 -8.5t-12 -2.5t-11.5 8.5z" />
    <glyph glyph-name="igrave" unicode="&#xec;" horiz-adv-x="152" 
d="M46 249q1 11 8.5 16t16 5t16.5 -5t10 -14q0 -60 3.5 -120.5t3.5 -120.5q0 -8 -8.5 -12.5t-18.5 -5t-18.5 3t-9.5 12.5q0 62 -1.5 121.5t-1.5 119.5zM36 377q-5 5 -3.5 11t7 10t12 4.5t12.5 -3.5q16 -14 27 -29.5t24 -29.5q5 -5 4 -10.5t-4.5 -8.5t-9.5 -3.5t-11 4.5
q-12 12 -27.5 26.5t-30.5 28.5z" />
    <glyph glyph-name="imacron" unicode="&#x12b;" horiz-adv-x="152" 
d="M46 249q1 11 8.5 16t16 5t16.5 -5t10 -14q0 -60 3.5 -120.5t3.5 -120.5q0 -8 -8.5 -12.5t-18.5 -5t-18.5 3t-9.5 12.5q0 62 -1.5 121.5t-1.5 119.5zM19 340q-8 0 -11 5.5t-2.5 11.5t4.5 11t11 6q29 1 58 0.5t58 0.5q12 -5 12 -15t-14 -13q-29 -1 -58 -4t-58 -3z" />
    <glyph glyph-name="iogonek" unicode="&#x12f;" horiz-adv-x="152" 
d="M83 38q7 3 12 -2t7.5 -12.5t1.5 -15.5t-7 -12q-8 -6 -16 -17t-10 -21.5t6 -16.5t32 0q13 1 15.5 -9t-7.5 -17q-39 -11 -59 0.5t-23.5 33.5t9 47.5t39.5 41.5zM46 249q1 11 8.5 16t16 5t16.5 -5t10 -14q0 -60 3.5 -120.5t3.5 -120.5q0 -8 -8.5 -12.5t-18.5 -5t-18.5 3
t-9.5 12.5q0 62 -1.5 121.5t-1.5 119.5zM77 376q10 -7 13 -15.5t0 -14.5t-11 -8t-21 5q-8 4 -9 11.5t2.5 14t10.5 9.5t15 -2z" />
    <glyph glyph-name="itilde" unicode="&#x129;" horiz-adv-x="152" 
d="M46 249q1 11 8.5 16t16 5t16.5 -5t10 -14q0 -60 3.5 -120.5t3.5 -120.5q0 -8 -8.5 -12.5t-18.5 -5t-18.5 3t-9.5 12.5q0 62 -1.5 121.5t-1.5 119.5zM46 339q-8 -10 -18 -5.5t-7 17.5q11 26 22.5 34t22.5 5t21 -13t18 -21q8 11 12 13.5t7 1.5q5 -2 7.5 -8.5t-1.5 -14.5
q-7 -15 -16 -19.5t-19 -1.5t-19.5 11t-18.5 17q-5 -4 -7 -7.5t-4 -8.5z" />
    <glyph glyph-name="dotlessj" unicode="&#x237;" horiz-adv-x="175" 
d="M47 264q0 10 7.5 13.5t17.5 3t19.5 -5t12.5 -10.5q-3 -65 4 -128.5t15 -126.5l24 14q14 4 19 -7t-8 -18q-8 -4 -16 -7.5t-16 -8.5q2 -28 6 -64t6.5 -75t2.5 -78t-5 -73.5t-16 -61t-31 -40.5q-8 -5 -19.5 -7.5t-24.5 -2.5t-25 1.5t-20 5.5q-17 6 -30.5 17t-23.5 21
q-20 21 -34.5 49.5t-20 60t1 63t28.5 57.5q32 40 69.5 69t78.5 54l-16 142t-6 143zM45 -384q15 9 23.5 32t12.5 53.5t4 65.5t-2 69t-5 64.5t-6 51.5q-38 -22 -69.5 -51.5t-56.5 -63.5q-17 -23 -20.5 -51t2.5 -56t19.5 -53t30 -42t34.5 -23t33 4z" />
    <glyph glyph-name="jcircumflex" unicode="&#x135;" horiz-adv-x="175" 
d="M47 264q0 10 7.5 13.5t17.5 3t19.5 -5t12.5 -10.5q-3 -65 4 -128.5t15 -126.5l24 14q14 4 19 -7t-8 -18q-8 -4 -16 -7.5t-16 -8.5q2 -28 6 -64t6.5 -75t2.5 -78t-5 -73.5t-16 -61t-31 -40.5q-8 -5 -19.5 -7.5t-24.5 -2.5t-25 1.5t-20 5.5q-17 6 -30.5 17t-23.5 21
q-20 21 -34.5 49.5t-20 60t1 63t28.5 57.5q32 40 69.5 69t78.5 54l-16 142t-6 143zM45 -384q15 9 23.5 32t12.5 53.5t4 65.5t-2 69t-5 64.5t-6 51.5q-38 -22 -69.5 -51.5t-56.5 -63.5q-17 -23 -20.5 -51t2.5 -56t19.5 -53t30 -42t34.5 -23t33 4zM52 321q-4 -5 -10.5 -6
t-12.5 1t-10 6.5t-2 10.5q13 36 23.5 56t21.5 22t24.5 -15t31.5 -55q5 -14 -6.5 -17.5t-19.5 7.5q-6 14 -10.5 26.5t-8.5 13.5q-2 -1 -6.5 -11t-14.5 -39z" />
    <glyph glyph-name="kcommaaccent" unicode="&#x137;" horiz-adv-x="398" 
d="M204 352q1 7 6.5 10t11 2.5t9 -4.5t0.5 -11q-13 -38 -29 -66.5t-31 -49.5t-26.5 -35t-16.5 -24q0 -1 -1 -1q29 0 63 -14t68.5 -33t67 -39.5t56.5 -35.5q11 -8 7 -17.5t-18 -8.5q-25 14 -59 31.5t-70 32t-70.5 24t-61.5 7.5q-1 -6 -2 -23.5t-2.5 -37t-2.5 -37t-1 -23.5
q-1 -7 -9.5 -11t-18.5 -4.5t-18.5 3t-9.5 10.5l5 101q-7 2 -8.5 9t0 15.5t4.5 17t5 13.5q2 88 -1 175t-10 177q-1 9 6.5 13.5t17 5t19 -3t13.5 -9.5q8 -77 11 -146.5t2 -148.5q10 13 23.5 30t27 35t25 36t18.5 35zM191 -75q5 6 9.5 17t-3.5 18q-14 4 -16 11t0 13
q2 7 8.5 11.5t14.5 4t14.5 -6t8.5 -17.5q3 -19 -5 -35.5t-16 -25.5q-5 -6 -12.5 -3t-2.5 13z" />
    <glyph glyph-name="kgreenlandic" unicode="&#x138;" horiz-adv-x="398" 
d="M204 352q1 7 6.5 10t11 2.5t9 -4.5t0.5 -11q-13 -38 -29 -66.5t-31 -49.5t-26.5 -35t-16.5 -24q0 -1 -1 -1q29 0 63 -14t68.5 -33t67 -39.5t56.5 -35.5q11 -8 7 -17.5t-18 -8.5q-25 14 -59 31.5t-70 32t-70.5 24t-61.5 7.5q-1 -6 -2 -23.5t-2.5 -37t-2.5 -37t-1 -23.5
q-1 -7 -9.5 -11t-18.5 -4.5t-18.5 3t-9.5 10.5l5 101q-7 2 -8.5 9t0 15.5t4.5 17t5 13.5v64.5v36t-1 36t-3 64.5v1q0 2 -0.5 3t0.5 3v2q1 6 9 9t18 3t18.5 -3t10.5 -10q2 -13 3 -30.5t2 -37t1 -40v-38.5q10 13 23.5 30t27 35t25 36t18.5 35z" />
    <glyph glyph-name="lacute" unicode="&#x13a;" horiz-adv-x="152" 
d="M47 461q1 7 9 10.5t18 3.5t18.5 -3t10.5 -9q0 -59 -0.5 -127.5t0 -133t2 -118.5t6.5 -85q-1 -7 -6.5 -10.5t-13 -4.5t-14.5 1.5t-10 7.5q-9 34 -13 88.5t-6 119t-1.5 132.5t0.5 128zM93 612q6 5 13.5 4t13 -4.5t8 -9.5t-2.5 -12q-19 -20 -40.5 -41.5t-38.5 -44.5
q-5 -5 -10.5 -5.5t-10 2.5t-6 8t2.5 11q19 23 35 47t36 45z" />
    <glyph glyph-name="lcaron" unicode="&#x13e;" horiz-adv-x="213" 
d="M47 461q1 7 9 10.5t18 3.5t18.5 -3t10.5 -9q0 -59 -0.5 -127.5t0 -133t2 -118.5t6.5 -85q-1 -7 -6.5 -10.5t-13 -4.5t-14.5 1.5t-10 7.5q-9 34 -13 88.5t-6 119t-1.5 132.5t0.5 128zM149 291q7 7 11.5 21t-4.5 22q-17 5 -20 13.5t0 16.5q2 9 10.5 14t18 5t17.5 -6.5
t11 -22.5q4 -23 -6.5 -43.5t-20.5 -31.5q-3 -4 -7 -4.5t-7 1t-4.5 5.5t1.5 10z" />
    <glyph glyph-name="lcommaaccent" unicode="&#x13c;" horiz-adv-x="152" 
d="M47 461q1 7 9 10.5t18 3.5t18.5 -3t10.5 -9q0 -59 -0.5 -127.5t0 -133t2 -118.5t6.5 -85q-1 -7 -6.5 -10.5t-13 -4.5t-14.5 1.5t-10 7.5q-9 34 -13 88.5t-6 119t-1.5 132.5t0.5 128zM80 -126q5 6 9.5 17t-3.5 18q-14 4 -16 11t0 13q2 7 8.5 11.5t14.5 4t14.5 -6
t8.5 -17.5q3 -19 -5 -35.5t-16 -25.5q-5 -6 -12.5 -3t-2.5 13z" />
    <glyph glyph-name="ldot" unicode="&#x140;" horiz-adv-x="198" 
d="M47 461q1 7 9 10.5t18 3.5t18.5 -3t10.5 -9q0 -59 -0.5 -127.5t0 -133t2 -118.5t6.5 -85q-1 -7 -6.5 -10.5t-13 -4.5t-14.5 1.5t-10 7.5q-9 34 -13 88.5t-6 119t-1.5 132.5t0.5 128zM164 307q13 -7 14.5 -14t-3 -12t-12 -7t-12.5 1q-7 4 -8.5 11t0.5 13t7.5 9t13.5 -1z
" />
    <glyph glyph-name="lslash" unicode="&#x142;" horiz-adv-x="201" 
d="M67 461q1 7 9.5 10.5t18 3.5t18 -3t10.5 -9q-1 -52 -1.5 -110.5t0.5 -115.5q14 9 26 18t21 16q6 5 11.5 4.5t8.5 -4.5t3 -10t-6 -11l-64 -51q1 -63 3 -116.5t7 -83.5q-1 -7 -6.5 -10.5t-13 -4.5t-14.5 1.5t-10 7.5q-8 28 -12.5 71t-6.5 95q-20 -15 -36 -25q-7 -3 -12.5 0
t-8.5 9t-2.5 12.5t5.5 10.5l53 34q-2 65 -2 132.5t1 128.5z" />
    <glyph glyph-name="nacute" unicode="&#x144;" horiz-adv-x="322" 
d="M52 259q5 9 14 10.5t18 -2.5t15.5 -10.5t5.5 -12.5q-2 -26 -3.5 -49t-1.5 -41q3 10 6.5 22.5t8 24.5t11 23t15.5 18q14 12 31.5 8.5t24.5 -8.5q20 -17 29.5 -40.5t15 -49t11 -49.5t19.5 -41h14.5t13.5 -1q12 -5 12 -15.5t-13 -12.5t-30 -1t-26 3q-19 7 -30.5 30.5t-20 52
t-16 55.5t-18.5 41q-9 -6 -15 -30t-10.5 -52.5t-8.5 -56t-9 -40.5q-3 -6 -10.5 -8.5t-15.5 -2.5t-15.5 3t-10.5 8t-5.5 21t-5 37.5t-4 47t-1.5 48.5t1 42t4 28zM160 405q6 5 13.5 4t13 -4.5t8 -9.5t-2.5 -12q-19 -20 -40.5 -41.5t-38.5 -44.5q-5 -5 -10.5 -5.5t-10 2.5t-6 8
t2.5 11q19 23 35 47t36 45z" />
    <glyph glyph-name="napostrophe" unicode="&#x149;" horiz-adv-x="357" 
d="M87 259q5 9 14 10.5t18 -2.5t15.5 -10.5t5.5 -12.5q-2 -26 -3.5 -49t-1.5 -41q3 10 6.5 22.5t8 24.5t11 23t15.5 18q14 12 31.5 8.5t24.5 -8.5q20 -17 29.5 -40.5t15 -49t11 -49.5t19.5 -41h14.5t13.5 -1q12 -5 12 -15.5t-13 -12.5t-30 -1t-26 3q-19 7 -30.5 30.5t-20 52
t-16 55.5t-18.5 41q-9 -6 -15 -30t-10.5 -52.5t-8.5 -56t-9 -40.5q-3 -6 -10.5 -8.5t-15.5 -2.5t-15.5 3t-10.5 8t-5.5 21t-5 37.5t-4 47t-1.5 48.5t1 42t4 28zM21 257q5 6 9.5 17t-3.5 18q-14 4 -16 11t0 13q2 7 8.5 11.5t14.5 4t14.5 -6t8.5 -17.5q3 -19 -5 -35.5
t-16 -25.5q-5 -6 -12.5 -3t-2.5 13z" />
    <glyph glyph-name="ncaron" unicode="&#x148;" horiz-adv-x="322" 
d="M52 259q5 9 14 10.5t18 -2.5t15.5 -10.5t5.5 -12.5q-2 -26 -3.5 -49t-1.5 -41q3 10 6.5 22.5t8 24.5t11 23t15.5 18q14 12 31.5 8.5t24.5 -8.5q20 -17 29.5 -40.5t15 -49t11 -49.5t19.5 -41h14.5t13.5 -1q12 -5 12 -15.5t-13 -12.5t-30 -1t-26 3q-19 7 -30.5 30.5t-20 52
t-16 55.5t-18.5 41q-9 -6 -15 -30t-10.5 -52.5t-8.5 -56t-9 -40.5q-3 -6 -10.5 -8.5t-15.5 -2.5t-15.5 3t-10.5 8t-5.5 21t-5 37.5t-4 47t-1.5 48.5t1 42t4 28zM92 364q-3 7 1 14t11.5 10.5t15 3.5t11.5 -6t7.5 -14.5t7 -15.5t7 -11.5t6.5 -4.5q2 1 6.5 15t6.5 33
q4 14 14.5 13.5t13.5 -13.5q-1 -7 -4 -20t-7.5 -27t-10 -26.5t-11.5 -18.5q-5 -6 -14.5 -4t-18.5 10q-12 13 -23 30.5t-19 31.5z" />
    <glyph glyph-name="ncommaaccent" unicode="&#x146;" horiz-adv-x="322" 
d="M52 259q5 9 14 10.5t18 -2.5t15.5 -10.5t5.5 -12.5q-2 -26 -3.5 -49t-1.5 -41q3 10 6.5 22.5t8 24.5t11 23t15.5 18q14 12 31.5 8.5t24.5 -8.5q20 -17 29.5 -40.5t15 -49t11 -49.5t19.5 -41h14.5t13.5 -1q12 -5 12 -15.5t-13 -12.5t-30 -1t-26 3q-19 7 -30.5 30.5t-20 52
t-16 55.5t-18.5 41q-9 -6 -15 -30t-10.5 -52.5t-8.5 -56t-9 -40.5q-3 -6 -10.5 -8.5t-15.5 -2.5t-15.5 3t-10.5 8t-5.5 21t-5 37.5t-4 47t-1.5 48.5t1 42t4 28zM164 -72q5 6 9.5 17t-3.5 18q-14 4 -16 11t0 13q2 7 8.5 11.5t14.5 4t14.5 -6t8.5 -17.5q3 -19 -5 -35.5
t-16 -25.5q-5 -6 -12.5 -3t-2.5 13z" />
    <glyph glyph-name="ntilde" unicode="&#xf1;" horiz-adv-x="322" 
d="M52 259q5 9 14 10.5t18 -2.5t15.5 -10.5t5.5 -12.5q-2 -26 -3.5 -49t-1.5 -41q3 10 6.5 22.5t8 24.5t11 23t15.5 18q14 12 31.5 8.5t24.5 -8.5q20 -17 29.5 -40.5t15 -49t11 -49.5t19.5 -41h14.5t13.5 -1q12 -5 12 -15.5t-13 -12.5t-30 -1t-26 3q-19 7 -30.5 30.5t-20 52
t-16 55.5t-18.5 41q-9 -6 -15 -30t-10.5 -52.5t-8.5 -56t-9 -40.5q-3 -6 -10.5 -8.5t-15.5 -2.5t-15.5 3t-10.5 8t-5.5 21t-5 37.5t-4 47t-1.5 48.5t1 42t4 28zM127 321q-8 -10 -18 -5.5t-7 17.5q11 26 22.5 34t22.5 5t21 -13t18 -21q8 11 12 13.5t7 1.5q5 -2 7.5 -8.5
t-1.5 -14.5q-7 -15 -16 -19.5t-19 -1.5t-19.5 11t-18.5 17q-5 -4 -7 -7.5t-4 -8.5z" />
    <glyph glyph-name="oacute" unicode="&#xf3;" horiz-adv-x="225" 
d="M147 252q-1 -8 -5 -12q13 -17 23 -41t15.5 -49.5t5.5 -50.5t-8 -44.5t-25 -31t-45 -9.5q-24 1 -39 16t-22.5 37.5t-8 49.5t5 53.5t15.5 49t24 35.5q4 13 17 9q14 6 29 5t18 -17zM120 50q19 6 25.5 28.5t4 49.5t-11.5 53t-19 40q-18 -24 -21.5 -59t1.5 -62
q2 -11 6.5 -25.5t14.5 -24.5zM121 405q6 5 13.5 4t13 -4.5t8 -9.5t-2.5 -12q-19 -20 -40.5 -41.5t-38.5 -44.5q-5 -5 -10.5 -5.5t-10 2.5t-6 8t2.5 11q19 23 35 47t36 45z" />
    <glyph glyph-name="obreve" unicode="&#x14f;" horiz-adv-x="225" 
d="M147 252q-1 -8 -5 -12q13 -17 23 -41t15.5 -49.5t5.5 -50.5t-8 -44.5t-25 -31t-45 -9.5q-24 1 -39 16t-22.5 37.5t-8 49.5t5 53.5t15.5 49t24 35.5q4 13 17 9q14 6 29 5t18 -17zM120 50q19 6 25.5 28.5t4 49.5t-11.5 53t-19 40q-18 -24 -21.5 -59t1.5 -62
q2 -11 6.5 -25.5t14.5 -24.5zM44 369q-1 7 5.5 13.5t14.5 9.5t16 2t10 -8q4 -14 10 -25t12.5 -14t12 4t8.5 29q1 7 6 10.5t10 3t8.5 -5t2.5 -11.5q-5 -34 -21 -49t-35 -14.5t-36 15.5t-24 40z" />
    <glyph glyph-name="ocircumflex" unicode="&#xf4;" horiz-adv-x="225" 
d="M147 252q-1 -8 -5 -12q13 -17 23 -41t15.5 -49.5t5.5 -50.5t-8 -44.5t-25 -31t-45 -9.5q-24 1 -39 16t-22.5 37.5t-8 49.5t5 53.5t15.5 49t24 35.5q4 13 17 9q14 6 29 5t18 -17zM120 50q19 6 25.5 28.5t4 49.5t-11.5 53t-19 40q-18 -24 -21.5 -59t1.5 -62
q2 -11 6.5 -25.5t14.5 -24.5zM90 314q-4 -5 -10.5 -6t-12.5 1t-10 6.5t-2 10.5q13 36 23.5 56t21.5 22t24.5 -15t31.5 -55q5 -14 -6.5 -17.5t-19.5 7.5q-6 14 -10.5 26.5t-8.5 13.5q-2 -1 -6.5 -11t-14.5 -39z" />
    <glyph glyph-name="odieresis" unicode="&#xf6;" horiz-adv-x="225" 
d="M147 252q-1 -8 -5 -12q13 -17 23 -41t15.5 -49.5t5.5 -50.5t-8 -44.5t-25 -31t-45 -9.5q-24 1 -39 16t-22.5 37.5t-8 49.5t5 53.5t15.5 49t24 35.5q4 13 17 9q14 6 29 5t18 -17zM120 50q19 6 25.5 28.5t4 49.5t-11.5 53t-19 40q-18 -24 -21.5 -59t1.5 -62
q2 -11 6.5 -25.5t14.5 -24.5zM54 326q-3 9 2.5 18t16.5 11q9 0 16 -7.5t2 -18.5q-7 -9 -18 -12t-19 9zM134 331q-5 6 -2 12.5t9 10t14 2.5t13 -11q1 -6 -2 -11.5t-8.5 -8.5t-12 -2.5t-11.5 8.5z" />
    <glyph glyph-name="ograve" unicode="&#xf2;" horiz-adv-x="225" 
d="M147 252q-1 -8 -5 -12q13 -17 23 -41t15.5 -49.5t5.5 -50.5t-8 -44.5t-25 -31t-45 -9.5q-24 1 -39 16t-22.5 37.5t-8 49.5t5 53.5t15.5 49t24 35.5q4 13 17 9q14 6 29 5t18 -17zM120 50q19 6 25.5 28.5t4 49.5t-11.5 53t-19 40q-18 -24 -21.5 -59t1.5 -62
q2 -11 6.5 -25.5t14.5 -24.5zM72 368q-5 5 -3.5 11t7 10t12 4.5t12.5 -3.5q16 -14 27 -29.5t24 -29.5q5 -5 4 -10.5t-4.5 -8.5t-9.5 -3.5t-11 4.5q-12 12 -27.5 26.5t-30.5 28.5z" />
    <glyph glyph-name="ohungarumlaut" unicode="&#x151;" horiz-adv-x="225" 
d="M147 252q-1 -8 -5 -12q13 -17 23 -41t15.5 -49.5t5.5 -50.5t-8 -44.5t-25 -31t-45 -9.5q-24 1 -39 16t-22.5 37.5t-8 49.5t5 53.5t15.5 49t24 35.5q4 13 17 9q14 6 29 5t18 -17zM120 50q19 6 25.5 28.5t4 49.5t-11.5 53t-19 40q-18 -24 -21.5 -59t1.5 -62
q2 -11 6.5 -25.5t14.5 -24.5zM129 404q2 7 7.5 9.5t11 2t10 -4t4.5 -9.5q0 -5 -2.5 -15.5t-6.5 -23t-8.5 -25t-7.5 -20.5q-5 -12 -15.5 -10t-11.5 14q8 28 12.5 50t6.5 32zM79 407q7 11 19.5 8.5t10.5 -16.5q-6 -21 -13 -43t-13 -38q-5 -12 -15.5 -10t-11.5 14q5 18 11.5 43
t11.5 42z" />
    <glyph glyph-name="omacron" unicode="&#x14d;" horiz-adv-x="225" 
d="M147 252q-1 -8 -5 -12q13 -17 23 -41t15.5 -49.5t5.5 -50.5t-8 -44.5t-25 -31t-45 -9.5q-24 1 -39 16t-22.5 37.5t-8 49.5t5 53.5t15.5 49t24 35.5q4 13 17 9q14 6 29 5t18 -17zM120 50q19 6 25.5 28.5t4 49.5t-11.5 53t-19 40q-18 -24 -21.5 -59t1.5 -62
q2 -11 6.5 -25.5t14.5 -24.5zM52 321q-8 0 -11 5.5t-2.5 11.5t4.5 11t11 6q29 1 58 0.5t58 0.5q12 -5 12 -15t-14 -13q-29 -1 -58 -4t-58 -3z" />
    <glyph glyph-name="oslash" unicode="&#xf8;" horiz-adv-x="225" 
d="M138 299q5 18 17 15t13 -17l-12 -80q14 -27 22.5 -62t6.5 -65.5t-17.5 -52.5t-48.5 -23l-6 -31q-3 -9 -9 -12.5t-12 -2t-10.5 7t-2.5 15.5l2 14t3 15q-17 8 -27 25.5t-14.5 39.5t-3.5 47t6.5 48t15 43t22.5 32q4 13 17 9q8 3 16 4.5t15 -0.5zM99 100q5 31 11 60t11 57
l-2 4q-18 -24 -21.5 -58.5t1.5 -62.5zM126 53q20 11 23 41t-4 62z" />
    <glyph glyph-name="oe" unicode="&#x153;" horiz-adv-x="393" 
d="M137 252q-1 -8 -5 -12q13 -17 23 -41t15.5 -49.5t5.5 -50.5t-8 -44.5t-25 -31t-45 -9.5q-24 1 -39 16t-22.5 37.5t-8 49.5t5 53.5t15.5 49t24 35.5q4 13 17 9q14 6 29 5t18 -17zM110 50q19 6 25.5 28.5t4 49.5t-11.5 53t-19 40q-18 -24 -21.5 -59t1.5 -62
q2 -11 6.5 -25.5t14.5 -24.5zM124 128q-12 2 -13.5 12.5t10.5 14.5q5 1 10 1.5t10 0.5q2 29 8.5 57t18.5 45q18 25 38.5 22t35 -20.5t18 -43.5t-11.5 -47q-8 -11 -21.5 -19t-29.5 -13q1 -40 12 -71.5t43 -40.5q26 5 48 22.5t40 35.5q6 5 13 4.5t12 -4t7 -9t-3 -11.5
q-16 -15 -32 -27.5t-36 -22.5q-42 -20 -72 -16.5t-49.5 22t-29 48t-10.5 61.5q-5 0 -9.5 -0.5t-6.5 -0.5zM224 187q14 14 9 30.5t-16 24.5q-5 -6 -8 -15t-5.5 -19.5t-3.5 -21t-2 -18.5q15 7 26 19z" />
    <glyph glyph-name="oslashacute" unicode="&#x1ff;" horiz-adv-x="225" 
d="M130 424q6 5 13.5 4t13 -4.5t8 -9.5t-2.5 -12q-19 -20 -40.5 -41.5t-38.5 -44.5q-5 -5 -10.5 -5.5t-10 2.5t-6 8t2.5 11q19 23 35 47t36 45zM138 299q5 18 17 15t13 -17l-12 -80q14 -27 22.5 -62t6.5 -65.5t-17.5 -52.5t-48.5 -23l-6 -31q-3 -9 -9 -12.5t-12 -2t-10.5 7
t-2.5 15.5l2 14t3 15q-17 8 -27 25.5t-14.5 39.5t-3.5 47t6.5 48t15 43t22.5 32q4 13 17 9q8 3 16 4.5t15 -0.5zM99 100q5 31 11 60t11 57l-2 4q-18 -24 -21.5 -58.5t1.5 -62.5zM126 53q20 11 23 41t-4 62z" />
    <glyph glyph-name="otilde" unicode="&#xf5;" horiz-adv-x="225" 
d="M147 252q-1 -8 -5 -12q13 -17 23 -41t15.5 -49.5t5.5 -50.5t-8 -44.5t-25 -31t-45 -9.5q-24 1 -39 16t-22.5 37.5t-8 49.5t5 53.5t15.5 49t24 35.5q4 13 17 9q14 6 29 5t18 -17zM120 50q19 6 25.5 28.5t4 49.5t-11.5 53t-19 40q-18 -24 -21.5 -59t1.5 -62
q2 -11 6.5 -25.5t14.5 -24.5zM82 339q-8 -10 -18 -5.5t-7 17.5q11 26 22.5 34t22.5 5t21 -13t18 -21q8 11 12 13.5t7 1.5q5 -2 7.5 -8.5t-1.5 -14.5q-7 -15 -16 -19.5t-19 -1.5t-19.5 11t-18.5 17q-5 -4 -7 -7.5t-4 -8.5z" />
    <glyph glyph-name="racute" unicode="&#x155;" horiz-adv-x="272" 
d="M38 281q2 11 10 15t18 3t18 -5.5t10 -10.5q0 -8 1 -28.5t3 -47.5q17 35 51 60.5t97 44.5q14 1 16.5 -9.5t-8.5 -17.5q-60 -17 -87 -43t-35 -60.5t-6.5 -78.5t-1.5 -98q-1 -6 -7.5 -9.5t-15.5 -5t-17.5 -1t-12.5 4.5q-3 6 -7 26.5t-7.5 49t-7 62t-6 63.5t-4 53t-1.5 33z
M154 452q6 5 13.5 4t13 -4.5t8 -9.5t-2.5 -12q-19 -20 -40.5 -41.5t-38.5 -44.5q-5 -5 -10.5 -5.5t-10 2.5t-6 8t2.5 11q19 23 35 47t36 45z" />
    <glyph glyph-name="rcaron" unicode="&#x159;" horiz-adv-x="272" 
d="M38 281q2 11 10 15t18 3t18 -5.5t10 -10.5q0 -8 1 -28.5t3 -47.5q17 35 51 60.5t97 44.5q14 1 16.5 -9.5t-8.5 -17.5q-60 -17 -87 -43t-35 -60.5t-6.5 -78.5t-1.5 -98q-1 -6 -7.5 -9.5t-15.5 -5t-17.5 -1t-12.5 4.5q-3 6 -7 26.5t-7.5 49t-7 62t-6 63.5t-4 53t-1.5 33z
M70 405q-3 7 1 14t11.5 10.5t15 3.5t11.5 -6t7.5 -14.5t7 -15.5t7 -11.5t6.5 -4.5q2 1 6.5 15t6.5 33q4 14 14.5 13.5t13.5 -13.5q-1 -7 -4 -20t-7.5 -27t-10 -26.5t-11.5 -18.5q-5 -6 -14.5 -4t-18.5 10q-12 13 -23 30.5t-19 31.5z" />
    <glyph glyph-name="rcommaaccent" unicode="&#x157;" horiz-adv-x="272" 
d="M38 281q2 11 10 15t18 3t18 -5.5t10 -10.5q0 -8 1 -28.5t3 -47.5q17 35 51 60.5t97 44.5q14 1 16.5 -9.5t-8.5 -17.5q-60 -17 -87 -43t-35 -60.5t-6.5 -78.5t-1.5 -98q-1 -6 -7.5 -9.5t-15.5 -5t-17.5 -1t-12.5 4.5q-3 6 -7 26.5t-7.5 49t-7 62t-6 63.5t-4 53t-1.5 33z
M89 -122q5 6 9.5 17t-3.5 18q-14 4 -16 11t0 13q2 7 8.5 11.5t14.5 4t14.5 -6t8.5 -17.5q3 -19 -5 -35.5t-16 -25.5q-5 -6 -12.5 -3t-2.5 13z" />
    <glyph glyph-name="sacute" unicode="&#x15b;" horiz-adv-x="293" 
d="M207 230q-2 -13 -13.5 -15t-19.5 9q-6 23 -23 37.5t-31 10.5q-18 -4 -18 -16.5t11 -28.5t29.5 -34t37 -35t33.5 -30t20 -18q16 -16 22 -32.5t-4 -33.5t-36 -29.5t-57 -18.5t-60 -4t-44 14q-17 14 -16 30t6 35q1 7 7.5 10.5t13 3t11.5 -5t4 -11.5q-2 -7 -2.5 -14t1.5 -14
t15.5 -11t30.5 -4t34 3.5t26.5 12t8 21.5t-21.5 31q-34 29 -66.5 58t-45.5 64q-12 34 -2 55t29 29q15 6 33 3.5t35.5 -11.5t31.5 -24.5t20 -36.5zM140 443q6 5 13.5 4t13 -4.5t8 -9.5t-2.5 -12q-19 -20 -40.5 -41.5t-38.5 -44.5q-5 -5 -10.5 -5.5t-10 2.5t-6 8t2.5 11
q19 23 35 47t36 45z" />
    <glyph glyph-name="scaron" unicode="&#x161;" horiz-adv-x="293" 
d="M207 230q-2 -13 -13.5 -15t-19.5 9q-6 23 -23 37.5t-31 10.5q-18 -4 -18 -16.5t11 -28.5t29.5 -34t37 -35t33.5 -30t20 -18q16 -16 22 -32.5t-4 -33.5t-36 -29.5t-57 -18.5t-60 -4t-44 14q-17 14 -16 30t6 35q1 7 7.5 10.5t13 3t11.5 -5t4 -11.5q-2 -7 -2.5 -14t1.5 -14
t15.5 -11t30.5 -4t34 3.5t26.5 12t8 21.5t-21.5 31q-34 29 -66.5 58t-45.5 64q-12 34 -2 55t29 29q15 6 33 3.5t35.5 -11.5t31.5 -24.5t20 -36.5zM61 403q-3 7 1 14t11.5 10.5t15 3.5t11.5 -6t7.5 -14.5t7 -15.5t7 -11.5t6.5 -4.5q2 1 6.5 15t6.5 33q4 14 14.5 13.5
t13.5 -13.5q-1 -7 -4 -20t-7.5 -27t-10 -26.5t-11.5 -18.5q-5 -6 -14.5 -4t-18.5 10q-12 13 -23 30.5t-19 31.5z" />
    <glyph glyph-name="scedilla" unicode="&#x15f;" horiz-adv-x="293" 
d="M207 230q-2 -13 -13.5 -15t-19.5 9q-6 23 -23 37.5t-31 10.5q-18 -4 -18 -16.5t11 -28.5t29.5 -34t37 -35t33.5 -30t20 -18q16 -16 22 -32.5t-4 -33.5q-9 -16 -31.5 -27.5t-50.5 -17.5q2 -14 4 -27t0 -23q-2 -9 -11 -15.5t-17.5 -11t-13 -8.5t2.5 -8q8 -5 21.5 -6t27.5 1
q12 -4 12 -14.5t-14 -13.5q-12 -1 -29 -1t-32 2.5t-25.5 9t-11.5 19.5q-1 12 6 20t17 13.5t21 9.5t19 9q0 8 -0.5 18t-2.5 20q-27 -4 -51 -1t-38 14q-17 14 -16 30t6 35q1 7 7.5 10.5t13 3t11.5 -5t4 -11.5q-2 -7 -2.5 -14t1.5 -14t15.5 -11t30.5 -4t34 3.5t26.5 12t8 21.5
t-21.5 31q-17 15 -33.5 28t-31.5 27t-27 30t-20 37q-13 34 -2.5 55t29.5 29q15 6 33 3.5t35.5 -11.5t31.5 -24.5t20 -36.5z" />
    <glyph glyph-name="scircumflex" unicode="&#x15d;" horiz-adv-x="293" 
d="M207 230q-2 -13 -13.5 -15t-19.5 9q-6 23 -23 37.5t-31 10.5q-18 -4 -18 -16.5t11 -28.5t29.5 -34t37 -35t33.5 -30t20 -18q16 -16 22 -32.5t-4 -33.5t-36 -29.5t-57 -18.5t-60 -4t-44 14q-17 14 -16 30t6 35q1 7 7.5 10.5t13 3t11.5 -5t4 -11.5q-2 -7 -2.5 -14t1.5 -14
t15.5 -11t30.5 -4t34 3.5t26.5 12t8 21.5t-21.5 31q-34 29 -66.5 58t-45.5 64q-12 34 -2 55t29 29q15 6 33 3.5t35.5 -11.5t31.5 -24.5t20 -36.5zM103 337q-4 -5 -10.5 -6t-12.5 1t-10 6.5t-2 10.5q13 36 23.5 56t21.5 22t24.5 -15t31.5 -55q5 -14 -6.5 -17.5t-19.5 7.5
q-6 14 -10.5 26.5t-8.5 13.5q-2 -1 -6.5 -11t-14.5 -39z" />
    <glyph glyph-name="scommaaccent" unicode="&#x219;" horiz-adv-x="293" 
d="M207 230q-2 -13 -13.5 -15t-19.5 9q-6 23 -23 37.5t-31 10.5q-18 -4 -18 -16.5t11 -28.5t29.5 -34t37 -35t33.5 -30t20 -18q16 -16 22 -32.5t-4 -33.5t-36 -29.5t-57 -18.5t-60 -4t-44 14q-17 14 -16 30t6 35q1 7 7.5 10.5t13 3t11.5 -5t4 -11.5q-2 -7 -2.5 -14t1.5 -14
t15.5 -11t30.5 -4t34 3.5t26.5 12t8 21.5t-21.5 31q-34 29 -66.5 58t-45.5 64q-12 34 -2 55t29 29q15 6 33 3.5t35.5 -11.5t31.5 -24.5t20 -36.5zM138 -102q5 6 9.5 17t-3.5 18q-14 4 -16 11t0 13q2 7 8.5 11.5t14.5 4t14.5 -6t8.5 -17.5q3 -19 -5 -35.5t-16 -25.5
q-5 -6 -12.5 -3t-2.5 13z" />
    <glyph glyph-name="tbar" unicode="&#x167;" horiz-adv-x="293" 
d="M159 204q3 -42 7.5 -86t9.5 -84.5t10 -74.5t9 -57q-1 -9 -7.5 -14t-14.5 -5.5t-15.5 3t-9.5 10.5q-19 76 -29.5 150.5t-15.5 150.5l-81 -9q-14 2 -13 14.5t15 13.5l77 9q0 9 -0.5 18t-0.5 19q-19 -4 -38.5 -5.5t-39.5 -2.5q-14 2 -13 14t15 14q19 1 37.5 2.5t37.5 4.5
q-2 51 -2.5 102.5t-0.5 103.5q1 7 9.5 10.5t18 3.5t18 -3t10.5 -9q0 -51 0.5 -101t2.5 -100q29 5 58 9t58 6q12 -5 12 -15.5t-13 -12.5q-29 -2 -57 -6t-57 -9q0 -9 0.5 -18t1.5 -19l113 14q12 -4 12 -14.5t-13 -13.5z" />
    <glyph glyph-name="tcaron" unicode="&#x165;" horiz-adv-x="324" 
d="M22 254q-14 2 -13 14t15 14q19 1 37.5 2.5t37.5 4.5q-2 51 -2.5 102.5t-0.5 103.5q1 7 9.5 10.5t18 3.5t18 -3t10.5 -9q0 -51 0.5 -101t2.5 -100q29 5 58 9t58 6q12 -5 12 -15.5t-13 -12.5q-29 -2 -57 -6t-57 -9q2 -46 6.5 -98.5t10 -103t11.5 -94t11 -70.5
q-1 -9 -7.5 -14t-14.5 -5.5t-15.5 3t-9.5 10.5q-23 92 -33.5 182t-14.5 184q-19 -4 -38.5 -5.5t-39.5 -2.5zM260 381q7 7 11.5 21t-4.5 22q-17 5 -20 13.5t0 16.5q2 9 10.5 14t18 5t17.5 -6.5t11 -22.5q4 -23 -6.5 -43.5t-20.5 -31.5q-3 -4 -7 -4.5t-7 1t-4.5 5.5t1.5 10z
" />
    <glyph glyph-name="tcommaaccent" unicode="&#x163;" horiz-adv-x="293" 
d="M22 254q-14 2 -13 14t15 14q19 1 37.5 2.5t37.5 4.5q-2 51 -2.5 102.5t-0.5 103.5q1 7 9.5 10.5t18 3.5t18 -3t10.5 -9q0 -51 0.5 -101t2.5 -100q29 5 58 9t58 6q12 -5 12 -15.5t-13 -12.5q-29 -2 -57 -6t-57 -9q2 -46 6.5 -98.5t10 -103t11.5 -94t11 -70.5
q-1 -9 -7.5 -14t-14.5 -5.5t-15.5 3t-9.5 10.5q-23 92 -33.5 182t-14.5 184q-19 -4 -38.5 -5.5t-39.5 -2.5zM178 -225q5 6 9.5 17t-3.5 18q-14 4 -16 11t0 13q2 7 8.5 11.5t14.5 4t14.5 -6t8.5 -17.5q3 -19 -5 -35.5t-16 -25.5q-5 -6 -12.5 -3t-2.5 13z" />
    <glyph glyph-name="uacute" unicode="&#xfa;" horiz-adv-x="290" 
d="M43 245q2 10 10 13.5t17.5 3t18 -4.5t10.5 -10q1 -16 1.5 -36t3 -39.5t6.5 -36.5t12 -26q10 10 17 29t11.5 42t7 47t2.5 44q2 8 10 11.5t17.5 3.5t17.5 -3.5t10 -9.5q5 -37 8.5 -78.5t10 -82t19.5 -78.5t37 -68q7 -8 -4 -15.5t-23 -6.5q-7 0 -16 9q-33 42 -49 96t-24 111
q-3 -11 -8 -26t-12.5 -28.5t-18.5 -23t-27 -10.5q-14 -1 -27 8t-19 29q-11 33 -14 65.5t-5 70.5zM144 424q6 5 13.5 4t13 -4.5t8 -9.5t-2.5 -12q-19 -20 -40.5 -41.5t-38.5 -44.5q-5 -5 -10.5 -5.5t-10 2.5t-6 8t2.5 11q19 23 35 47t36 45z" />
    <glyph glyph-name="ubreve" unicode="&#x16d;" horiz-adv-x="290" 
d="M43 245q2 10 10 13.5t17.5 3t18 -4.5t10.5 -10q1 -16 1.5 -36t3 -39.5t6.5 -36.5t12 -26q10 10 17 29t11.5 42t7 47t2.5 44q2 8 10 11.5t17.5 3.5t17.5 -3.5t10 -9.5q5 -37 8.5 -78.5t10 -82t19.5 -78.5t37 -68q7 -8 -4 -15.5t-23 -6.5q-7 0 -16 9q-33 42 -49 96t-24 111
q-3 -11 -8 -26t-12.5 -28.5t-18.5 -23t-27 -10.5q-14 -1 -27 8t-19 29q-11 33 -14 65.5t-5 70.5zM58 388q-1 7 5.5 13.5t14.5 9.5t16 2t10 -8q4 -14 10 -25t12.5 -14t12 4t8.5 29q1 7 6 10.5t10 3t8.5 -5t2.5 -11.5q-5 -34 -21 -49t-35 -14.5t-36 15.5t-24 40z" />
    <glyph glyph-name="ucircumflex" unicode="&#xfb;" horiz-adv-x="290" 
d="M43 245q2 10 10 13.5t17.5 3t18 -4.5t10.5 -10q1 -16 1.5 -36t3 -39.5t6.5 -36.5t12 -26q10 10 17 29t11.5 42t7 47t2.5 44q2 8 10 11.5t17.5 3.5t17.5 -3.5t10 -9.5q5 -37 8.5 -78.5t10 -82t19.5 -78.5t37 -68q7 -8 -4 -15.5t-23 -6.5q-7 0 -16 9q-33 42 -49 96t-24 111
q-3 -11 -8 -26t-12.5 -28.5t-18.5 -23t-27 -10.5q-14 -1 -27 8t-19 29q-11 33 -14 65.5t-5 70.5zM109 321q-4 -5 -10.5 -6t-12.5 1t-10 6.5t-2 10.5q13 36 23.5 56t21.5 22t24.5 -15t31.5 -55q5 -14 -6.5 -17.5t-19.5 7.5q-6 14 -10.5 26.5t-8.5 13.5q-2 -1 -6.5 -11
t-14.5 -39z" />
    <glyph glyph-name="udieresis" unicode="&#xfc;" horiz-adv-x="290" 
d="M43 245q2 10 10 13.5t17.5 3t18 -4.5t10.5 -10q1 -16 1.5 -36t3 -39.5t6.5 -36.5t12 -26q10 10 17 29t11.5 42t7 47t2.5 44q2 8 10 11.5t17.5 3.5t17.5 -3.5t10 -9.5q5 -37 8.5 -78.5t10 -82t19.5 -78.5t37 -68q7 -8 -4 -15.5t-23 -6.5q-7 0 -16 9q-33 42 -49 96t-24 111
q-3 -11 -8 -26t-12.5 -28.5t-18.5 -23t-27 -10.5q-14 -1 -27 8t-19 29q-11 33 -14 65.5t-5 70.5zM61 344q-3 9 2.5 18t16.5 11q9 0 16 -7.5t2 -18.5q-7 -9 -18 -12t-19 9zM141 349q-5 6 -2 12.5t9 10t14 2.5t13 -11q1 -6 -2 -11.5t-8.5 -8.5t-12 -2.5t-11.5 8.5z" />
    <glyph glyph-name="uhungarumlaut" unicode="&#x171;" horiz-adv-x="290" 
d="M43 245q2 10 10 13.5t17.5 3t18 -4.5t10.5 -10q1 -16 1.5 -36t3 -39.5t6.5 -36.5t12 -26q10 10 17 29t11.5 42t7 47t2.5 44q2 8 10 11.5t17.5 3.5t17.5 -3.5t10 -9.5q5 -37 8.5 -78.5t10 -82t19.5 -78.5t37 -68q7 -8 -4 -15.5t-23 -6.5q-7 0 -16 9q-33 42 -49 96t-24 111
q-3 -11 -8 -26t-12.5 -28.5t-18.5 -23t-27 -10.5q-14 -1 -27 8t-19 29q-11 33 -14 65.5t-5 70.5zM147 423q2 7 7.5 9.5t11 2t10 -4t4.5 -9.5q0 -5 -2.5 -15.5t-6.5 -23t-8.5 -25t-7.5 -20.5q-5 -12 -15.5 -10t-11.5 14q8 28 12.5 50t6.5 32zM97 426q7 11 19.5 8.5
t10.5 -16.5q-6 -21 -13 -43t-13 -38q-5 -12 -15.5 -10t-11.5 14q5 18 11.5 43t11.5 42z" />
    <glyph glyph-name="ugrave" unicode="&#xf9;" horiz-adv-x="290" 
d="M43 245q2 10 10 13.5t17.5 3t18 -4.5t10.5 -10q1 -16 1.5 -36t3 -39.5t6.5 -36.5t12 -26q10 10 17 29t11.5 42t7 47t2.5 44q2 8 10 11.5t17.5 3.5t17.5 -3.5t10 -9.5q5 -37 8.5 -78.5t10 -82t19.5 -78.5t37 -68q7 -8 -4 -15.5t-23 -6.5q-7 0 -16 9q-33 42 -49 96t-24 111
q-3 -11 -8 -26t-12.5 -28.5t-18.5 -23t-27 -10.5q-14 -1 -27 8t-19 29q-11 33 -14 65.5t-5 70.5zM68 386q-5 5 -3.5 11t7 10t12 4.5t12.5 -3.5q16 -14 27 -29.5t24 -29.5q5 -5 4 -10.5t-4.5 -8.5t-9.5 -3.5t-11 4.5q-12 12 -27.5 26.5t-30.5 28.5z" />
    <glyph glyph-name="umacron" unicode="&#x16b;" horiz-adv-x="290" 
d="M43 245q2 10 10 13.5t17.5 3t18 -4.5t10.5 -10q1 -16 1.5 -36t3 -39.5t6.5 -36.5t12 -26q10 10 17 29t11.5 42t7 47t2.5 44q2 8 10 11.5t17.5 3.5t17.5 -3.5t10 -9.5q5 -37 8.5 -78.5t10 -82t19.5 -78.5t37 -68q7 -8 -4 -15.5t-23 -6.5q-7 0 -16 9q-33 42 -49 96t-24 111
q-3 -11 -8 -26t-12.5 -28.5t-18.5 -23t-27 -10.5q-14 -1 -27 8t-19 29q-11 33 -14 65.5t-5 70.5zM66 340q-8 0 -11 5.5t-2.5 11.5t4.5 11t11 6q29 1 58 0.5t58 0.5q12 -5 12 -15t-14 -13q-29 -1 -58 -4t-58 -3z" />
    <glyph glyph-name="uogonek" unicode="&#x173;" horiz-adv-x="290" 
d="M43 245q2 10 10 13.5t17.5 3t18 -4.5t10.5 -10q1 -16 1.5 -36t3 -39.5t6.5 -36.5t12 -26q10 10 17 29t11.5 42t7 47t2.5 44q2 8 10 11.5t17.5 3.5t17.5 -3.5t10 -9.5q5 -37 8.5 -78.5t10 -82t19.5 -78.5t37 -68q7 -8 -4 -15.5t-23 -6.5q-7 0 -16 9q-33 42 -49 96t-24 111
q-3 -11 -8 -26t-12.5 -28.5t-18.5 -23t-27 -10.5q-14 -1 -27 8t-19 29q-11 33 -14 65.5t-5 70.5zM272 -29q14 4 18.5 -6.5t-6.5 -18.5q-7 -6 -15 -17t-10.5 -21.5t5.5 -16.5t32 0q14 1 16.5 -9.5t-8.5 -17.5q-39 -11 -59 -1.5t-23 28t10 41.5t40 39z" />
    <glyph glyph-name="uring" unicode="&#x16f;" horiz-adv-x="290" 
d="M43 245q2 10 10 13.5t17.5 3t18 -4.5t10.5 -10q1 -16 1.5 -36t3 -39.5t6.5 -36.5t12 -26q10 10 17 29t11.5 42t7 47t2.5 44q2 8 10 11.5t17.5 3.5t17.5 -3.5t10 -9.5q5 -37 8.5 -78.5t10 -82t19.5 -78.5t37 -68q7 -8 -4 -15.5t-23 -6.5q-7 0 -16 9q-33 42 -49 96t-24 111
q-3 -11 -8 -26t-12.5 -28.5t-18.5 -23t-27 -10.5q-14 -1 -27 8t-19 29q-11 33 -14 65.5t-5 70.5zM125 392q22 -5 30.5 -16.5t5.5 -23t-15 -19.5t-30 -6q-15 2 -24 8t-13.5 14.5t-5 17t2.5 16.5q7 16 21 16t25 -4zM133 361q-6 2 -12 3l-12 2q-1 -4 2 -7t7 -4t8 0t7 6z" />
    <glyph glyph-name="utilde" unicode="&#x169;" horiz-adv-x="290" 
d="M43 245q2 10 10 13.5t17.5 3t18 -4.5t10.5 -10q1 -16 1.5 -36t3 -39.5t6.5 -36.5t12 -26q10 10 17 29t11.5 42t7 47t2.5 44q2 8 10 11.5t17.5 3.5t17.5 -3.5t10 -9.5q5 -37 8.5 -78.5t10 -82t19.5 -78.5t37 -68q7 -8 -4 -15.5t-23 -6.5q-7 0 -16 9q-33 42 -49 96t-24 111
q-3 -11 -8 -26t-12.5 -28.5t-18.5 -23t-27 -10.5q-14 -1 -27 8t-19 29q-11 33 -14 65.5t-5 70.5zM98 335q-8 -10 -18 -5.5t-7 17.5q11 26 22.5 34t22.5 5t21 -13t18 -21q8 11 12 13.5t7 1.5q5 -2 7.5 -8.5t-1.5 -14.5q-7 -15 -16 -19.5t-19 -1.5t-19.5 11t-18.5 17
q-5 -4 -7 -7.5t-4 -8.5z" />
    <glyph glyph-name="wacute" unicode="&#x1e83;" horiz-adv-x="371" 
d="M43 257q1 9 9.5 12.5t18 3t18 -4t10.5 -9.5q1 -38 2.5 -80.5t7.5 -78.5q4 19 8.5 39t9.5 37.5t10 30.5t9 18q8 10 17.5 13t19 2t17.5 -4.5t13 -6.5q9 -5 17 -21.5t15.5 -38t15.5 -44t17 -39.5q11 38 12.5 81.5t-3.5 87.5q-1 7 2.5 11.5t8.5 5.5t10 -1.5t7 -9.5
q3 -25 5.5 -54t2.5 -58t-3 -57.5t-12 -53.5q-5 -7 -19 -7.5t-22 1.5q-14 5 -27 28t-24.5 51t-20.5 54.5t-16 38.5q-11 -17 -17 -46t-10.5 -58.5t-9.5 -53.5t-14 -31q-4 -2 -11 -4.5t-14.5 -2.5t-14.5 2.5t-11 10.5q-18 59 -25.5 117.5t-8.5 118.5zM194 424q6 5 13.5 4
t13 -4.5t8 -9.5t-2.5 -12q-19 -20 -40.5 -41.5t-38.5 -44.5q-5 -5 -10.5 -5.5t-10 2.5t-6 8t2.5 11q19 23 35 47t36 45z" />
    <glyph glyph-name="wcircumflex" unicode="&#x175;" horiz-adv-x="371" 
d="M43 257q1 9 9.5 12.5t18 3t18 -4t10.5 -9.5q1 -38 2.5 -80.5t7.5 -78.5q4 19 8.5 39t9.5 37.5t10 30.5t9 18q8 10 17.5 13t19 2t17.5 -4.5t13 -6.5q9 -5 17 -21.5t15.5 -38t15.5 -44t17 -39.5q11 38 12.5 81.5t-3.5 87.5q-1 7 2.5 11.5t8.5 5.5t10 -1.5t7 -9.5
q3 -25 5.5 -54t2.5 -58t-3 -57.5t-12 -53.5q-5 -7 -19 -7.5t-22 1.5q-14 5 -27 28t-24.5 51t-20.5 54.5t-16 38.5q-11 -17 -17 -46t-10.5 -58.5t-9.5 -53.5t-14 -31q-4 -2 -11 -4.5t-14.5 -2.5t-14.5 2.5t-11 10.5q-18 59 -25.5 117.5t-8.5 118.5zM159 321q-4 -5 -10.5 -6
t-12.5 1t-10 6.5t-2 10.5q13 36 23.5 56t21.5 22t24.5 -15t31.5 -55q5 -14 -6.5 -17.5t-19.5 7.5q-6 14 -10.5 26.5t-8.5 13.5q-2 -1 -6.5 -11t-14.5 -39z" />
    <glyph glyph-name="wdieresis" unicode="&#x1e85;" horiz-adv-x="371" 
d="M43 257q1 9 9.5 12.5t18 3t18 -4t10.5 -9.5q1 -38 2.5 -80.5t7.5 -78.5q4 19 8.5 39t9.5 37.5t10 30.5t9 18q8 10 17.5 13t19 2t17.5 -4.5t13 -6.5q9 -5 17 -21.5t15.5 -38t15.5 -44t17 -39.5q11 38 12.5 81.5t-3.5 87.5q-1 7 2.5 11.5t8.5 5.5t10 -1.5t7 -9.5
q3 -25 5.5 -54t2.5 -58t-3 -57.5t-12 -53.5q-5 -7 -19 -7.5t-22 1.5q-14 5 -27 28t-24.5 51t-20.5 54.5t-16 38.5q-11 -17 -17 -46t-10.5 -58.5t-9.5 -53.5t-14 -31q-4 -2 -11 -4.5t-14.5 -2.5t-14.5 2.5t-11 10.5q-18 59 -25.5 117.5t-8.5 118.5zM119 335q-3 9 2.5 18
t16.5 11q9 0 16 -7.5t2 -18.5q-7 -9 -18 -12t-19 9zM199 340q-5 6 -2 12.5t9 10t14 2.5t13 -11q1 -6 -2 -11.5t-8.5 -8.5t-12 -2.5t-11.5 8.5z" />
    <glyph glyph-name="wgrave" unicode="&#x1e81;" horiz-adv-x="371" 
d="M43 257q1 9 9.5 12.5t18 3t18 -4t10.5 -9.5q1 -38 2.5 -80.5t7.5 -78.5q4 19 8.5 39t9.5 37.5t10 30.5t9 18q8 10 17.5 13t19 2t17.5 -4.5t13 -6.5q9 -5 17 -21.5t15.5 -38t15.5 -44t17 -39.5q11 38 12.5 81.5t-3.5 87.5q-1 7 2.5 11.5t8.5 5.5t10 -1.5t7 -9.5
q3 -25 5.5 -54t2.5 -58t-3 -57.5t-12 -53.5q-5 -7 -19 -7.5t-22 1.5q-14 5 -27 28t-24.5 51t-20.5 54.5t-16 38.5q-11 -17 -17 -46t-10.5 -58.5t-9.5 -53.5t-14 -31q-4 -2 -11 -4.5t-14.5 -2.5t-14.5 2.5t-11 10.5q-18 59 -25.5 117.5t-8.5 118.5zM137 377q-5 5 -3.5 11
t7 10t12 4.5t12.5 -3.5q16 -14 27 -29.5t24 -29.5q5 -5 4 -10.5t-4.5 -8.5t-9.5 -3.5t-11 4.5q-12 12 -27.5 26.5t-30.5 28.5z" />
    <glyph glyph-name="yacute" unicode="&#xfd;" horiz-adv-x="254" 
d="M74 246q3 -18 8.5 -42.5t13.5 -48.5t18.5 -45t23.5 -31q10 13 9 41t-5 63t-8 73t-1 71q3 8 11.5 10.5t17.5 1t16.5 -5.5t9.5 -9q6 -96 16 -189.5t19 -190.5q26 4 47.5 6.5t54.5 6.5q9 -1 13 -4.5t4 -8t-3 -8.5t-8 -5q-18 -2 -31.5 -4t-25 -4l-23 -4t-25.5 -4
q1 -18 2.5 -48t2 -65t-3 -71.5t-12.5 -68t-26 -55t-44 -32.5q-31 -11 -68 -2t-73 30.5t-68 52.5t-53.5 64t-29 64.5t5.5 55.5q15 27 51.5 43.5t81.5 27t92 16.5t83 11q-2 20 -3 34.5t-2.5 27t-3 26.5t-3.5 34q-6 -6 -14.5 -9.5t-16.5 0.5q-16 13 -33 36.5t-31 50.5t-23.5 55
t-9.5 51q2 6 9 9.5t15 3.5t14.5 -2.5t8.5 -8.5zM146 -366q15 27 21 62t7 72.5t-1.5 74t-4.5 66.5q-23 -4 -61.5 -9t-79 -14t-75.5 -22.5t-49 -33.5q-12 -17 -3 -45.5t31 -59.5t52.5 -59.5t62 -44.5t58.5 -15.5t42 28.5zM98 443q6 5 13.5 4t13 -4.5t8 -9.5t-2.5 -12
q-19 -20 -40.5 -41.5t-38.5 -44.5q-5 -5 -10.5 -5.5t-10 2.5t-6 8t2.5 11q19 23 35 47t36 45z" />
    <glyph glyph-name="ycircumflex" unicode="&#x177;" horiz-adv-x="254" 
d="M64 352q-3 -5 -9.5 -7t-12.5 -1t-10.5 4.5t-4.5 10.5q8 38 15.5 59t18.5 24.5t26.5 -11.5t39.5 -49q3 -7 1.5 -12t-5.5 -7t-10 -1t-10 6q-9 13 -15 25t-11 12q-2 -2 -4.5 -12.5t-8.5 -40.5zM74 246q3 -18 8.5 -42.5t13.5 -48.5t18.5 -45t23.5 -31q10 13 9 41t-5 63t-8 73
t-1 71q3 8 11.5 10.5t17.5 1t16.5 -5.5t9.5 -9q6 -96 16 -189.5t19 -190.5q26 4 47.5 6.5t54.5 6.5q9 -1 13 -4.5t4 -8t-3 -8.5t-8 -5q-18 -2 -31.5 -4t-25 -4l-23 -4t-25.5 -4q1 -18 2.5 -48t2 -65t-3 -71.5t-12.5 -68t-26 -55t-44 -32.5q-31 -11 -68 -2t-73 30.5t-68 52.5
t-53.5 64t-29 64.5t5.5 55.5q15 27 51.5 43.5t81.5 27t92 16.5t83 11q-2 20 -3 34.5t-2.5 27t-3 26.5t-3.5 34q-6 -6 -14.5 -9.5t-16.5 0.5q-16 13 -33 36.5t-31 50.5t-23.5 55t-9.5 51q2 6 9 9.5t15 3.5t14.5 -2.5t8.5 -8.5zM146 -366q15 27 21 62t7 72.5t-1.5 74
t-4.5 66.5q-23 -4 -61.5 -9t-79 -14t-75.5 -22.5t-49 -33.5q-12 -17 -3 -45.5t31 -59.5t52.5 -59.5t62 -44.5t58.5 -15.5t42 28.5z" />
    <glyph glyph-name="ydieresis" unicode="&#xff;" horiz-adv-x="254" 
d="M22 356q-5 9 -2 19t14 15q8 2 17 -4t7 -17q-5 -11 -15 -16.5t-21 3.5zM99 382q-6 5 -5 12t6 12t12.5 6t15.5 -7q3 -5 1.5 -11.5t-6 -11t-11 -5.5t-13.5 5zM74 246q3 -18 8.5 -42.5t13.5 -48.5t18.5 -45t23.5 -31q10 13 9 41t-5 63t-8 73t-1 71q3 8 11.5 10.5t17.5 1
t16.5 -5.5t9.5 -9q6 -96 16 -189.5t19 -190.5q26 4 47.5 6.5t54.5 6.5q9 -1 13 -4.5t4 -8t-3 -8.5t-8 -5q-18 -2 -31.5 -4t-25 -4l-23 -4t-25.5 -4q1 -18 2.5 -48t2 -65t-3 -71.5t-12.5 -68t-26 -55t-44 -32.5q-31 -11 -68 -2t-73 30.5t-68 52.5t-53.5 64t-29 64.5t5.5 55.5
q15 27 51.5 43.5t81.5 27t92 16.5t83 11q-2 20 -3 34.5t-2.5 27t-3 26.5t-3.5 34q-6 -6 -14.5 -9.5t-16.5 0.5q-16 13 -33 36.5t-31 50.5t-23.5 55t-9.5 51q2 6 9 9.5t15 3.5t14.5 -2.5t8.5 -8.5zM146 -366q15 27 21 62t7 72.5t-1.5 74t-4.5 66.5q-23 -4 -61.5 -9t-79 -14
t-75.5 -22.5t-49 -33.5q-12 -17 -3 -45.5t31 -59.5t52.5 -59.5t62 -44.5t58.5 -15.5t42 28.5z" />
    <glyph glyph-name="ygrave" unicode="&#x1ef3;" horiz-adv-x="254" 
d="M74 246q3 -18 8.5 -42.5t13.5 -48.5t18.5 -45t23.5 -31q10 13 9 41t-5 63t-8 73t-1 71q3 8 11.5 10.5t17.5 1t16.5 -5.5t9.5 -9q6 -96 16 -189.5t19 -190.5q26 4 47.5 6.5t54.5 6.5q9 -1 13 -4.5t4 -8t-3 -8.5t-8 -5q-18 -2 -31.5 -4t-25 -4l-23 -4t-25.5 -4
q1 -18 2.5 -48t2 -65t-3 -71.5t-12.5 -68t-26 -55t-44 -32.5q-31 -11 -68 -2t-73 30.5t-68 52.5t-53.5 64t-29 64.5t5.5 55.5q15 27 51.5 43.5t81.5 27t92 16.5t83 11q-2 20 -3 34.5t-2.5 27t-3 26.5t-3.5 34q-6 -6 -14.5 -9.5t-16.5 0.5q-16 13 -33 36.5t-31 50.5t-23.5 55
t-9.5 51q2 6 9 9.5t15 3.5t14.5 -2.5t8.5 -8.5zM146 -366q15 27 21 62t7 72.5t-1.5 74t-4.5 66.5q-23 -4 -61.5 -9t-79 -14t-75.5 -22.5t-49 -33.5q-12 -17 -3 -45.5t31 -59.5t52.5 -59.5t62 -44.5t58.5 -15.5t42 28.5zM23 371q-5 5 -3.5 11t7 10t12 4.5t12.5 -3.5
q16 -14 27 -29.5t24 -29.5q5 -5 4 -10.5t-4.5 -8.5t-9.5 -3.5t-11 4.5q-12 12 -27.5 26.5t-30.5 28.5z" />
    <glyph glyph-name="zacute" unicode="&#x17a;" horiz-adv-x="299" 
d="M52 253q-11 3 -10.5 14t13.5 13q13 -1 40 3t55.5 7t52.5 0.5t32 -16.5q10 -14 8.5 -33t-21.5 -44q-16 -20 -34.5 -45.5t-34 -49t-26 -41t-9.5 -21.5q3 -2 16.5 -2.5t32.5 0t40.5 3.5t40.5 8q7 1 12 -2.5t6 -8t-1.5 -9.5t-8.5 -8q-14 -3 -41.5 -9t-57 -10t-56 -4.5
t-38.5 6.5q-7 5 -10.5 18.5t-0.5 24.5q16 28 33.5 51.5t35 45.5t34.5 45.5t33 52.5q-4 12 -18 14.5t-33.5 1t-42 -4t-42.5 -0.5zM168 424q6 5 13.5 4t13 -4.5t8 -9.5t-2.5 -12q-19 -20 -40.5 -41.5t-38.5 -44.5q-5 -5 -10.5 -5.5t-10 2.5t-6 8t2.5 11q19 23 35 47t36 45z
" />
    <glyph glyph-name="zcaron" unicode="&#x17e;" horiz-adv-x="299" 
d="M52 253q-11 3 -10.5 14t13.5 13q13 -1 40 3t55.5 7t52.5 0.5t32 -16.5q10 -14 8.5 -33t-21.5 -44q-16 -20 -34.5 -45.5t-34 -49t-26 -41t-9.5 -21.5q3 -2 16.5 -2.5t32.5 0t40.5 3.5t40.5 8q7 1 12 -2.5t6 -8t-1.5 -9.5t-8.5 -8q-14 -3 -41.5 -9t-57 -10t-56 -4.5
t-38.5 6.5q-7 5 -10.5 18.5t-0.5 24.5q16 28 33.5 51.5t35 45.5t34.5 45.5t33 52.5q-4 12 -18 14.5t-33.5 1t-42 -4t-42.5 -0.5zM72 391q-3 7 1 14t11.5 10.5t15 3.5t11.5 -6t7.5 -14.5t7 -15.5t7 -11.5t6.5 -4.5q2 1 6.5 15t6.5 33q4 14 14.5 13.5t13.5 -13.5q-1 -7 -4 -20
t-7.5 -27t-10 -26.5t-11.5 -18.5q-5 -6 -14.5 -4t-18.5 10q-12 13 -23 30.5t-19 31.5z" />
    <glyph glyph-name="zdotaccent" unicode="&#x17c;" horiz-adv-x="299" 
d="M52 253q-11 3 -10.5 14t13.5 13q13 -1 40 3t55.5 7t52.5 0.5t32 -16.5q10 -14 8.5 -33t-21.5 -44q-16 -20 -34.5 -45.5t-34 -49t-26 -41t-9.5 -21.5q3 -2 16.5 -2.5t32.5 0t40.5 3.5t40.5 8q7 1 12 -2.5t6 -8t-1.5 -9.5t-8.5 -8q-14 -3 -41.5 -9t-57 -10t-56 -4.5
t-38.5 6.5q-7 5 -10.5 18.5t-0.5 24.5q16 28 33.5 51.5t35 45.5t34.5 45.5t33 52.5q-4 12 -18 14.5t-33.5 1t-42 -4t-42.5 -0.5zM120 350q-3 9 2.5 18t16.5 11q9 0 16 -7.5t2 -18.5q-7 -10 -18 -12.5t-19 9.5z" />
    <glyph glyph-name="Eth" unicode="&#xd0;" horiz-adv-x="423" 
d="M52 464q1 6 9.5 9.5t18 3.5t18 -3t10.5 -9v-2q25 12 55 6.5t60 -22.5t59 -43.5t52 -56.5t38.5 -61t19.5 -58q10 -66 -16.5 -116.5t-71.5 -96.5q-10 -10 -26 -19.5t-32 -12.5t-29.5 3t-17.5 26q-1 7 2.5 12t8 6t9.5 -1.5t8 -9.5v-3q32 17 58 45t41 66q21 51 11.5 101.5
t-38.5 94t-71.5 75.5t-87.5 45q-9 -2 -16.5 -7t-9.5 -14q-9 -26 -5.5 -59t12.5 -69t20 -73.5t17.5 -72.5t4 -66.5t-19.5 -55.5q-2 -2 -9 -4t-14.5 -2.5t-14.5 0t-10 2.5q-18 17 -28 55t-15 85t-5.5 98t0.5 94.5t3 73.5t2 36zM129 66q2 34 -4 77.5t-20 93.5q2 -54 7 -100.5
t17 -70.5zM40 203q-8 0 -11 5.5t-2.5 11.5t4.5 11t11 6q29 1 58 0.5t58 0.5q12 -5 12 -15t-14 -13q-29 -1 -58 -4t-58 -3z" />
    <glyph glyph-name="Eng" unicode="&#x14a;" horiz-adv-x="403" 
d="M122 -141q8 20 30.5 35.5t53.5 27t66 20.5t67 16q-7 35 -12 64.5t-9 55.5q14 2 25.5 7.5t24.5 10.5q8 -29 13 -60t13 -66q9 2 17 4t14 4q14 1 16.5 -9.5t-8.5 -17.5l-34 -8q4 -26 8 -55t3 -55.5t-7 -47t-21 -28.5q-21 -12 -50.5 -12t-59.5 7t-58 18t-47 22q-7 4 -16.5 11
t-17 16t-11.5 19t0 21zM160 -148q0 -13 15 -26.5t37.5 -24.5t49.5 -18t50 -7q17 3 27.5 11t12.5 22q2 30 -0.5 61t-7.5 62q-29 -7 -59.5 -15t-56.5 -18t-44.5 -21.5t-23.5 -25.5zM69 10q-1 2 -4.5 25.5t-7 60t-7.5 81.5t-7 90t-4.5 86t-0.5 69q0 8 7 13t16.5 7t19.5 0.5
t16 -5.5q7 -2 24.5 -27.5t40.5 -62.5t48.5 -80t48 -79.5t38.5 -61t21 -25.5q-6 49 -14.5 107t-13.5 116.5t-2.5 112t17.5 94.5q4 12 11 16t12.5 2t8 -9.5t-0.5 -19.5q-11 -30 -12.5 -70t2.5 -84.5t12 -92t16.5 -93.5t16 -88t11.5 -76q0 -6 -5 -11.5t-12.5 -9.5t-15 -4.5
t-11.5 4.5q-39 42 -71.5 85.5t-61.5 88t-57.5 90.5t-59.5 95q-2 -16 -0.5 -58t3.5 -92.5t4 -102t2 -85.5q-4 -13 -13 -15t-15 9z" />
    <glyph glyph-name="eng" unicode="&#x14b;" horiz-adv-x="322" 
d="M52 259q5 9 15 10.5t19.5 -2.5t15.5 -10.5t3 -12.5q-2 -26 -3.5 -49t-1.5 -41q7 23 14 42t14 30q3 5 5.5 9t6.5 6q14 13 31.5 9.5t25.5 -8.5q18 -20 27.5 -47t14.5 -50q3 -14 6.5 -31t6.5 -35.5t6 -36t5 -32.5l24 14q14 4 19 -7t-8 -18l-32 -16q2 -28 5.5 -64.5t5.5 -75
t1.5 -77.5t-5.5 -73.5t-16.5 -61t-31.5 -40.5q-8 -5 -20.5 -7.5t-26 -2.5t-26 2t-20.5 7q-15 7 -28 17t-22 19q-20 21 -34.5 49.5t-20 60t1 63t28.5 57.5q32 40 73.5 70t82.5 55q-2 29 -8 64.5t-18 88.5q-7 24 -13.5 46t-15.5 34q-9 -6 -15 -30t-10.5 -52.5t-8.5 -56
t-9 -40.5q-3 -6 -10.5 -8.5t-16 -2.5t-16 3t-9.5 8q-5 6 -9 37t-6 68t-1.5 71t5.5 48zM181 -384q15 9 24 32t13.5 53.5t5.5 65.5t0 69t-3.5 64.5t-5.5 51.5q-38 -22 -73 -51.5t-60 -63.5q-17 -23 -20.5 -51t2.5 -56t19.5 -53t30 -42t34.5 -23t33 4z" />
    <glyph glyph-name="quotesinglbase" unicode="&#x201a;" horiz-adv-x="79" 
d="M24 -27q8 7 12.5 21t-4.5 22q-17 4 -20.5 13t-0.5 17q3 9 11 14t18 5t18 -7t11 -23q4 -22 -6.5 -42.5t-20.5 -31.5q-3 -4 -7 -4.5t-7.5 1t-5 5.5t1.5 10z" />
    <glyph glyph-name="section" unicode="&#xa7;" horiz-adv-x="293" 
d="M186 75q-14 15 -34 32.5t-39 37t-34.5 39.5t-21 40t2 39.5t34.5 37.5q-11 11 -19.5 24t-14.5 30q-13 34 -2.5 54.5t29.5 28.5q15 6 33 4t35.5 -11t31.5 -24.5t20 -36.5q-2 -13 -13.5 -15t-19.5 9q-6 23 -23 37.5t-31 10.5q-18 -4 -18 -16.5t11 -28.5t29.5 -34.5t37 -35
t33.5 -29.5t20 -18q16 -16 22 -32.5t-4 -33.5q-7 -12 -22.5 -22t-35.5 -17q14 -13 24.5 -21.5t15.5 -13.5q16 -16 22 -32.5t-4 -33.5t-36 -29.5t-57 -18.5t-60 -4t-44 14q-17 14 -16 30t6 35q1 7 7.5 10.5t13 3t11.5 -5t4 -11.5q-2 -7 -2.5 -14t1.5 -14t14 -10.5t28 -3.5
t32.5 2.5t28 8.5t14 15.5t-9.5 22.5zM123 272q-17 -4 -19 -14.5t6 -25t23 -30.5t32 -32q22 7 28.5 22t-21.5 41z" />
    <glyph glyph-name="ellipsis" unicode="&#x2026;" horiz-adv-x="263" 
d="M55 16q-12 -5 -19.5 1t-9 15t3 16t16.5 5q12 -4 17.5 -15.5t-8.5 -21.5zM143 16q-12 -5 -19.5 1t-9 15t3 16.5t15.5 4.5q13 -4 18 -15.5t-8 -21.5zM230 16q-13 -5 -20 1t-8.5 14.5t3.5 16t16 5.5q13 -4 18 -15.5t-9 -21.5z" />
    <glyph glyph-name="trademark" unicode="&#x2122;" horiz-adv-x="501" 
d="M246 243q-1 -8 -9 -8.5t-8 7.5l-3 149q-1 26 -1.5 46t1.5 46q0 4 4 6t9 2t9.5 -1.5t6.5 -4.5q4 -12 8.5 -29.5t9 -37.5t10 -40.5t11.5 -38.5q8 -20 14 -32.5t11 -13.5q10 -3 17.5 19.5t13 52.5t8.5 59.5t5 41.5q2 11 7.5 19t19.5 5q6 -2 12 -5.5t6 -9.5q0 -5 0.5 -8.5
t0.5 -7.5q1 -2 1 -5q1 -18 2.5 -32.5t3 -28t4 -27.5t6.5 -32q6 -26 21 -49t33 -28q6 -6 0 -9t-12 -1q-27 10 -43 30.5t-25 47t-12.5 57.5t-5.5 61q-4 -19 -9 -48t-12.5 -56.5t-18 -47t-24.5 -19.5q-12 0 -23 13.5t-20 33.5t-16 44.5t-12 46.5q0 -25 -0.5 -44t-0.5 -37v-38
v-48zM88 491q3 3 12 3.5t14 -3.5q22 2 40 2.5t40 0.5q5 -1 5 -6t-6 -7q-21 -1 -39 -2t-39 -3q2 -53 6.5 -104.5t6.5 -104.5q-1 -7 -13.5 -7.5t-13.5 6.5q-2 53 -6 104.5t-7 104.5q-18 -2 -32.5 -3t-32.5 -2q-7 1 -6.5 9t7.5 9q18 1 32 0.5t32 1.5v1z" />
    <glyph glyph-name="paragraph" unicode="&#xb6;" horiz-adv-x="354" 
d="M317 476q7 -83 6.5 -165t-0.5 -165l4 -128q0 -7 -8.5 -10.5t-19 -3.5t-19 4t-9.5 12l-3 109q-8 2 -15 4t-14 5l2 -117q-1 -7 -9.5 -10t-18.5 -3t-18.5 3.5t-9.5 10.5q-1 34 -1 68t-2 68q-26 11 -48.5 22.5t-43.5 27.5q-43 32 -50 72.5t25 83.5q12 16 35 36.5t51 38
t57 28.5t53 8q1 6 9.5 10.5t18 5t18 -2.5t10.5 -12zM264 231q-1 8 -0.5 37.5t-0.5 64t-5 66.5t-13 44q-6 9 -14 3q1 -69 3 -138.5t4 -139.5l29 -9z" />
    <glyph glyph-name="logicalnot" unicode="&#xac;" horiz-adv-x="243" 
d="M32 210q-8 1 -11 6t-2.5 11t4.5 11t11 5h169q6 2 13 0.5t11 -9.5v-62q-2 -14 -14 -15.5t-14 13.5l-7 38q-44 -1 -80 0.5t-80 1.5z" />
    <glyph glyph-name="b" unicode="b" horiz-adv-x="242" 
d="M37 455q1 9 9.5 13t18 3.5t18 -4.5t10.5 -10q0 -26 0.5 -53.5t2 -59t3.5 -68t5 -81.5q12 15 26.5 21t29 3.5t27.5 -14t21 -31.5q7 -18 3 -40t-15.5 -43t-29.5 -38.5t-39 -27.5q6 -24 -1 -33q-9 -11 -19.5 -12t-20 3.5t-16.5 14t-9 21.5q-11 0 -13 12t8 17q-5 105 -12 204
t-7 203zM133 187q-8 -6 -13 -19.5t-7 -31.5l9 -83q13 15 21.5 35t10.5 39.5t-3 35.5t-18 24z" />
    <glyph glyph-name="c" unicode="c" 
d="M193 200q-4 -14 -13.5 -14.5t-15.5 11.5q-2 6 -10.5 24t-22.5 28q-7 -6 -12.5 -19.5t-9 -32t-4.5 -40.5t1 -43q2 -33 12.5 -60t27.5 -37q20 8 30 20t27 27q7 4 13.5 3.5t11 -4.5t5.5 -10t-4 -12q-11 -14 -28 -27t-37 -19q-35 -11 -58.5 0.5t-37 37t-18 59.5t-3 68t9.5 63
t19 44q16 20 36.5 20.5t38.5 -12t30 -33t12 -42.5z" />
    <glyph glyph-name="a" unicode="a" horiz-adv-x="270" 
d="M89 243q10 13 25 19t32 3q0 4 1 8.5t6 8.5q11 8 27.5 4t20.5 -12q1 -27 4 -73t9 -93.5t16 -87.5t25 -55q4 -5 0.5 -10t-10 -8.5t-15 -4.5t-12.5 2q-11 10 -19.5 28.5t-15.5 41.5t-13 50t-10 55q-5 -20 -11 -38.5t-17 -35.5q-14 -26 -32.5 -35t-35 -4.5t-27 22t-8.5 46.5
q3 48 16.5 89.5t43.5 79.5zM89 38q16 13 26.5 36.5t16 50.5t7 53.5t-0.5 45.5q-14 -14 -26.5 -37.5t-20 -49.5t-9 -52.5t6.5 -46.5z" />
    </font>
</defs>
</svg>
