<?xml version="1.0" encoding="UTF-8"?>
<svg width="114px" height="42px" viewBox="0 0 114 42" version="1.1" xmlns="http://www.w3.org/2000/svg" xmlns:xlink="http://www.w3.org/1999/xlink">
    <!-- Generator: sketchtool 52.6 (67491) - http://www.bohemiancoding.com/sketch -->
    <title>713B23F1-21DA-487C-94E5-D620188E5882</title>
    <desc>Created with sketchtool.</desc>
    <g id="Symbols" stroke="none" stroke-width="1" fill="none" fill-rule="evenodd">
        <g id="Header" transform="translate(-80.000000, -21.000000)" fill="#000000">
            <g id="Hilton_Worldwide_logo" transform="translate(80.000000, 21.000000)">
                <g id="Group" transform="translate(57.000000, 21.000000) scale(-1, 1) rotate(-180.000000) translate(-57.000000, -21.000000) ">
                    <path d="M0,21 L0,0 L57,0 L114,0 L114,21 L114,42 L57,42 L0,42 L0,21 Z M112.094987,21 L112.094987,1.89099526 L57.0300792,1.91090047 L1.95514512,1.94075829 L1.92506596,21.0298578 L1.90501319,40.1090047 L57,40.1090047 L112.094987,40.1090047 L112.094987,21 Z" id="Shape" fill-rule="nonzero"></path>
                    <path d="M9.82585752,31.8085308 L9.82585752,31.27109 L10.2569921,31.2014218 C10.4875989,31.171564 10.828496,31.1118483 11.008971,31.0819905 L11.3298153,31.0322275 L11.3097625,21.0099526 L11.2796834,10.9976303 L10.5577836,10.9180095 L9.82585752,10.828436 L9.82585752,10.2412322 L9.82585752,9.65402844 L13.6358839,9.65402844 L17.4459103,9.65402844 L17.4459103,10.2412322 L17.4459103,10.828436 L16.7240106,10.9180095 L15.9920844,10.9976303 L15.9620053,15.5559242 L15.9419525,20.1042654 L20.9551451,20.1042654 L25.9683377,20.1042654 L25.9683377,15.585782 C25.9683377,11.8137441 25.948285,11.057346 25.8279683,11.0175355 C25.7477573,10.9876777 25.3667546,10.9279621 24.9757256,10.8881517 L24.2638522,10.8184834 L24.2638522,10.2412322 L24.2638522,9.65402844 L28.1741425,9.65402844 L32.0844327,9.65402844 L32.0844327,10.2412322 L32.0844327,10.828436 L31.4126649,10.8981043 C31.051715,10.9379147 30.6907652,10.9876777 30.6105541,11.0175355 C30.5002639,11.057346 30.4802111,12.8488152 30.4802111,21.049763 L30.4802111,31.0322275 L30.8812665,31.0919431 C31.101847,31.1218009 31.4627968,31.1815166 31.6833773,31.2113744 L32.0844327,31.27109 L32.0844327,31.8085308 L32.0844327,32.3459716 L28.1741425,32.3459716 L24.2638522,32.3459716 L24.2638522,31.8085308 L24.2638522,31.27109 L24.7451187,31.2113744 C25.0058047,31.171564 25.3868074,31.1218009 25.5973615,31.0919431 L25.9683377,31.0322275 L25.9683377,26.7625592 L25.9683377,22.492891 L20.9551451,22.492891 L15.9419525,22.492891 L15.9419525,26.7625592 L15.9419525,31.0322275 L16.3730871,31.1018957 C17.5562005,31.2810427 17.4459103,31.2113744 17.4459103,31.8085308 L17.4459103,32.3459716 L13.6358839,32.3459716 L9.82585752,32.3459716 L9.82585752,31.8085308 Z" id="Path"></path>
                    <path d="M37.9899736,32.0672986 C35.9044855,30.9924171 36.7366755,27.8672986 39.1029024,27.8672986 C39.8147757,27.8672986 40.3662269,28.1260664 40.8274406,28.6535545 C41.5794195,29.5293839 41.5794195,30.6838863 40.8174142,31.5597156 C40.1155673,32.385782 38.9825858,32.5848341 37.9899736,32.0672986 Z" id="Path"></path>
                    <path d="M45.8205805,31.8582938 L45.8205805,31.3706161 L46.5023747,31.2909953 L47.1741425,31.2014218 L47.2042216,21.0298578 L47.2242744,10.8682464 L46.953562,10.8085308 C46.7931398,10.778673 46.4823219,10.72891 46.251715,10.6990521 L45.8205805,10.6293839 L45.8205805,10.1417062 L45.8205805,9.65402844 L49.3799472,9.65402844 L52.939314,9.65402844 L52.939314,10.1417062 L52.939314,10.6293839 L52.5182058,10.6990521 C52.2775726,10.72891 51.9667546,10.778673 51.8163588,10.8085308 L51.5356201,10.8682464 L51.5356201,21.607109 L51.5356201,32.3459716 L48.6781003,32.3459716 L45.8205805,32.3459716 L45.8205805,31.8582938 Z" id="Path"></path>
                    <path d="M59.5868074,29.8180095 L57.5514512,29.2109005 L57.5514512,27.4990521 L57.5514512,25.7772512 L55.9973615,25.7772512 L54.4432718,25.7772512 L54.4432718,25.0308057 L54.4432718,24.2843602 L55.9372032,24.2843602 L57.4411609,24.2843602 L57.4712401,18.243128 C57.5113456,11.5151659 57.5113456,11.5848341 58.2031662,10.6293839 C59.2559367,9.19620853 62.4042216,9.04691943 66.1540897,10.2611374 L66.7757256,10.4701422 L66.7757256,11.0175355 L66.7757256,11.5649289 L66.474934,11.4952607 C66.3044855,11.4554502 65.5926121,11.4255924 64.8907652,11.4255924 C63.0659631,11.4156398 62.4844327,11.6345972 62.0432718,12.5203791 L61.8126649,12.9881517 L61.7825858,18.6412322 L61.7525066,24.2843602 L63.6675462,24.2843602 L65.5725594,24.2843602 L65.5725594,25.0308057 L65.5725594,25.7772512 L63.6675462,25.7772512 L61.762533,25.7772512 L61.762533,28.1161137 C61.762533,29.4 61.7324538,30.4549763 61.6923483,30.4450237 C61.6422164,30.4350711 60.6997361,30.1563981 59.5868074,29.8180095 Z" id="Path"></path>
                    <path d="M74.9973615,26.2151659 C73.4934037,26.0161137 71.6184697,25.2696682 70.5656992,24.4436019 C69.3324538,23.4682464 68.3398417,21.9156398 67.878628,20.2535545 C67.56781,19.1388626 67.4875989,16.6606635 67.7182058,15.3369668 C68.0490765,13.485782 68.5905013,12.3412322 69.6833773,11.2464455 C70.9868074,9.94265403 72.7815303,9.3056872 75.4986807,9.19620853 C78.3662269,9.06682464 80.7124011,9.82322275 82.4168865,11.4156398 C84.0311346,12.9184834 84.7831135,14.6601896 84.8934037,17.1184834 C84.9635884,18.6810427 84.8131926,19.8654028 84.382058,21.1194313 C83.9408971,22.4232227 83.5197889,23.0900474 82.5672823,24.035545 C81.9155673,24.6924171 81.5846966,24.921327 80.8126649,25.3094787 C79.4992084,25.9464455 78.4865435,26.1753555 76.7519789,26.2251185 C75.9799472,26.2450237 75.1878628,26.2350711 74.9973615,26.2151659 Z M76.8021108,24.9810427 C77.9751979,24.7620853 78.7773087,24.0952607 79.3588391,22.8412322 C79.9905013,21.4876777 80.2110818,20.1739336 80.2110818,17.6758294 C80.2110818,12.6895735 78.9878628,10.4402844 76.2506596,10.4303318 C75.2580475,10.4203791 74.5361478,10.6990521 73.9245383,11.336019 C72.6511873,12.6298578 72.0295515,15.635545 72.2902375,19.1587678 C72.5509235,22.6919431 73.6237467,24.6028436 75.5287599,24.9810427 C76.1203166,25.0905213 76.2105541,25.0905213 76.8021108,24.9810427 Z" id="Shape" fill-rule="nonzero"></path>
                    <path d="M97.3762533,26.0658768 C96.1229551,25.9066351 94.5788918,25.2199052 93.2654354,24.2345972 C92.8643799,23.936019 92.4833773,23.6872038 92.4332454,23.6872038 C92.3831135,23.6872038 92.3430079,24.1549763 92.3430079,24.7322275 L92.3430079,25.7772512 L89.4854881,25.7772512 L86.6279683,25.7772512 L86.6279683,25.2398104 L86.6279683,24.7023697 L87.1092348,24.642654 C87.3699208,24.6028436 87.7007916,24.5530806 87.8612137,24.5232227 L88.1319261,24.4635071 L88.1319261,17.6658768 L88.1319261,10.8682464 L87.5604222,10.8085308 C86.6279683,10.6990521 86.6279683,10.6990521 86.6279683,10.1417062 L86.6279683,9.65402844 L90.237467,9.65402844 L93.8469657,9.65402844 L93.8469657,10.1516588 C93.8469657,10.4303318 93.8168865,10.6492891 93.776781,10.6592417 C93.7266491,10.6691943 93.4058047,10.7189573 93.0448549,10.7886256 L92.3931398,10.8981043 L92.3931398,16.6706161 L92.3931398,22.443128 L92.8944591,22.771564 C93.1751979,22.9507109 93.7567282,23.2393365 94.1978892,23.4085308 C94.8897098,23.6872038 95.1203166,23.7270142 95.9023747,23.7369668 C96.8949868,23.7369668 97.3562005,23.5677725 97.8775726,23.0203791 C98.669657,22.1943128 98.7799472,21.2687204 98.7398417,15.4265403 L98.7097625,10.8981043 L98.0580475,10.7886256 C97.6970976,10.7189573 97.3762533,10.6691943 97.3361478,10.6592417 C97.2860158,10.6492891 97.2559367,10.4303318 97.2559367,10.1516588 L97.2559367,9.65402844 L100.865435,9.65402844 L104.474934,9.65402844 L104.474934,10.1417062 C104.474934,10.6990521 104.474934,10.6990521 103.552507,10.7985782 L102.981003,10.8682464 L102.950923,16.6606635 C102.920844,22.3933649 102.910818,22.4530806 102.680211,23.1398104 C102.369393,24.0853081 102.068602,24.5729858 101.467018,25.1104265 C100.875462,25.6379147 100.123483,25.9464455 99.1208443,26.0758294 C98.3187335,26.1853081 98.2485488,26.1853081 97.3762533,26.0658768 Z" id="Path"></path>
                    <path d="M35.4934037,25.2895735 L35.4934037,24.8018957 L35.9746702,24.7421801 C36.2353562,24.7023697 36.5662269,24.6526066 36.7266491,24.6227488 L36.9973615,24.5630332 L36.9773087,17.735545 L36.9472296,10.8981043 L36.2955145,10.7886256 C35.9345646,10.7189573 35.6137203,10.6691943 35.5736148,10.6592417 C35.5234828,10.6492891 35.4934037,10.4303318 35.4934037,10.1516588 L35.4934037,9.65402844 L39.1129288,9.65402844 L42.7224274,9.65402844 L42.6923483,10.1118483 C42.6522427,10.6592417 42.582058,10.7189573 41.7899736,10.7985782 L41.2084433,10.8582938 L41.2084433,18.3227488 L41.2084433,25.7772512 L38.3509235,25.7772512 L35.4934037,25.7772512 L35.4934037,25.2895735 Z" id="Path"></path>
                </g>
            </g>
        </g>
    </g>
</svg>